<?xml version="1.0" encoding="utf-8" standalone="no"?>
<!DOCTYPE svg PUBLIC "-//W3C//DTD SVG 1.1//EN"
  "http://www.w3.org/Graphics/SVG/1.1/DTD/svg11.dtd">
<!-- Created with matplotlib (http://matplotlib.org/) -->
<svg height="345.6pt" version="1.1" viewBox="0 0 460.8 345.6" width="460.8pt" xmlns="http://www.w3.org/2000/svg" xmlns:xlink="http://www.w3.org/1999/xlink">
 <defs>
  <style type="text/css">
*{stroke-linecap:butt;stroke-linejoin:round;}
  </style>
 </defs>
 <g id="figure_1">
  <g id="patch_1">
   <path d="M 0 345.6 
L 460.8 345.6 
L 460.8 0 
L 0 0 
z
" style="fill:#ffffff;"/>
  </g>
  <g id="axes_1">
   <g id="patch_2">
    <path d="M 57.6 307.584 
L 414.72 307.584 
L 414.72 41.472 
L 57.6 41.472 
z
" style="fill:#eaeaf2;"/>
   </g>
   <g id="matplotlib.axis_1">
    <g id="xtick_1">
     <g id="line2d_1">
      <path clip-path="url(#p0a4e37575c)" d="M 57.6 307.584 
L 57.6 41.472 
" style="fill:none;stroke:#ffffff;stroke-linecap:round;"/>
     </g>
     <g id="line2d_2"/>
     <g id="text_1">
      <!-- 0.0 -->
      <defs>
       <path d="M 4.15625 35.296875 
Q 4.15625 48 6.765625 55.734375 
Q 9.375 63.484375 14.515625 67.671875 
Q 19.671875 71.875 27.484375 71.875 
Q 33.25 71.875 37.59375 69.546875 
Q 41.9375 67.234375 44.765625 62.859375 
Q 47.609375 58.5 49.21875 52.21875 
Q 50.828125 45.953125 50.828125 35.296875 
Q 50.828125 22.703125 48.234375 14.96875 
Q 45.65625 7.234375 40.5 3 
Q 35.359375 -1.21875 27.484375 -1.21875 
Q 17.140625 -1.21875 11.234375 6.203125 
Q 4.15625 15.140625 4.15625 35.296875 
z
M 13.1875 35.296875 
Q 13.1875 17.671875 17.3125 11.828125 
Q 21.4375 6 27.484375 6 
Q 33.546875 6 37.671875 11.859375 
Q 41.796875 17.71875 41.796875 35.296875 
Q 41.796875 52.984375 37.671875 58.78125 
Q 33.546875 64.59375 27.390625 64.59375 
Q 21.34375 64.59375 17.71875 59.46875 
Q 13.1875 52.9375 13.1875 35.296875 
z
" id="ArialMT-30"/>
       <path d="M 9.078125 0 
L 9.078125 10.015625 
L 19.09375 10.015625 
L 19.09375 0 
z
" id="ArialMT-2e"/>
      </defs>
      <g style="fill:#262626;" transform="translate(50.65 321.741812)scale(0.1 -0.1)">
       <use xlink:href="#ArialMT-30"/>
       <use x="55.615234" xlink:href="#ArialMT-2e"/>
       <use x="83.398438" xlink:href="#ArialMT-30"/>
      </g>
     </g>
    </g>
    <g id="xtick_2">
     <g id="line2d_3">
      <path clip-path="url(#p0a4e37575c)" d="M 114.437413 307.584 
L 114.437413 41.472 
" style="fill:none;stroke:#ffffff;stroke-linecap:round;"/>
     </g>
     <g id="line2d_4"/>
     <g id="text_2">
      <!-- 0.5 -->
      <defs>
       <path d="M 4.15625 18.75 
L 13.375 19.53125 
Q 14.40625 12.796875 18.140625 9.390625 
Q 21.875 6 27.15625 6 
Q 33.5 6 37.890625 10.78125 
Q 42.28125 15.578125 42.28125 23.484375 
Q 42.28125 31 38.0625 35.34375 
Q 33.84375 39.703125 27 39.703125 
Q 22.75 39.703125 19.328125 37.765625 
Q 15.921875 35.84375 13.96875 32.765625 
L 5.71875 33.84375 
L 12.640625 70.609375 
L 48.25 70.609375 
L 48.25 62.203125 
L 19.671875 62.203125 
L 15.828125 42.96875 
Q 22.265625 47.46875 29.34375 47.46875 
Q 38.71875 47.46875 45.15625 40.96875 
Q 51.609375 34.46875 51.609375 24.265625 
Q 51.609375 14.546875 45.953125 7.46875 
Q 39.0625 -1.21875 27.15625 -1.21875 
Q 17.390625 -1.21875 11.203125 4.25 
Q 5.03125 9.71875 4.15625 18.75 
z
" id="ArialMT-35"/>
      </defs>
      <g style="fill:#262626;" transform="translate(107.487413 321.741812)scale(0.1 -0.1)">
       <use xlink:href="#ArialMT-30"/>
       <use x="55.615234" xlink:href="#ArialMT-2e"/>
       <use x="83.398438" xlink:href="#ArialMT-35"/>
      </g>
     </g>
    </g>
    <g id="xtick_3">
     <g id="line2d_5">
      <path clip-path="url(#p0a4e37575c)" d="M 171.274827 307.584 
L 171.274827 41.472 
" style="fill:none;stroke:#ffffff;stroke-linecap:round;"/>
     </g>
     <g id="line2d_6"/>
     <g id="text_3">
      <!-- 1.0 -->
      <defs>
       <path d="M 37.25 0 
L 28.46875 0 
L 28.46875 56 
Q 25.296875 52.984375 20.140625 49.953125 
Q 14.984375 46.921875 10.890625 45.40625 
L 10.890625 53.90625 
Q 18.265625 57.375 23.78125 62.296875 
Q 29.296875 67.234375 31.59375 71.875 
L 37.25 71.875 
z
" id="ArialMT-31"/>
      </defs>
      <g style="fill:#262626;" transform="translate(164.324827 321.741812)scale(0.1 -0.1)">
       <use xlink:href="#ArialMT-31"/>
       <use x="55.615234" xlink:href="#ArialMT-2e"/>
       <use x="83.398438" xlink:href="#ArialMT-30"/>
      </g>
     </g>
    </g>
    <g id="xtick_4">
     <g id="line2d_7">
      <path clip-path="url(#p0a4e37575c)" d="M 228.11224 307.584 
L 228.11224 41.472 
" style="fill:none;stroke:#ffffff;stroke-linecap:round;"/>
     </g>
     <g id="line2d_8"/>
     <g id="text_4">
      <!-- 1.5 -->
      <g style="fill:#262626;" transform="translate(221.16224 321.741812)scale(0.1 -0.1)">
       <use xlink:href="#ArialMT-31"/>
       <use x="55.615234" xlink:href="#ArialMT-2e"/>
       <use x="83.398438" xlink:href="#ArialMT-35"/>
      </g>
     </g>
    </g>
    <g id="xtick_5">
     <g id="line2d_9">
      <path clip-path="url(#p0a4e37575c)" d="M 284.949653 307.584 
L 284.949653 41.472 
" style="fill:none;stroke:#ffffff;stroke-linecap:round;"/>
     </g>
     <g id="line2d_10"/>
     <g id="text_5">
      <!-- 2.0 -->
      <defs>
       <path d="M 50.34375 8.453125 
L 50.34375 0 
L 3.03125 0 
Q 2.9375 3.171875 4.046875 6.109375 
Q 5.859375 10.9375 9.828125 15.625 
Q 13.8125 20.3125 21.34375 26.46875 
Q 33.015625 36.03125 37.109375 41.625 
Q 41.21875 47.21875 41.21875 52.203125 
Q 41.21875 57.421875 37.46875 61 
Q 33.734375 64.59375 27.734375 64.59375 
Q 21.390625 64.59375 17.578125 60.78125 
Q 13.765625 56.984375 13.71875 50.25 
L 4.6875 51.171875 
Q 5.609375 61.28125 11.65625 66.578125 
Q 17.71875 71.875 27.9375 71.875 
Q 38.234375 71.875 44.234375 66.15625 
Q 50.25 60.453125 50.25 52 
Q 50.25 47.703125 48.484375 43.546875 
Q 46.734375 39.40625 42.65625 34.8125 
Q 38.578125 30.21875 29.109375 22.21875 
Q 21.1875 15.578125 18.9375 13.203125 
Q 16.703125 10.84375 15.234375 8.453125 
z
" id="ArialMT-32"/>
      </defs>
      <g style="fill:#262626;" transform="translate(277.999653 321.741812)scale(0.1 -0.1)">
       <use xlink:href="#ArialMT-32"/>
       <use x="55.615234" xlink:href="#ArialMT-2e"/>
       <use x="83.398438" xlink:href="#ArialMT-30"/>
      </g>
     </g>
    </g>
    <g id="xtick_6">
     <g id="line2d_11">
      <path clip-path="url(#p0a4e37575c)" d="M 341.787066 307.584 
L 341.787066 41.472 
" style="fill:none;stroke:#ffffff;stroke-linecap:round;"/>
     </g>
     <g id="line2d_12"/>
     <g id="text_6">
      <!-- 2.5 -->
      <g style="fill:#262626;" transform="translate(334.837066 321.741812)scale(0.1 -0.1)">
       <use xlink:href="#ArialMT-32"/>
       <use x="55.615234" xlink:href="#ArialMT-2e"/>
       <use x="83.398438" xlink:href="#ArialMT-35"/>
      </g>
     </g>
    </g>
    <g id="xtick_7">
     <g id="line2d_13">
      <path clip-path="url(#p0a4e37575c)" d="M 398.62448 307.584 
L 398.62448 41.472 
" style="fill:none;stroke:#ffffff;stroke-linecap:round;"/>
     </g>
     <g id="line2d_14"/>
     <g id="text_7">
      <!-- 3.0 -->
      <defs>
       <path d="M 4.203125 18.890625 
L 12.984375 20.0625 
Q 14.5 12.59375 18.140625 9.296875 
Q 21.78125 6 27 6 
Q 33.203125 6 37.46875 10.296875 
Q 41.75 14.59375 41.75 20.953125 
Q 41.75 27 37.796875 30.921875 
Q 33.84375 34.859375 27.734375 34.859375 
Q 25.25 34.859375 21.53125 33.890625 
L 22.515625 41.609375 
Q 23.390625 41.5 23.921875 41.5 
Q 29.546875 41.5 34.03125 44.421875 
Q 38.53125 47.359375 38.53125 53.46875 
Q 38.53125 58.296875 35.25 61.46875 
Q 31.984375 64.65625 26.8125 64.65625 
Q 21.6875 64.65625 18.265625 61.421875 
Q 14.84375 58.203125 13.875 51.765625 
L 5.078125 53.328125 
Q 6.6875 62.15625 12.390625 67.015625 
Q 18.109375 71.875 26.609375 71.875 
Q 32.46875 71.875 37.390625 69.359375 
Q 42.328125 66.84375 44.9375 62.5 
Q 47.5625 58.15625 47.5625 53.265625 
Q 47.5625 48.640625 45.0625 44.828125 
Q 42.578125 41.015625 37.703125 38.765625 
Q 44.046875 37.3125 47.5625 32.6875 
Q 51.078125 28.078125 51.078125 21.140625 
Q 51.078125 11.765625 44.234375 5.25 
Q 37.40625 -1.265625 26.953125 -1.265625 
Q 17.53125 -1.265625 11.296875 4.34375 
Q 5.078125 9.96875 4.203125 18.890625 
z
" id="ArialMT-33"/>
      </defs>
      <g style="fill:#262626;" transform="translate(391.67448 321.741812)scale(0.1 -0.1)">
       <use xlink:href="#ArialMT-33"/>
       <use x="55.615234" xlink:href="#ArialMT-2e"/>
       <use x="83.398438" xlink:href="#ArialMT-30"/>
      </g>
     </g>
    </g>
   </g>
   <g id="matplotlib.axis_2">
    <g id="ytick_1">
     <g id="line2d_15">
      <path clip-path="url(#p0a4e37575c)" d="M 57.6 307.584 
L 414.72 307.584 
" style="fill:none;stroke:#ffffff;stroke-linecap:round;"/>
     </g>
     <g id="line2d_16"/>
     <g id="text_8">
      <!-- 0.0 -->
      <g style="fill:#262626;" transform="translate(36.7 311.162906)scale(0.1 -0.1)">
       <use xlink:href="#ArialMT-30"/>
       <use x="55.615234" xlink:href="#ArialMT-2e"/>
       <use x="83.398438" xlink:href="#ArialMT-30"/>
      </g>
     </g>
    </g>
    <g id="ytick_2">
     <g id="line2d_17">
      <path clip-path="url(#p0a4e37575c)" d="M 57.6 254.3616 
L 414.72 254.3616 
" style="fill:none;stroke:#ffffff;stroke-linecap:round;"/>
     </g>
     <g id="line2d_18"/>
     <g id="text_9">
      <!-- 0.2 -->
      <g style="fill:#262626;" transform="translate(36.7 257.940506)scale(0.1 -0.1)">
       <use xlink:href="#ArialMT-30"/>
       <use x="55.615234" xlink:href="#ArialMT-2e"/>
       <use x="83.398438" xlink:href="#ArialMT-32"/>
      </g>
     </g>
    </g>
    <g id="ytick_3">
     <g id="line2d_19">
      <path clip-path="url(#p0a4e37575c)" d="M 57.6 201.1392 
L 414.72 201.1392 
" style="fill:none;stroke:#ffffff;stroke-linecap:round;"/>
     </g>
     <g id="line2d_20"/>
     <g id="text_10">
      <!-- 0.4 -->
      <defs>
       <path d="M 32.328125 0 
L 32.328125 17.140625 
L 1.265625 17.140625 
L 1.265625 25.203125 
L 33.9375 71.578125 
L 41.109375 71.578125 
L 41.109375 25.203125 
L 50.78125 25.203125 
L 50.78125 17.140625 
L 41.109375 17.140625 
L 41.109375 0 
z
M 32.328125 25.203125 
L 32.328125 57.46875 
L 9.90625 25.203125 
z
" id="ArialMT-34"/>
      </defs>
      <g style="fill:#262626;" transform="translate(36.7 204.718106)scale(0.1 -0.1)">
       <use xlink:href="#ArialMT-30"/>
       <use x="55.615234" xlink:href="#ArialMT-2e"/>
       <use x="83.398438" xlink:href="#ArialMT-34"/>
      </g>
     </g>
    </g>
    <g id="ytick_4">
     <g id="line2d_21">
      <path clip-path="url(#p0a4e37575c)" d="M 57.6 147.9168 
L 414.72 147.9168 
" style="fill:none;stroke:#ffffff;stroke-linecap:round;"/>
     </g>
     <g id="line2d_22"/>
     <g id="text_11">
      <!-- 0.6 -->
      <defs>
       <path d="M 49.75 54.046875 
L 41.015625 53.375 
Q 39.84375 58.546875 37.703125 60.890625 
Q 34.125 64.65625 28.90625 64.65625 
Q 24.703125 64.65625 21.53125 62.3125 
Q 17.390625 59.28125 14.984375 53.46875 
Q 12.59375 47.65625 12.5 36.921875 
Q 15.671875 41.75 20.265625 44.09375 
Q 24.859375 46.4375 29.890625 46.4375 
Q 38.671875 46.4375 44.84375 39.96875 
Q 51.03125 33.5 51.03125 23.25 
Q 51.03125 16.5 48.125 10.71875 
Q 45.21875 4.9375 40.140625 1.859375 
Q 35.0625 -1.21875 28.609375 -1.21875 
Q 17.625 -1.21875 10.6875 6.859375 
Q 3.765625 14.9375 3.765625 33.5 
Q 3.765625 54.25 11.421875 63.671875 
Q 18.109375 71.875 29.4375 71.875 
Q 37.890625 71.875 43.28125 67.140625 
Q 48.6875 62.40625 49.75 54.046875 
z
M 13.875 23.1875 
Q 13.875 18.65625 15.796875 14.5 
Q 17.71875 10.359375 21.1875 8.171875 
Q 24.65625 6 28.46875 6 
Q 34.03125 6 38.03125 10.484375 
Q 42.046875 14.984375 42.046875 22.703125 
Q 42.046875 30.125 38.078125 34.390625 
Q 34.125 38.671875 28.125 38.671875 
Q 22.171875 38.671875 18.015625 34.390625 
Q 13.875 30.125 13.875 23.1875 
z
" id="ArialMT-36"/>
      </defs>
      <g style="fill:#262626;" transform="translate(36.7 151.495706)scale(0.1 -0.1)">
       <use xlink:href="#ArialMT-30"/>
       <use x="55.615234" xlink:href="#ArialMT-2e"/>
       <use x="83.398438" xlink:href="#ArialMT-36"/>
      </g>
     </g>
    </g>
    <g id="ytick_5">
     <g id="line2d_23">
      <path clip-path="url(#p0a4e37575c)" d="M 57.6 94.6944 
L 414.72 94.6944 
" style="fill:none;stroke:#ffffff;stroke-linecap:round;"/>
     </g>
     <g id="line2d_24"/>
     <g id="text_12">
      <!-- 0.8 -->
      <defs>
       <path d="M 17.671875 38.8125 
Q 12.203125 40.828125 9.5625 44.53125 
Q 6.9375 48.25 6.9375 53.421875 
Q 6.9375 61.234375 12.546875 66.546875 
Q 18.171875 71.875 27.484375 71.875 
Q 36.859375 71.875 42.578125 66.421875 
Q 48.296875 60.984375 48.296875 53.171875 
Q 48.296875 48.1875 45.671875 44.5 
Q 43.0625 40.828125 37.75 38.8125 
Q 44.34375 36.671875 47.78125 31.875 
Q 51.21875 27.09375 51.21875 20.453125 
Q 51.21875 11.28125 44.71875 5.03125 
Q 38.234375 -1.21875 27.640625 -1.21875 
Q 17.046875 -1.21875 10.546875 5.046875 
Q 4.046875 11.328125 4.046875 20.703125 
Q 4.046875 27.6875 7.59375 32.390625 
Q 11.140625 37.109375 17.671875 38.8125 
z
M 15.921875 53.71875 
Q 15.921875 48.640625 19.1875 45.40625 
Q 22.46875 42.1875 27.6875 42.1875 
Q 32.765625 42.1875 36.015625 45.375 
Q 39.265625 48.578125 39.265625 53.21875 
Q 39.265625 58.0625 35.90625 61.359375 
Q 32.5625 64.65625 27.59375 64.65625 
Q 22.5625 64.65625 19.234375 61.421875 
Q 15.921875 58.203125 15.921875 53.71875 
z
M 13.09375 20.65625 
Q 13.09375 16.890625 14.875 13.375 
Q 16.65625 9.859375 20.171875 7.921875 
Q 23.6875 6 27.734375 6 
Q 34.03125 6 38.125 10.046875 
Q 42.234375 14.109375 42.234375 20.359375 
Q 42.234375 26.703125 38.015625 30.859375 
Q 33.796875 35.015625 27.4375 35.015625 
Q 21.234375 35.015625 17.15625 30.90625 
Q 13.09375 26.8125 13.09375 20.65625 
z
" id="ArialMT-38"/>
      </defs>
      <g style="fill:#262626;" transform="translate(36.7 98.273306)scale(0.1 -0.1)">
       <use xlink:href="#ArialMT-30"/>
       <use x="55.615234" xlink:href="#ArialMT-2e"/>
       <use x="83.398438" xlink:href="#ArialMT-38"/>
      </g>
     </g>
    </g>
    <g id="ytick_6">
     <g id="line2d_25">
      <path clip-path="url(#p0a4e37575c)" d="M 57.6 41.472 
L 414.72 41.472 
" style="fill:none;stroke:#ffffff;stroke-linecap:round;"/>
     </g>
     <g id="line2d_26"/>
     <g id="text_13">
      <!-- 1.0 -->
      <g style="fill:#262626;" transform="translate(36.7 45.050906)scale(0.1 -0.1)">
       <use xlink:href="#ArialMT-31"/>
       <use x="55.615234" xlink:href="#ArialMT-2e"/>
       <use x="83.398438" xlink:href="#ArialMT-30"/>
      </g>
     </g>
    </g>
    <g id="text_14">
     <!-- f(x) -->
     <defs>
      <path d="M 8.6875 0 
L 8.6875 45.015625 
L 0.921875 45.015625 
L 0.921875 51.859375 
L 8.6875 51.859375 
L 8.6875 57.375 
Q 8.6875 62.59375 9.625 65.140625 
Q 10.890625 68.5625 14.078125 70.671875 
Q 17.28125 72.796875 23.046875 72.796875 
Q 26.765625 72.796875 31.25 71.921875 
L 29.9375 64.265625 
Q 27.203125 64.75 24.75 64.75 
Q 20.75 64.75 19.09375 63.03125 
Q 17.4375 61.328125 17.4375 56.640625 
L 17.4375 51.859375 
L 27.546875 51.859375 
L 27.546875 45.015625 
L 17.4375 45.015625 
L 17.4375 0 
z
" id="ArialMT-66"/>
      <path d="M 23.390625 -21.046875 
Q 16.109375 -11.859375 11.078125 0.4375 
Q 6.0625 12.75 6.0625 25.921875 
Q 6.0625 37.546875 9.8125 48.1875 
Q 14.203125 60.546875 23.390625 72.796875 
L 29.6875 72.796875 
Q 23.78125 62.640625 21.875 58.296875 
Q 18.890625 51.5625 17.1875 44.234375 
Q 15.09375 35.109375 15.09375 25.875 
Q 15.09375 2.390625 29.6875 -21.046875 
z
" id="ArialMT-28"/>
      <path d="M 0.734375 0 
L 19.671875 26.953125 
L 2.15625 51.859375 
L 13.140625 51.859375 
L 21.09375 39.703125 
Q 23.34375 36.234375 24.703125 33.890625 
Q 26.859375 37.109375 28.65625 39.59375 
L 37.40625 51.859375 
L 47.90625 51.859375 
L 29.984375 27.4375 
L 49.265625 0 
L 38.484375 0 
L 27.828125 16.109375 
L 25 20.453125 
L 11.375 0 
z
" id="ArialMT-78"/>
      <path d="M 12.359375 -21.046875 
L 6.0625 -21.046875 
Q 20.65625 2.390625 20.65625 25.875 
Q 20.65625 35.0625 18.5625 44.09375 
Q 16.890625 51.421875 13.921875 58.15625 
Q 12.015625 62.546875 6.0625 72.796875 
L 12.359375 72.796875 
Q 21.53125 60.546875 25.921875 48.1875 
Q 29.6875 37.546875 29.6875 25.921875 
Q 29.6875 12.75 24.625 0.4375 
Q 19.578125 -11.859375 12.359375 -21.046875 
z
" id="ArialMT-29"/>
     </defs>
     <g style="fill:#262626;" transform="translate(30.384844 182.468625)rotate(-90)scale(0.11 -0.11)">
      <use xlink:href="#ArialMT-66"/>
      <use x="27.783203" xlink:href="#ArialMT-28"/>
      <use x="61.083984" xlink:href="#ArialMT-78"/>
      <use x="111.083984" xlink:href="#ArialMT-29"/>
     </g>
    </g>
   </g>
   <g id="patch_3">
    <path d="M 57.6 307.584 
L 57.6 41.472 
" style="fill:none;"/>
   </g>
   <g id="patch_4">
    <path d="M 414.72 307.584 
L 414.72 41.472 
" style="fill:none;"/>
   </g>
   <g id="patch_5">
    <path d="M 57.6 307.584 
L 414.72 307.584 
" style="fill:none;"/>
   </g>
   <g id="patch_6">
    <path d="M 57.6 41.472 
L 414.72 41.472 
" style="fill:none;"/>
   </g>
   <g id="PolyCollection_1">
    <defs>
     <path d="M 57.6 -38.016 
L 57.6 -221.89487 
L 58.315671 -221.89487 
L 59.031343 -221.89487 
L 59.747014 -221.89487 
L 60.462685 -221.89487 
L 61.178357 -221.89487 
L 61.894028 -221.89487 
L 62.609699 -221.89487 
L 63.325371 -221.89487 
L 64.041042 -221.89487 
L 64.756713 -221.89487 
L 65.472385 -221.89487 
L 66.188056 -221.89487 
L 66.903727 -221.89487 
L 67.619399 -221.89487 
L 68.33507 -221.89487 
L 69.050741 -221.89487 
L 69.766413 -221.89487 
L 70.482084 -221.89487 
L 71.197756 -221.89487 
L 71.913427 -221.89487 
L 72.629098 -221.89487 
L 73.34477 -221.89487 
L 74.060441 -221.89487 
L 74.776112 -221.89487 
L 75.491784 -221.89487 
L 76.207455 -221.89487 
L 76.923126 -221.89487 
L 77.638798 -221.89487 
L 78.354469 -221.89487 
L 79.07014 -221.89487 
L 79.785812 -221.89487 
L 80.501483 -221.89487 
L 81.217154 -221.89487 
L 81.932826 -221.89487 
L 82.648497 -221.89487 
L 83.364168 -221.89487 
L 84.07984 -221.89487 
L 84.795511 -221.89487 
L 85.511182 -221.89487 
L 86.226854 -221.89487 
L 86.942525 -221.89487 
L 87.658196 -221.89487 
L 88.373868 -221.89487 
L 89.089539 -221.89487 
L 89.80521 -221.89487 
L 90.520882 -221.89487 
L 91.236553 -221.89487 
L 91.952224 -221.89487 
L 92.667896 -221.89487 
L 93.383567 -221.89487 
L 94.099238 -221.89487 
L 94.81491 -221.89487 
L 95.530581 -221.89487 
L 96.246253 -221.89487 
L 96.961924 -221.89487 
L 97.677595 -221.89487 
L 98.393267 -221.89487 
L 99.108938 -221.89487 
L 99.824609 -221.89487 
L 100.540281 -221.89487 
L 101.255952 -221.89487 
L 101.971623 -221.89487 
L 102.687295 -221.89487 
L 103.402966 -221.89487 
L 104.118637 -221.89487 
L 104.834309 -221.89487 
L 105.54998 -221.89487 
L 106.265651 -221.89487 
L 106.981323 -221.89487 
L 107.696994 -221.89487 
L 108.412665 -221.89487 
L 109.128337 -221.89487 
L 109.844008 -221.89487 
L 110.559679 -221.89487 
L 111.275351 -221.89487 
L 111.991022 -221.89487 
L 112.706693 -221.89487 
L 113.422365 -221.89487 
L 114.138036 -221.89487 
L 114.853707 -221.89487 
L 115.569379 -221.89487 
L 116.28505 -221.89487 
L 117.000721 -221.89487 
L 117.716393 -221.89487 
L 118.432064 -221.89487 
L 119.147735 -221.89487 
L 119.863407 -221.89487 
L 120.579078 -221.89487 
L 121.294749 -221.89487 
L 122.010421 -221.89487 
L 122.726092 -221.89487 
L 123.441764 -221.89487 
L 124.157435 -221.89487 
L 124.873106 -221.89487 
L 125.588778 -221.89487 
L 126.304449 -221.89487 
L 127.02012 -221.89487 
L 127.735792 -221.89487 
L 128.451463 -221.89487 
L 128.451463 -38.016 
L 128.451463 -38.016 
L 127.735792 -38.016 
L 127.02012 -38.016 
L 126.304449 -38.016 
L 125.588778 -38.016 
L 124.873106 -38.016 
L 124.157435 -38.016 
L 123.441764 -38.016 
L 122.726092 -38.016 
L 122.010421 -38.016 
L 121.294749 -38.016 
L 120.579078 -38.016 
L 119.863407 -38.016 
L 119.147735 -38.016 
L 118.432064 -38.016 
L 117.716393 -38.016 
L 117.000721 -38.016 
L 116.28505 -38.016 
L 115.569379 -38.016 
L 114.853707 -38.016 
L 114.138036 -38.016 
L 113.422365 -38.016 
L 112.706693 -38.016 
L 111.991022 -38.016 
L 111.275351 -38.016 
L 110.559679 -38.016 
L 109.844008 -38.016 
L 109.128337 -38.016 
L 108.412665 -38.016 
L 107.696994 -38.016 
L 106.981323 -38.016 
L 106.265651 -38.016 
L 105.54998 -38.016 
L 104.834309 -38.016 
L 104.118637 -38.016 
L 103.402966 -38.016 
L 102.687295 -38.016 
L 101.971623 -38.016 
L 101.255952 -38.016 
L 100.540281 -38.016 
L 99.824609 -38.016 
L 99.108938 -38.016 
L 98.393267 -38.016 
L 97.677595 -38.016 
L 96.961924 -38.016 
L 96.246253 -38.016 
L 95.530581 -38.016 
L 94.81491 -38.016 
L 94.099238 -38.016 
L 93.383567 -38.016 
L 92.667896 -38.016 
L 91.952224 -38.016 
L 91.236553 -38.016 
L 90.520882 -38.016 
L 89.80521 -38.016 
L 89.089539 -38.016 
L 88.373868 -38.016 
L 87.658196 -38.016 
L 86.942525 -38.016 
L 86.226854 -38.016 
L 85.511182 -38.016 
L 84.795511 -38.016 
L 84.07984 -38.016 
L 83.364168 -38.016 
L 82.648497 -38.016 
L 81.932826 -38.016 
L 81.217154 -38.016 
L 80.501483 -38.016 
L 79.785812 -38.016 
L 79.07014 -38.016 
L 78.354469 -38.016 
L 77.638798 -38.016 
L 76.923126 -38.016 
L 76.207455 -38.016 
L 75.491784 -38.016 
L 74.776112 -38.016 
L 74.060441 -38.016 
L 73.34477 -38.016 
L 72.629098 -38.016 
L 71.913427 -38.016 
L 71.197756 -38.016 
L 70.482084 -38.016 
L 69.766413 -38.016 
L 69.050741 -38.016 
L 68.33507 -38.016 
L 67.619399 -38.016 
L 66.903727 -38.016 
L 66.188056 -38.016 
L 65.472385 -38.016 
L 64.756713 -38.016 
L 64.041042 -38.016 
L 63.325371 -38.016 
L 62.609699 -38.016 
L 61.894028 -38.016 
L 61.178357 -38.016 
L 60.462685 -38.016 
L 59.747014 -38.016 
L 59.031343 -38.016 
L 58.315671 -38.016 
L 57.6 -38.016 
z
" id="md2adce472c" style="stroke:#000000;stroke-width:0.3;"/>
    </defs>
    <g clip-path="url(#p0a4e37575c)">
     <use style="fill:#ff0000;stroke:#000000;stroke-width:0.3;" x="0" xlink:href="#md2adce472c" y="345.6"/>
    </g>
   </g>
   <g id="PolyCollection_2">
    <defs>
     <path d="M 129.167134 -38.016 
L 129.167134 -88.83887 
L 129.882806 -88.83887 
L 130.598477 -88.83887 
L 131.314148 -88.83887 
L 132.02982 -88.83887 
L 132.745491 -88.83887 
L 133.461162 -88.83887 
L 134.176834 -88.83887 
L 134.892505 -88.83887 
L 135.608176 -88.83887 
L 136.323848 -88.83887 
L 137.039519 -88.83887 
L 137.75519 -88.83887 
L 138.470862 -88.83887 
L 139.186533 -88.83887 
L 139.902204 -88.83887 
L 140.617876 -88.83887 
L 141.333547 -88.83887 
L 142.049218 -88.83887 
L 142.76489 -88.83887 
L 143.480561 -88.83887 
L 144.196232 -88.83887 
L 144.911904 -88.83887 
L 145.627575 -88.83887 
L 146.343246 -88.83887 
L 147.058918 -88.83887 
L 147.774589 -88.83887 
L 148.490261 -88.83887 
L 149.205932 -88.83887 
L 149.921603 -88.83887 
L 150.637275 -88.83887 
L 151.352946 -88.83887 
L 152.068617 -88.83887 
L 152.784289 -88.83887 
L 153.49996 -88.83887 
L 154.215631 -88.83887 
L 154.931303 -88.83887 
L 155.646974 -88.83887 
L 156.362645 -88.83887 
L 157.078317 -88.83887 
L 157.793988 -88.83887 
L 158.509659 -88.83887 
L 159.225331 -88.83887 
L 159.941002 -88.83887 
L 160.656673 -88.83887 
L 161.372345 -88.83887 
L 162.088016 -88.83887 
L 162.803687 -88.83887 
L 163.519359 -88.83887 
L 164.23503 -88.83887 
L 164.950701 -88.83887 
L 165.666373 -88.83887 
L 166.382044 -88.83887 
L 167.097715 -88.83887 
L 167.813387 -88.83887 
L 168.529058 -88.83887 
L 169.244729 -88.83887 
L 169.960401 -88.83887 
L 170.676072 -88.83887 
L 171.391743 -88.83887 
L 172.107415 -88.83887 
L 172.823086 -88.83887 
L 173.538758 -88.83887 
L 174.254429 -88.83887 
L 174.9701 -88.83887 
L 175.685772 -88.83887 
L 176.401443 -88.83887 
L 177.117114 -88.83887 
L 177.832786 -88.83887 
L 178.548457 -88.83887 
L 179.264128 -88.83887 
L 179.9798 -88.83887 
L 180.695471 -88.83887 
L 181.411142 -88.83887 
L 182.126814 -88.83887 
L 182.842485 -88.83887 
L 183.558156 -88.83887 
L 184.273828 -88.83887 
L 184.989499 -88.83887 
L 185.70517 -88.83887 
L 186.420842 -88.83887 
L 187.136513 -88.83887 
L 187.852184 -88.83887 
L 188.567856 -88.83887 
L 189.283527 -88.83887 
L 189.999198 -88.83887 
L 190.71487 -88.83887 
L 191.430541 -88.83887 
L 192.146212 -88.83887 
L 192.861884 -88.83887 
L 193.577555 -88.83887 
L 194.293226 -88.83887 
L 195.008898 -88.83887 
L 195.724569 -88.83887 
L 196.44024 -88.83887 
L 197.155912 -88.83887 
L 197.871583 -88.83887 
L 198.587255 -88.83887 
L 199.302926 -88.83887 
L 200.018597 -88.83887 
L 200.018597 -38.016 
L 200.018597 -38.016 
L 199.302926 -38.016 
L 198.587255 -38.016 
L 197.871583 -38.016 
L 197.155912 -38.016 
L 196.44024 -38.016 
L 195.724569 -38.016 
L 195.008898 -38.016 
L 194.293226 -38.016 
L 193.577555 -38.016 
L 192.861884 -38.016 
L 192.146212 -38.016 
L 191.430541 -38.016 
L 190.71487 -38.016 
L 189.999198 -38.016 
L 189.283527 -38.016 
L 188.567856 -38.016 
L 187.852184 -38.016 
L 187.136513 -38.016 
L 186.420842 -38.016 
L 185.70517 -38.016 
L 184.989499 -38.016 
L 184.273828 -38.016 
L 183.558156 -38.016 
L 182.842485 -38.016 
L 182.126814 -38.016 
L 181.411142 -38.016 
L 180.695471 -38.016 
L 179.9798 -38.016 
L 179.264128 -38.016 
L 178.548457 -38.016 
L 177.832786 -38.016 
L 177.117114 -38.016 
L 176.401443 -38.016 
L 175.685772 -38.016 
L 174.9701 -38.016 
L 174.254429 -38.016 
L 173.538758 -38.016 
L 172.823086 -38.016 
L 172.107415 -38.016 
L 171.391743 -38.016 
L 170.676072 -38.016 
L 169.960401 -38.016 
L 169.244729 -38.016 
L 168.529058 -38.016 
L 167.813387 -38.016 
L 167.097715 -38.016 
L 166.382044 -38.016 
L 165.666373 -38.016 
L 164.950701 -38.016 
L 164.23503 -38.016 
L 163.519359 -38.016 
L 162.803687 -38.016 
L 162.088016 -38.016 
L 161.372345 -38.016 
L 160.656673 -38.016 
L 159.941002 -38.016 
L 159.225331 -38.016 
L 158.509659 -38.016 
L 157.793988 -38.016 
L 157.078317 -38.016 
L 156.362645 -38.016 
L 155.646974 -38.016 
L 154.931303 -38.016 
L 154.215631 -38.016 
L 153.49996 -38.016 
L 152.784289 -38.016 
L 152.068617 -38.016 
L 151.352946 -38.016 
L 150.637275 -38.016 
L 149.921603 -38.016 
L 149.205932 -38.016 
L 148.490261 -38.016 
L 147.774589 -38.016 
L 147.058918 -38.016 
L 146.343246 -38.016 
L 145.627575 -38.016 
L 144.911904 -38.016 
L 144.196232 -38.016 
L 143.480561 -38.016 
L 142.76489 -38.016 
L 142.049218 -38.016 
L 141.333547 -38.016 
L 140.617876 -38.016 
L 139.902204 -38.016 
L 139.186533 -38.016 
L 138.470862 -38.016 
L 137.75519 -38.016 
L 137.039519 -38.016 
L 136.323848 -38.016 
L 135.608176 -38.016 
L 134.892505 -38.016 
L 134.176834 -38.016 
L 133.461162 -38.016 
L 132.745491 -38.016 
L 132.02982 -38.016 
L 131.314148 -38.016 
L 130.598477 -38.016 
L 129.882806 -38.016 
L 129.167134 -38.016 
z
" id="m703c2edd5e" style="stroke:#000000;stroke-width:0.3;"/>
    </defs>
    <g clip-path="url(#p0a4e37575c)">
     <use style="fill:#0000ff;stroke:#000000;stroke-width:0.3;" x="0" xlink:href="#m703c2edd5e" y="345.6"/>
    </g>
   </g>
   <g id="PolyCollection_3">
    <defs>
     <path d="M 200.734269 -38.016 
L 200.734269 -38.016 
L 201.44994 -38.016 
L 202.165611 -38.016 
L 202.881283 -38.016 
L 203.596954 -38.016 
L 204.312625 -38.016 
L 205.028297 -38.016 
L 205.743968 -38.016 
L 206.459639 -38.016 
L 207.175311 -38.016 
L 207.890982 -38.016 
L 208.606653 -38.016 
L 209.322325 -38.016 
L 210.037996 -38.016 
L 210.753667 -38.016 
L 211.469339 -38.016 
L 212.18501 -38.016 
L 212.900681 -38.016 
L 213.616353 -38.016 
L 214.332024 -38.016 
L 215.047695 -38.016 
L 215.763367 -38.016 
L 216.479038 -38.016 
L 217.194709 -38.016 
L 217.910381 -38.016 
L 218.626052 -38.016 
L 219.341723 -38.016 
L 220.057395 -38.016 
L 220.773066 -38.016 
L 221.488737 -38.016 
L 222.204409 -38.016 
L 222.92008 -38.016 
L 223.635752 -38.016 
L 224.351423 -38.016 
L 225.067094 -38.016 
L 225.782766 -38.016 
L 226.498437 -38.016 
L 227.214108 -38.016 
L 227.92978 -38.016 
L 228.645451 -38.016 
L 229.361122 -38.016 
L 230.076794 -38.016 
L 230.792465 -38.016 
L 231.508136 -38.016 
L 232.223808 -38.016 
L 232.939479 -38.016 
L 233.65515 -38.016 
L 234.370822 -38.016 
L 235.086493 -38.016 
L 235.802164 -38.016 
L 236.517836 -38.016 
L 237.233507 -38.016 
L 237.949178 -38.016 
L 238.66485 -38.016 
L 239.380521 -38.016 
L 240.096192 -38.016 
L 240.811864 -38.016 
L 241.527535 -38.016 
L 242.243206 -38.016 
L 242.958878 -38.016 
L 243.674549 -38.016 
L 244.39022 -38.016 
L 245.105892 -38.016 
L 245.821563 -38.016 
L 246.537234 -38.016 
L 247.252906 -38.016 
L 247.968577 -38.016 
L 248.684248 -38.016 
L 249.39992 -38.016 
L 250.115591 -38.016 
L 250.831263 -38.016 
L 251.546934 -38.016 
L 252.262605 -38.016 
L 252.978277 -38.016 
L 253.693948 -38.016 
L 254.409619 -38.016 
L 255.125291 -38.016 
L 255.840962 -38.016 
L 256.556633 -38.016 
L 257.272305 -38.016 
L 257.987976 -38.016 
L 258.703647 -38.016 
L 259.419319 -38.016 
L 260.13499 -38.016 
L 260.850661 -38.016 
L 261.566333 -38.016 
L 262.282004 -38.016 
L 262.997675 -38.016 
L 263.713347 -38.016 
L 264.429018 -38.016 
L 265.144689 -38.016 
L 265.860361 -38.016 
L 266.576032 -38.016 
L 267.291703 -38.016 
L 268.007375 -38.016 
L 268.723046 -38.016 
L 269.438717 -38.016 
L 270.154389 -38.016 
L 270.87006 -38.016 
L 271.585731 -38.016 
L 271.585731 -38.016 
L 271.585731 -38.016 
L 270.87006 -38.016 
L 270.154389 -38.016 
L 269.438717 -38.016 
L 268.723046 -38.016 
L 268.007375 -38.016 
L 267.291703 -38.016 
L 266.576032 -38.016 
L 265.860361 -38.016 
L 265.144689 -38.016 
L 264.429018 -38.016 
L 263.713347 -38.016 
L 262.997675 -38.016 
L 262.282004 -38.016 
L 261.566333 -38.016 
L 260.850661 -38.016 
L 260.13499 -38.016 
L 259.419319 -38.016 
L 258.703647 -38.016 
L 257.987976 -38.016 
L 257.272305 -38.016 
L 256.556633 -38.016 
L 255.840962 -38.016 
L 255.125291 -38.016 
L 254.409619 -38.016 
L 253.693948 -38.016 
L 252.978277 -38.016 
L 252.262605 -38.016 
L 251.546934 -38.016 
L 250.831263 -38.016 
L 250.115591 -38.016 
L 249.39992 -38.016 
L 248.684248 -38.016 
L 247.968577 -38.016 
L 247.252906 -38.016 
L 246.537234 -38.016 
L 245.821563 -38.016 
L 245.105892 -38.016 
L 244.39022 -38.016 
L 243.674549 -38.016 
L 242.958878 -38.016 
L 242.243206 -38.016 
L 241.527535 -38.016 
L 240.811864 -38.016 
L 240.096192 -38.016 
L 239.380521 -38.016 
L 238.66485 -38.016 
L 237.949178 -38.016 
L 237.233507 -38.016 
L 236.517836 -38.016 
L 235.802164 -38.016 
L 235.086493 -38.016 
L 234.370822 -38.016 
L 233.65515 -38.016 
L 232.939479 -38.016 
L 232.223808 -38.016 
L 231.508136 -38.016 
L 230.792465 -38.016 
L 230.076794 -38.016 
L 229.361122 -38.016 
L 228.645451 -38.016 
L 227.92978 -38.016 
L 227.214108 -38.016 
L 226.498437 -38.016 
L 225.782766 -38.016 
L 225.067094 -38.016 
L 224.351423 -38.016 
L 223.635752 -38.016 
L 222.92008 -38.016 
L 222.204409 -38.016 
L 221.488737 -38.016 
L 220.773066 -38.016 
L 220.057395 -38.016 
L 219.341723 -38.016 
L 218.626052 -38.016 
L 217.910381 -38.016 
L 217.194709 -38.016 
L 216.479038 -38.016 
L 215.763367 -38.016 
L 215.047695 -38.016 
L 214.332024 -38.016 
L 213.616353 -38.016 
L 212.900681 -38.016 
L 212.18501 -38.016 
L 211.469339 -38.016 
L 210.753667 -38.016 
L 210.037996 -38.016 
L 209.322325 -38.016 
L 208.606653 -38.016 
L 207.890982 -38.016 
L 207.175311 -38.016 
L 206.459639 -38.016 
L 205.743968 -38.016 
L 205.028297 -38.016 
L 204.312625 -38.016 
L 203.596954 -38.016 
L 202.881283 -38.016 
L 202.165611 -38.016 
L 201.44994 -38.016 
L 200.734269 -38.016 
z
" id="mf9b426e304" style="stroke:#000000;stroke-width:0.3;"/>
    </defs>
    <g clip-path="url(#p0a4e37575c)">
     <use style="fill:#008000;stroke:#000000;stroke-width:0.3;" x="0" xlink:href="#mf9b426e304" y="345.6"/>
    </g>
   </g>
   <g id="PolyCollection_4">
    <defs>
     <path d="M 272.301403 -38.016 
L 272.301403 -88.83887 
L 273.017074 -88.83887 
L 273.732745 -88.83887 
L 274.448417 -88.83887 
L 275.164088 -88.83887 
L 275.87976 -88.83887 
L 276.595431 -88.83887 
L 277.311102 -88.83887 
L 278.026774 -88.83887 
L 278.742445 -88.83887 
L 279.458116 -88.83887 
L 280.173788 -88.83887 
L 280.889459 -88.83887 
L 281.60513 -88.83887 
L 282.320802 -88.83887 
L 283.036473 -88.83887 
L 283.752144 -88.83887 
L 284.467816 -88.83887 
L 285.183487 -88.83887 
L 285.899158 -88.83887 
L 286.61483 -88.83887 
L 287.330501 -88.83887 
L 288.046172 -88.83887 
L 288.761844 -88.83887 
L 289.477515 -88.83887 
L 290.193186 -88.83887 
L 290.908858 -88.83887 
L 291.624529 -88.83887 
L 292.3402 -88.83887 
L 293.055872 -88.83887 
L 293.771543 -88.83887 
L 294.487214 -88.83887 
L 295.202886 -88.83887 
L 295.918557 -88.83887 
L 296.634228 -88.83887 
L 297.3499 -88.83887 
L 298.065571 -88.83887 
L 298.781242 -88.83887 
L 299.496914 -88.83887 
L 300.212585 -88.83887 
L 300.928257 -88.83887 
L 301.643928 -88.83887 
L 302.359599 -88.83887 
L 303.075271 -88.83887 
L 303.790942 -88.83887 
L 304.506613 -88.83887 
L 305.222285 -88.83887 
L 305.937956 -88.83887 
L 306.653627 -88.83887 
L 307.369299 -88.83887 
L 308.08497 -88.83887 
L 308.800641 -88.83887 
L 309.516313 -88.83887 
L 310.231984 -88.83887 
L 310.947655 -88.83887 
L 311.663327 -88.83887 
L 312.378998 -88.83887 
L 313.094669 -88.83887 
L 313.810341 -88.83887 
L 314.526012 -88.83887 
L 315.241683 -88.83887 
L 315.957355 -88.83887 
L 316.673026 -88.83887 
L 317.388697 -88.83887 
L 318.104369 -88.83887 
L 318.82004 -88.83887 
L 319.535711 -88.83887 
L 320.251383 -88.83887 
L 320.967054 -88.83887 
L 321.682725 -88.83887 
L 322.398397 -88.83887 
L 323.114068 -88.83887 
L 323.829739 -88.83887 
L 324.545411 -88.83887 
L 325.261082 -88.83887 
L 325.976754 -88.83887 
L 326.692425 -88.83887 
L 327.408096 -88.83887 
L 328.123768 -88.83887 
L 328.839439 -88.83887 
L 329.55511 -88.83887 
L 330.270782 -88.83887 
L 330.986453 -88.83887 
L 331.702124 -88.83887 
L 332.417796 -88.83887 
L 333.133467 -88.83887 
L 333.849138 -88.83887 
L 334.56481 -88.83887 
L 335.280481 -88.83887 
L 335.996152 -88.83887 
L 336.711824 -88.83887 
L 337.427495 -88.83887 
L 338.143166 -88.83887 
L 338.858838 -88.83887 
L 339.574509 -88.83887 
L 340.29018 -88.83887 
L 341.005852 -88.83887 
L 341.721523 -88.83887 
L 342.437194 -88.83887 
L 343.152866 -88.83887 
L 343.152866 -38.016 
L 343.152866 -38.016 
L 342.437194 -38.016 
L 341.721523 -38.016 
L 341.005852 -38.016 
L 340.29018 -38.016 
L 339.574509 -38.016 
L 338.858838 -38.016 
L 338.143166 -38.016 
L 337.427495 -38.016 
L 336.711824 -38.016 
L 335.996152 -38.016 
L 335.280481 -38.016 
L 334.56481 -38.016 
L 333.849138 -38.016 
L 333.133467 -38.016 
L 332.417796 -38.016 
L 331.702124 -38.016 
L 330.986453 -38.016 
L 330.270782 -38.016 
L 329.55511 -38.016 
L 328.839439 -38.016 
L 328.123768 -38.016 
L 327.408096 -38.016 
L 326.692425 -38.016 
L 325.976754 -38.016 
L 325.261082 -38.016 
L 324.545411 -38.016 
L 323.829739 -38.016 
L 323.114068 -38.016 
L 322.398397 -38.016 
L 321.682725 -38.016 
L 320.967054 -38.016 
L 320.251383 -38.016 
L 319.535711 -38.016 
L 318.82004 -38.016 
L 318.104369 -38.016 
L 317.388697 -38.016 
L 316.673026 -38.016 
L 315.957355 -38.016 
L 315.241683 -38.016 
L 314.526012 -38.016 
L 313.810341 -38.016 
L 313.094669 -38.016 
L 312.378998 -38.016 
L 311.663327 -38.016 
L 310.947655 -38.016 
L 310.231984 -38.016 
L 309.516313 -38.016 
L 308.800641 -38.016 
L 308.08497 -38.016 
L 307.369299 -38.016 
L 306.653627 -38.016 
L 305.937956 -38.016 
L 305.222285 -38.016 
L 304.506613 -38.016 
L 303.790942 -38.016 
L 303.075271 -38.016 
L 302.359599 -38.016 
L 301.643928 -38.016 
L 300.928257 -38.016 
L 300.212585 -38.016 
L 299.496914 -38.016 
L 298.781242 -38.016 
L 298.065571 -38.016 
L 297.3499 -38.016 
L 296.634228 -38.016 
L 295.918557 -38.016 
L 295.202886 -38.016 
L 294.487214 -38.016 
L 293.771543 -38.016 
L 293.055872 -38.016 
L 292.3402 -38.016 
L 291.624529 -38.016 
L 290.908858 -38.016 
L 290.193186 -38.016 
L 289.477515 -38.016 
L 288.761844 -38.016 
L 288.046172 -38.016 
L 287.330501 -38.016 
L 286.61483 -38.016 
L 285.899158 -38.016 
L 285.183487 -38.016 
L 284.467816 -38.016 
L 283.752144 -38.016 
L 283.036473 -38.016 
L 282.320802 -38.016 
L 281.60513 -38.016 
L 280.889459 -38.016 
L 280.173788 -38.016 
L 279.458116 -38.016 
L 278.742445 -38.016 
L 278.026774 -38.016 
L 277.311102 -38.016 
L 276.595431 -38.016 
L 275.87976 -38.016 
L 275.164088 -38.016 
L 274.448417 -38.016 
L 273.732745 -38.016 
L 273.017074 -38.016 
L 272.301403 -38.016 
z
" id="m77b65f9b1d" style="stroke:#000000;stroke-width:0.3;"/>
    </defs>
    <g clip-path="url(#p0a4e37575c)">
     <use style="fill:#ffff00;stroke:#000000;stroke-width:0.3;" x="0" xlink:href="#m77b65f9b1d" y="345.6"/>
    </g>
   </g>
   <g id="PolyCollection_5">
    <defs>
     <path d="M 343.868537 -38.016 
L 343.868537 -221.89487 
L 344.584208 -221.89487 
L 345.29988 -221.89487 
L 346.015551 -221.89487 
L 346.731222 -221.89487 
L 347.446894 -221.89487 
L 348.162565 -221.89487 
L 348.878236 -221.89487 
L 349.593908 -221.89487 
L 350.309579 -221.89487 
L 351.025251 -221.89487 
L 351.740922 -221.89487 
L 352.456593 -221.89487 
L 353.172265 -221.89487 
L 353.887936 -221.89487 
L 354.603607 -221.89487 
L 355.319279 -221.89487 
L 356.03495 -221.89487 
L 356.750621 -221.89487 
L 357.466293 -221.89487 
L 358.181964 -221.89487 
L 358.897635 -221.89487 
L 359.613307 -221.89487 
L 360.328978 -221.89487 
L 361.044649 -221.89487 
L 361.760321 -221.89487 
L 362.475992 -221.89487 
L 363.191663 -221.89487 
L 363.907335 -221.89487 
L 364.623006 -221.89487 
L 365.338677 -221.89487 
L 366.054349 -221.89487 
L 366.77002 -221.89487 
L 367.485691 -221.89487 
L 368.201363 -221.89487 
L 368.917034 -221.89487 
L 369.632705 -221.89487 
L 370.348377 -221.89487 
L 371.064048 -221.89487 
L 371.779719 -221.89487 
L 372.495391 -221.89487 
L 373.211062 -221.89487 
L 373.926733 -221.89487 
L 374.642405 -221.89487 
L 375.358076 -221.89487 
L 376.073747 -221.89487 
L 376.789419 -221.89487 
L 377.50509 -221.89487 
L 378.220762 -221.89487 
L 378.936433 -221.89487 
L 379.652104 -221.89487 
L 380.367776 -221.89487 
L 381.083447 -221.89487 
L 381.799118 -221.89487 
L 382.51479 -221.89487 
L 383.230461 -221.89487 
L 383.946132 -221.89487 
L 384.661804 -221.89487 
L 385.377475 -221.89487 
L 386.093146 -221.89487 
L 386.808818 -221.89487 
L 387.524489 -221.89487 
L 388.24016 -221.89487 
L 388.955832 -221.89487 
L 389.671503 -221.89487 
L 390.387174 -221.89487 
L 391.102846 -221.89487 
L 391.818517 -221.89487 
L 392.534188 -221.89487 
L 393.24986 -221.89487 
L 393.965531 -221.89487 
L 394.681202 -221.89487 
L 395.396874 -221.89487 
L 396.112545 -221.89487 
L 396.828216 -221.89487 
L 397.543888 -221.89487 
L 398.259559 -221.89487 
L 398.97523 -221.89487 
L 399.690902 -221.89487 
L 400.406573 -221.89487 
L 401.122244 -221.89487 
L 401.837916 -221.89487 
L 402.553587 -221.89487 
L 403.269259 -221.89487 
L 403.98493 -221.89487 
L 404.700601 -221.89487 
L 405.416273 -221.89487 
L 406.131944 -221.89487 
L 406.847615 -221.89487 
L 407.563287 -221.89487 
L 408.278958 -221.89487 
L 408.994629 -221.89487 
L 409.710301 -221.89487 
L 410.425972 -221.89487 
L 411.141643 -221.89487 
L 411.857315 -221.89487 
L 412.572986 -221.89487 
L 413.288657 -221.89487 
L 414.004329 -221.89487 
L 414.72 -221.89487 
L 414.72 -38.016 
L 414.72 -38.016 
L 414.004329 -38.016 
L 413.288657 -38.016 
L 412.572986 -38.016 
L 411.857315 -38.016 
L 411.141643 -38.016 
L 410.425972 -38.016 
L 409.710301 -38.016 
L 408.994629 -38.016 
L 408.278958 -38.016 
L 407.563287 -38.016 
L 406.847615 -38.016 
L 406.131944 -38.016 
L 405.416273 -38.016 
L 404.700601 -38.016 
L 403.98493 -38.016 
L 403.269259 -38.016 
L 402.553587 -38.016 
L 401.837916 -38.016 
L 401.122244 -38.016 
L 400.406573 -38.016 
L 399.690902 -38.016 
L 398.97523 -38.016 
L 398.259559 -38.016 
L 397.543888 -38.016 
L 396.828216 -38.016 
L 396.112545 -38.016 
L 395.396874 -38.016 
L 394.681202 -38.016 
L 393.965531 -38.016 
L 393.24986 -38.016 
L 392.534188 -38.016 
L 391.818517 -38.016 
L 391.102846 -38.016 
L 390.387174 -38.016 
L 389.671503 -38.016 
L 388.955832 -38.016 
L 388.24016 -38.016 
L 387.524489 -38.016 
L 386.808818 -38.016 
L 386.093146 -38.016 
L 385.377475 -38.016 
L 384.661804 -38.016 
L 383.946132 -38.016 
L 383.230461 -38.016 
L 382.51479 -38.016 
L 381.799118 -38.016 
L 381.083447 -38.016 
L 380.367776 -38.016 
L 379.652104 -38.016 
L 378.936433 -38.016 
L 378.220762 -38.016 
L 377.50509 -38.016 
L 376.789419 -38.016 
L 376.073747 -38.016 
L 375.358076 -38.016 
L 374.642405 -38.016 
L 373.926733 -38.016 
L 373.211062 -38.016 
L 372.495391 -38.016 
L 371.779719 -38.016 
L 371.064048 -38.016 
L 370.348377 -38.016 
L 369.632705 -38.016 
L 368.917034 -38.016 
L 368.201363 -38.016 
L 367.485691 -38.016 
L 366.77002 -38.016 
L 366.054349 -38.016 
L 365.338677 -38.016 
L 364.623006 -38.016 
L 363.907335 -38.016 
L 363.191663 -38.016 
L 362.475992 -38.016 
L 361.760321 -38.016 
L 361.044649 -38.016 
L 360.328978 -38.016 
L 359.613307 -38.016 
L 358.897635 -38.016 
L 358.181964 -38.016 
L 357.466293 -38.016 
L 356.750621 -38.016 
L 356.03495 -38.016 
L 355.319279 -38.016 
L 354.603607 -38.016 
L 353.887936 -38.016 
L 353.172265 -38.016 
L 352.456593 -38.016 
L 351.740922 -38.016 
L 351.025251 -38.016 
L 350.309579 -38.016 
L 349.593908 -38.016 
L 348.878236 -38.016 
L 348.162565 -38.016 
L 347.446894 -38.016 
L 346.731222 -38.016 
L 346.015551 -38.016 
L 345.29988 -38.016 
L 344.584208 -38.016 
L 343.868537 -38.016 
z
" id="md12cc9c5aa" style="stroke:#000000;stroke-width:0.3;"/>
    </defs>
    <g clip-path="url(#p0a4e37575c)">
     <use style="fill:#d3d3d3;stroke:#000000;stroke-width:0.3;" x="0" xlink:href="#md12cc9c5aa" y="345.6"/>
    </g>
   </g>
   <g id="line2d_27">
    <path clip-path="url(#p0a4e37575c)" d="M 57.6 41.472 
L 59.747014 41.595892 
L 61.178357 41.8676 
L 62.609699 42.344273 
L 64.041042 43.066874 
L 65.472385 44.071218 
L 66.903727 45.387487 
L 68.33507 47.039852 
L 69.766413 49.0462 
L 71.197756 51.417983 
L 72.629098 54.160182 
L 74.060441 57.271374 
L 76.207455 62.611677 
L 78.354469 68.71321 
L 80.501483 75.498653 
L 83.364168 85.433751 
L 86.942525 98.86981 
L 96.961924 137.335664 
L 99.824609 147.251583 
L 102.687295 156.26827 
L 104.834309 162.361565 
L 106.981323 167.849379 
L 109.128337 172.72789 
L 111.275351 177.015117 
L 113.422365 180.749025 
L 115.569379 183.984919 
L 117.716393 186.792278 
L 119.863407 189.251178 
L 122.726092 192.138282 
L 127.735792 196.707129 
L 131.314148 200.085089 
L 134.176834 203.099959 
L 137.039519 206.516264 
L 139.902204 210.399966 
L 142.76489 214.770422 
L 145.627575 219.602868 
L 149.205932 226.193587 
L 153.49996 234.653191 
L 162.803687 253.166024 
L 166.382044 259.704444 
L 169.244729 264.5245 
L 172.107415 268.929276 
L 174.9701 272.900826 
L 177.832786 276.446095 
L 180.695471 279.593194 
L 183.558156 282.386292 
L 186.420842 284.879696 
L 189.999198 287.663731 
L 194.293226 290.658148 
L 199.302926 293.857807 
L 205.743968 297.689313 
L 210.753667 300.443998 
L 215.047695 302.568557 
L 218.626052 304.108791 
L 222.204409 305.392497 
L 225.067094 306.213096 
L 227.92978 306.840649 
L 230.792465 307.273907 
L 233.65515 307.517985 
L 237.233507 307.572246 
L 240.811864 307.370073 
L 244.39022 306.93301 
L 247.968577 306.273095 
L 251.546934 305.387548 
L 255.125291 304.256721 
L 257.987976 303.152542 
L 260.850661 301.846975 
L 263.713347 300.316542 
L 266.576032 298.540066 
L 269.438717 296.502205 
L 272.301403 294.196746 
L 275.164088 291.629263 
L 278.742445 288.081681 
L 282.320802 284.222358 
L 288.046172 277.646397 
L 295.918557 268.578599 
L 300.212585 263.959935 
L 304.506613 259.668208 
L 310.231984 254.318083 
L 315.241683 249.601654 
L 318.104369 246.67316 
L 320.967054 243.426628 
L 323.114068 240.710678 
L 325.261082 237.70122 
L 327.408096 234.357099 
L 329.55511 230.645436 
L 331.702124 226.543807 
L 333.849138 222.042087 
L 336.711824 215.425741 
L 339.574509 208.155275 
L 343.152866 198.297446 
L 347.446894 185.723253 
L 354.603607 164.678254 
L 357.466293 156.856957 
L 360.328978 149.676831 
L 362.475992 144.807927 
L 364.623006 140.435536 
L 366.77002 136.587803 
L 368.917034 133.271606 
L 371.064048 130.471191 
L 373.211062 128.147684 
L 375.358076 126.239538 
L 377.50509 124.663954 
L 380.367776 122.902402 
L 385.377475 119.934962 
L 387.524489 118.359887 
L 388.955832 117.107627 
L 390.387174 115.648409 
L 391.818517 113.945912 
L 393.24986 111.966754 
L 394.681202 109.681169 
L 396.112545 107.063641 
L 397.543888 104.093482 
L 398.97523 100.755336 
L 401.122244 95.038804 
L 403.269259 88.467685 
L 405.416273 81.067823 
L 407.563287 72.8977 
L 410.425972 60.966159 
L 414.004329 44.811105 
L 414.72 41.472 
L 414.72 41.472 
" style="fill:none;stroke:#000000;stroke-linecap:round;stroke-width:1.75;"/>
   </g>
  </g>
 </g>
 <defs>
  <clipPath id="p0a4e37575c">
   <rect height="266.112" width="357.12" x="57.6" y="41.472"/>
  </clipPath>
 </defs>
</svg>
