<?xml version="1.0" encoding="utf-8" standalone="no"?>
<!DOCTYPE svg PUBLIC "-//W3C//DTD SVG 1.1//EN"
  "http://www.w3.org/Graphics/SVG/1.1/DTD/svg11.dtd">
<!-- Created with matplotlib (http://matplotlib.org/) -->
<svg height="345.6pt" version="1.1" viewBox="0 0 460.8 345.6" width="460.8pt" xmlns="http://www.w3.org/2000/svg" xmlns:xlink="http://www.w3.org/1999/xlink">
 <defs>
  <style type="text/css">
*{stroke-linecap:butt;stroke-linejoin:round;}
  </style>
 </defs>
 <g id="figure_1">
  <g id="patch_1">
   <path d="M 0 345.6 
L 460.8 345.6 
L 460.8 0 
L 0 0 
z
" style="fill:#ffffff;"/>
  </g>
  <g id="axes_1">
   <g id="patch_2">
    <path d="M 57.6 307.584 
L 414.72 307.584 
L 414.72 41.472 
L 57.6 41.472 
z
" style="fill:#eaeaf2;"/>
   </g>
   <g id="matplotlib.axis_1">
    <g id="xtick_1">
     <g id="line2d_1">
      <path clip-path="url(#pd38d8fa640)" d="M 73.832727 307.584 
L 73.832727 41.472 
" style="fill:none;stroke:#ffffff;stroke-linecap:round;"/>
     </g>
     <g id="line2d_2"/>
     <g id="text_1">
      <!-- 0.0 -->
      <defs>
       <path d="M 4.15625 35.296875 
Q 4.15625 48 6.765625 55.734375 
Q 9.375 63.484375 14.515625 67.671875 
Q 19.671875 71.875 27.484375 71.875 
Q 33.25 71.875 37.59375 69.546875 
Q 41.9375 67.234375 44.765625 62.859375 
Q 47.609375 58.5 49.21875 52.21875 
Q 50.828125 45.953125 50.828125 35.296875 
Q 50.828125 22.703125 48.234375 14.96875 
Q 45.65625 7.234375 40.5 3 
Q 35.359375 -1.21875 27.484375 -1.21875 
Q 17.140625 -1.21875 11.234375 6.203125 
Q 4.15625 15.140625 4.15625 35.296875 
z
M 13.1875 35.296875 
Q 13.1875 17.671875 17.3125 11.828125 
Q 21.4375 6 27.484375 6 
Q 33.546875 6 37.671875 11.859375 
Q 41.796875 17.71875 41.796875 35.296875 
Q 41.796875 52.984375 37.671875 58.78125 
Q 33.546875 64.59375 27.390625 64.59375 
Q 21.34375 64.59375 17.71875 59.46875 
Q 13.1875 52.9375 13.1875 35.296875 
z
" id="ArialMT-30"/>
       <path d="M 9.078125 0 
L 9.078125 10.015625 
L 19.09375 10.015625 
L 19.09375 0 
z
" id="ArialMT-2e"/>
      </defs>
      <g style="fill:#262626;" transform="translate(66.882727 321.741812)scale(0.1 -0.1)">
       <use xlink:href="#ArialMT-30"/>
       <use x="55.615234" xlink:href="#ArialMT-2e"/>
       <use x="83.398438" xlink:href="#ArialMT-30"/>
      </g>
     </g>
    </g>
    <g id="xtick_2">
     <g id="line2d_3">
      <path clip-path="url(#pd38d8fa640)" d="M 125.503103 307.584 
L 125.503103 41.472 
" style="fill:none;stroke:#ffffff;stroke-linecap:round;"/>
     </g>
     <g id="line2d_4"/>
     <g id="text_2">
      <!-- 0.5 -->
      <defs>
       <path d="M 4.15625 18.75 
L 13.375 19.53125 
Q 14.40625 12.796875 18.140625 9.390625 
Q 21.875 6 27.15625 6 
Q 33.5 6 37.890625 10.78125 
Q 42.28125 15.578125 42.28125 23.484375 
Q 42.28125 31 38.0625 35.34375 
Q 33.84375 39.703125 27 39.703125 
Q 22.75 39.703125 19.328125 37.765625 
Q 15.921875 35.84375 13.96875 32.765625 
L 5.71875 33.84375 
L 12.640625 70.609375 
L 48.25 70.609375 
L 48.25 62.203125 
L 19.671875 62.203125 
L 15.828125 42.96875 
Q 22.265625 47.46875 29.34375 47.46875 
Q 38.71875 47.46875 45.15625 40.96875 
Q 51.609375 34.46875 51.609375 24.265625 
Q 51.609375 14.546875 45.953125 7.46875 
Q 39.0625 -1.21875 27.15625 -1.21875 
Q 17.390625 -1.21875 11.203125 4.25 
Q 5.03125 9.71875 4.15625 18.75 
z
" id="ArialMT-35"/>
      </defs>
      <g style="fill:#262626;" transform="translate(118.553103 321.741812)scale(0.1 -0.1)">
       <use xlink:href="#ArialMT-30"/>
       <use x="55.615234" xlink:href="#ArialMT-2e"/>
       <use x="83.398438" xlink:href="#ArialMT-35"/>
      </g>
     </g>
    </g>
    <g id="xtick_3">
     <g id="line2d_5">
      <path clip-path="url(#pd38d8fa640)" d="M 177.173479 307.584 
L 177.173479 41.472 
" style="fill:none;stroke:#ffffff;stroke-linecap:round;"/>
     </g>
     <g id="line2d_6"/>
     <g id="text_3">
      <!-- 1.0 -->
      <defs>
       <path d="M 37.25 0 
L 28.46875 0 
L 28.46875 56 
Q 25.296875 52.984375 20.140625 49.953125 
Q 14.984375 46.921875 10.890625 45.40625 
L 10.890625 53.90625 
Q 18.265625 57.375 23.78125 62.296875 
Q 29.296875 67.234375 31.59375 71.875 
L 37.25 71.875 
z
" id="ArialMT-31"/>
      </defs>
      <g style="fill:#262626;" transform="translate(170.223479 321.741812)scale(0.1 -0.1)">
       <use xlink:href="#ArialMT-31"/>
       <use x="55.615234" xlink:href="#ArialMT-2e"/>
       <use x="83.398438" xlink:href="#ArialMT-30"/>
      </g>
     </g>
    </g>
    <g id="xtick_4">
     <g id="line2d_7">
      <path clip-path="url(#pd38d8fa640)" d="M 228.843854 307.584 
L 228.843854 41.472 
" style="fill:none;stroke:#ffffff;stroke-linecap:round;"/>
     </g>
     <g id="line2d_8"/>
     <g id="text_4">
      <!-- 1.5 -->
      <g style="fill:#262626;" transform="translate(221.893854 321.741812)scale(0.1 -0.1)">
       <use xlink:href="#ArialMT-31"/>
       <use x="55.615234" xlink:href="#ArialMT-2e"/>
       <use x="83.398438" xlink:href="#ArialMT-35"/>
      </g>
     </g>
    </g>
    <g id="xtick_5">
     <g id="line2d_9">
      <path clip-path="url(#pd38d8fa640)" d="M 280.51423 307.584 
L 280.51423 41.472 
" style="fill:none;stroke:#ffffff;stroke-linecap:round;"/>
     </g>
     <g id="line2d_10"/>
     <g id="text_5">
      <!-- 2.0 -->
      <defs>
       <path d="M 50.34375 8.453125 
L 50.34375 0 
L 3.03125 0 
Q 2.9375 3.171875 4.046875 6.109375 
Q 5.859375 10.9375 9.828125 15.625 
Q 13.8125 20.3125 21.34375 26.46875 
Q 33.015625 36.03125 37.109375 41.625 
Q 41.21875 47.21875 41.21875 52.203125 
Q 41.21875 57.421875 37.46875 61 
Q 33.734375 64.59375 27.734375 64.59375 
Q 21.390625 64.59375 17.578125 60.78125 
Q 13.765625 56.984375 13.71875 50.25 
L 4.6875 51.171875 
Q 5.609375 61.28125 11.65625 66.578125 
Q 17.71875 71.875 27.9375 71.875 
Q 38.234375 71.875 44.234375 66.15625 
Q 50.25 60.453125 50.25 52 
Q 50.25 47.703125 48.484375 43.546875 
Q 46.734375 39.40625 42.65625 34.8125 
Q 38.578125 30.21875 29.109375 22.21875 
Q 21.1875 15.578125 18.9375 13.203125 
Q 16.703125 10.84375 15.234375 8.453125 
z
" id="ArialMT-32"/>
      </defs>
      <g style="fill:#262626;" transform="translate(273.56423 321.741812)scale(0.1 -0.1)">
       <use xlink:href="#ArialMT-32"/>
       <use x="55.615234" xlink:href="#ArialMT-2e"/>
       <use x="83.398438" xlink:href="#ArialMT-30"/>
      </g>
     </g>
    </g>
    <g id="xtick_6">
     <g id="line2d_11">
      <path clip-path="url(#pd38d8fa640)" d="M 332.184606 307.584 
L 332.184606 41.472 
" style="fill:none;stroke:#ffffff;stroke-linecap:round;"/>
     </g>
     <g id="line2d_12"/>
     <g id="text_6">
      <!-- 2.5 -->
      <g style="fill:#262626;" transform="translate(325.234606 321.741812)scale(0.1 -0.1)">
       <use xlink:href="#ArialMT-32"/>
       <use x="55.615234" xlink:href="#ArialMT-2e"/>
       <use x="83.398438" xlink:href="#ArialMT-35"/>
      </g>
     </g>
    </g>
    <g id="xtick_7">
     <g id="line2d_13">
      <path clip-path="url(#pd38d8fa640)" d="M 383.854982 307.584 
L 383.854982 41.472 
" style="fill:none;stroke:#ffffff;stroke-linecap:round;"/>
     </g>
     <g id="line2d_14"/>
     <g id="text_7">
      <!-- 3.0 -->
      <defs>
       <path d="M 4.203125 18.890625 
L 12.984375 20.0625 
Q 14.5 12.59375 18.140625 9.296875 
Q 21.78125 6 27 6 
Q 33.203125 6 37.46875 10.296875 
Q 41.75 14.59375 41.75 20.953125 
Q 41.75 27 37.796875 30.921875 
Q 33.84375 34.859375 27.734375 34.859375 
Q 25.25 34.859375 21.53125 33.890625 
L 22.515625 41.609375 
Q 23.390625 41.5 23.921875 41.5 
Q 29.546875 41.5 34.03125 44.421875 
Q 38.53125 47.359375 38.53125 53.46875 
Q 38.53125 58.296875 35.25 61.46875 
Q 31.984375 64.65625 26.8125 64.65625 
Q 21.6875 64.65625 18.265625 61.421875 
Q 14.84375 58.203125 13.875 51.765625 
L 5.078125 53.328125 
Q 6.6875 62.15625 12.390625 67.015625 
Q 18.109375 71.875 26.609375 71.875 
Q 32.46875 71.875 37.390625 69.359375 
Q 42.328125 66.84375 44.9375 62.5 
Q 47.5625 58.15625 47.5625 53.265625 
Q 47.5625 48.640625 45.0625 44.828125 
Q 42.578125 41.015625 37.703125 38.765625 
Q 44.046875 37.3125 47.5625 32.6875 
Q 51.078125 28.078125 51.078125 21.140625 
Q 51.078125 11.765625 44.234375 5.25 
Q 37.40625 -1.265625 26.953125 -1.265625 
Q 17.53125 -1.265625 11.296875 4.34375 
Q 5.078125 9.96875 4.203125 18.890625 
z
" id="ArialMT-33"/>
      </defs>
      <g style="fill:#262626;" transform="translate(376.904982 321.741812)scale(0.1 -0.1)">
       <use xlink:href="#ArialMT-33"/>
       <use x="55.615234" xlink:href="#ArialMT-2e"/>
       <use x="83.398438" xlink:href="#ArialMT-30"/>
      </g>
     </g>
    </g>
   </g>
   <g id="matplotlib.axis_2">
    <g id="ytick_1">
     <g id="line2d_15">
      <path clip-path="url(#pd38d8fa640)" d="M 57.6 295.488 
L 414.72 295.488 
" style="fill:none;stroke:#ffffff;stroke-linecap:round;"/>
     </g>
     <g id="line2d_16"/>
     <g id="text_8">
      <!-- 0.0 -->
      <g style="fill:#262626;" transform="translate(36.7 299.066906)scale(0.1 -0.1)">
       <use xlink:href="#ArialMT-30"/>
       <use x="55.615234" xlink:href="#ArialMT-2e"/>
       <use x="83.398438" xlink:href="#ArialMT-30"/>
      </g>
     </g>
    </g>
    <g id="ytick_2">
     <g id="line2d_17">
      <path clip-path="url(#pd38d8fa640)" d="M 57.6 248.644274 
L 414.72 248.644274 
" style="fill:none;stroke:#ffffff;stroke-linecap:round;"/>
     </g>
     <g id="line2d_18"/>
     <g id="text_9">
      <!-- 0.5 -->
      <g style="fill:#262626;" transform="translate(36.7 252.22318)scale(0.1 -0.1)">
       <use xlink:href="#ArialMT-30"/>
       <use x="55.615234" xlink:href="#ArialMT-2e"/>
       <use x="83.398438" xlink:href="#ArialMT-35"/>
      </g>
     </g>
    </g>
    <g id="ytick_3">
     <g id="line2d_19">
      <path clip-path="url(#pd38d8fa640)" d="M 57.6 201.800547 
L 414.72 201.800547 
" style="fill:none;stroke:#ffffff;stroke-linecap:round;"/>
     </g>
     <g id="line2d_20"/>
     <g id="text_10">
      <!-- 1.0 -->
      <g style="fill:#262626;" transform="translate(36.7 205.379453)scale(0.1 -0.1)">
       <use xlink:href="#ArialMT-31"/>
       <use x="55.615234" xlink:href="#ArialMT-2e"/>
       <use x="83.398438" xlink:href="#ArialMT-30"/>
      </g>
     </g>
    </g>
    <g id="ytick_4">
     <g id="line2d_21">
      <path clip-path="url(#pd38d8fa640)" d="M 57.6 154.956821 
L 414.72 154.956821 
" style="fill:none;stroke:#ffffff;stroke-linecap:round;"/>
     </g>
     <g id="line2d_22"/>
     <g id="text_11">
      <!-- 1.5 -->
      <g style="fill:#262626;" transform="translate(36.7 158.535727)scale(0.1 -0.1)">
       <use xlink:href="#ArialMT-31"/>
       <use x="55.615234" xlink:href="#ArialMT-2e"/>
       <use x="83.398438" xlink:href="#ArialMT-35"/>
      </g>
     </g>
    </g>
    <g id="ytick_5">
     <g id="line2d_23">
      <path clip-path="url(#pd38d8fa640)" d="M 57.6 108.113094 
L 414.72 108.113094 
" style="fill:none;stroke:#ffffff;stroke-linecap:round;"/>
     </g>
     <g id="line2d_24"/>
     <g id="text_12">
      <!-- 2.0 -->
      <g style="fill:#262626;" transform="translate(36.7 111.692001)scale(0.1 -0.1)">
       <use xlink:href="#ArialMT-32"/>
       <use x="55.615234" xlink:href="#ArialMT-2e"/>
       <use x="83.398438" xlink:href="#ArialMT-30"/>
      </g>
     </g>
    </g>
    <g id="ytick_6">
     <g id="line2d_25">
      <path clip-path="url(#pd38d8fa640)" d="M 57.6 61.269368 
L 414.72 61.269368 
" style="fill:none;stroke:#ffffff;stroke-linecap:round;"/>
     </g>
     <g id="line2d_26"/>
     <g id="text_13">
      <!-- 2.5 -->
      <g style="fill:#262626;" transform="translate(36.7 64.848274)scale(0.1 -0.1)">
       <use xlink:href="#ArialMT-32"/>
       <use x="55.615234" xlink:href="#ArialMT-2e"/>
       <use x="83.398438" xlink:href="#ArialMT-35"/>
      </g>
     </g>
    </g>
   </g>
   <g id="patch_3">
    <path d="M 57.6 307.584 
L 57.6 41.472 
" style="fill:none;"/>
   </g>
   <g id="patch_4">
    <path d="M 414.72 307.584 
L 414.72 41.472 
" style="fill:none;"/>
   </g>
   <g id="patch_5">
    <path d="M 57.6 307.584 
L 414.72 307.584 
" style="fill:none;"/>
   </g>
   <g id="patch_6">
    <path d="M 57.6 41.472 
L 414.72 41.472 
" style="fill:none;"/>
   </g>
   <g id="PolyCollection_1">
    <defs>
     <path d="M 73.832727 -50.112 
L 73.832727 -50.112 
L 74.483338 -50.112 
L 75.133948 -50.112 
L 75.784558 -50.112 
L 76.435169 -50.112 
L 77.085779 -50.112 
L 77.736389 -50.112 
L 78.386999 -50.112 
L 79.03761 -50.112 
L 79.68822 -50.112 
L 80.33883 -50.112 
L 80.989441 -50.112 
L 81.640051 -50.112 
L 82.290661 -50.112 
L 82.941272 -50.112 
L 83.591882 -50.112 
L 84.242492 -50.112 
L 84.893103 -50.112 
L 85.543713 -50.112 
L 86.194323 -50.112 
L 86.844934 -50.112 
L 87.495544 -50.112 
L 88.146154 -50.112 
L 88.796764 -50.112 
L 89.447375 -50.112 
L 90.097985 -50.112 
L 90.748595 -50.112 
L 91.399206 -50.112 
L 92.049816 -50.112 
L 92.700426 -50.112 
L 93.351037 -50.112 
L 94.001647 -50.112 
L 94.652257 -50.112 
L 95.302868 -50.112 
L 95.953478 -50.112 
L 96.604088 -50.112 
L 97.254698 -50.112 
L 97.905309 -50.112 
L 98.555919 -50.112 
L 99.206529 -50.112 
L 99.85714 -50.112 
L 100.50775 -50.112 
L 101.15836 -50.112 
L 101.808971 -50.112 
L 102.459581 -50.112 
L 103.110191 -50.112 
L 103.760802 -50.112 
L 104.411412 -50.112 
L 105.062022 -50.112 
L 105.712633 -50.112 
L 106.363243 -50.112 
L 107.013853 -50.112 
L 107.664463 -50.112 
L 108.315074 -50.112 
L 108.965684 -50.112 
L 109.616294 -50.112 
L 110.266905 -50.112 
L 110.917515 -50.112 
L 111.568125 -50.112 
L 112.218736 -50.112 
L 112.869346 -50.112 
L 113.519956 -50.112 
L 114.170567 -50.112 
L 114.821177 -50.112 
L 115.471787 -50.112 
L 116.122398 -50.112 
L 116.773008 -50.112 
L 117.423618 -50.112 
L 118.074228 -50.112 
L 118.724839 -50.112 
L 119.375449 -50.112 
L 120.026059 -50.112 
L 120.67667 -50.112 
L 121.32728 -50.112 
L 121.97789 -50.112 
L 122.628501 -50.112 
L 123.279111 -50.112 
L 123.929721 -50.112 
L 124.580332 -50.112 
L 125.230942 -50.112 
L 125.881552 -50.112 
L 126.532163 -50.112 
L 127.182773 -50.112 
L 127.833383 -50.112 
L 128.483993 -50.112 
L 129.134604 -50.112 
L 129.785214 -50.112 
L 130.435824 -50.112 
L 131.086435 -50.112 
L 131.737045 -50.112 
L 132.387655 -50.112 
L 133.038266 -50.112 
L 133.688876 -50.112 
L 134.339486 -50.112 
L 134.990097 -50.112 
L 135.640707 -50.112 
L 136.291317 -50.112 
L 136.941927 -50.112 
L 137.592538 -50.112 
L 138.243148 -50.112 
L 138.893758 -50.112 
L 139.544369 -50.112 
L 140.194979 -50.112 
L 140.845589 -50.112 
L 141.4962 -50.112 
L 142.14681 -50.112 
L 142.79742 -50.112 
L 143.448031 -50.112 
L 144.098641 -50.112 
L 144.749251 -50.112 
L 145.399862 -50.112 
L 146.050472 -50.112 
L 146.701082 -50.112 
L 147.351692 -50.112 
L 148.002303 -50.112 
L 148.652913 -50.112 
L 149.303523 -50.112 
L 149.954134 -50.112 
L 150.604744 -50.112 
L 151.255354 -50.112 
L 151.905965 -50.112 
L 152.556575 -50.112 
L 153.207185 -50.112 
L 153.857796 -50.112 
L 154.508406 -50.112 
L 155.159016 -50.112 
L 155.809627 -50.112 
L 156.460237 -50.112 
L 157.110847 -50.112 
L 157.761457 -50.112 
L 158.412068 -50.112 
L 159.062678 -50.112 
L 159.713288 -50.112 
L 160.363899 -50.112 
L 161.014509 -50.112 
L 161.665119 -50.112 
L 162.31573 -50.112 
L 162.96634 -50.112 
L 163.61695 -50.112 
L 164.267561 -50.112 
L 164.918171 -50.112 
L 165.568781 -50.112 
L 166.219392 -50.112 
L 166.870002 -50.112 
L 167.520612 -50.112 
L 168.171222 -50.112 
L 168.821833 -50.112 
L 169.472443 -50.112 
L 170.123053 -50.112 
L 170.773664 -50.112 
L 171.424274 -50.112 
L 172.074884 -50.112 
L 172.725495 -50.112 
L 173.376105 -50.112 
L 174.026715 -50.112 
L 174.677326 -50.112 
L 175.327936 -50.112 
L 175.978546 -50.112 
L 176.629156 -50.112 
L 177.279767 -50.112 
L 177.930377 -50.112 
L 178.580987 -50.112 
L 179.231598 -50.112 
L 179.882208 -50.112 
L 180.532818 -50.112 
L 181.183429 -50.112 
L 181.834039 -50.112 
L 182.484649 -50.112 
L 183.13526 -50.112 
L 183.78587 -50.112 
L 184.43648 -50.112 
L 185.087091 -50.112 
L 185.737701 -50.112 
L 186.388311 -50.112 
L 187.038921 -50.112 
L 187.689532 -50.112 
L 188.340142 -50.112 
L 188.990752 -50.112 
L 189.641363 -50.112 
L 190.291973 -50.112 
L 190.942583 -50.112 
L 191.593194 -50.112 
L 192.243804 -50.112 
L 192.894414 -50.112 
L 193.545025 -50.112 
L 194.195635 -50.112 
L 194.846245 -50.112 
L 195.496856 -50.112 
L 196.147466 -50.112 
L 196.798076 -50.112 
L 197.448686 -50.112 
L 198.099297 -50.112 
L 198.749907 -50.112 
L 199.400517 -50.112 
L 200.051128 -50.112 
L 200.701738 -50.112 
L 201.352348 -50.112 
L 202.002959 -50.112 
L 202.653569 -50.112 
L 203.304179 -50.112 
L 203.95479 -50.112 
L 204.6054 -50.112 
L 205.25601 -50.112 
L 205.906621 -50.112 
L 206.557231 -50.112 
L 207.207841 -50.112 
L 207.858451 -50.112 
L 208.509062 -50.112 
L 209.159672 -50.112 
L 209.810282 -50.112 
L 210.460893 -50.112 
L 211.111503 -50.112 
L 211.762113 -50.112 
L 212.412724 -50.112 
L 213.063334 -50.112 
L 213.713944 -50.112 
L 214.364555 -50.112 
L 215.015165 -50.112 
L 215.665775 -50.112 
L 216.316385 -50.112 
L 216.966996 -50.112 
L 217.617606 -50.112 
L 218.268216 -50.112 
L 218.918827 -50.112 
L 219.569437 -50.112 
L 220.220047 -50.112 
L 220.870658 -50.112 
L 221.521268 -50.112 
L 222.171878 -50.112 
L 222.822489 -50.112 
L 223.473099 -50.112 
L 224.123709 -50.112 
L 224.77432 -50.112 
L 225.42493 -50.112 
L 226.07554 -50.112 
L 226.72615 -50.112 
L 227.376761 -50.112 
L 228.027371 -50.112 
L 228.677981 -50.112 
L 229.328592 -50.112 
L 229.979202 -50.112 
L 230.629812 -50.112 
L 231.280423 -50.112 
L 231.931033 -50.112 
L 232.581643 -50.112 
L 233.232254 -50.112 
L 233.882864 -50.112 
L 234.533474 -50.112 
L 235.184085 -50.112 
L 235.834695 -50.112 
L 236.485305 -50.112 
L 237.135915 -50.112 
L 237.786526 -50.112 
L 238.437136 -50.112 
L 239.087746 -50.112 
L 239.738357 -50.112 
L 240.388967 -50.112 
L 241.039577 -50.112 
L 241.690188 -50.112 
L 242.340798 -50.112 
L 242.991408 -50.112 
L 243.642019 -50.112 
L 244.292629 -50.112 
L 244.943239 -50.112 
L 245.59385 -50.112 
L 246.24446 -50.112 
L 246.89507 -50.112 
L 247.54568 -50.112 
L 248.196291 -50.112 
L 248.846901 -50.112 
L 249.497511 -50.112 
L 250.148122 -50.112 
L 250.798732 -50.112 
L 251.449342 -50.112 
L 252.099953 -50.112 
L 252.750563 -50.112 
L 253.401173 -50.112 
L 254.051784 -50.112 
L 254.702394 -50.112 
L 255.353004 -50.112 
L 256.003615 -50.112 
L 256.654225 -50.112 
L 257.304835 -50.112 
L 257.955445 -50.112 
L 258.606056 -50.112 
L 259.256666 -50.112 
L 259.907276 -50.112 
L 260.557887 -50.112 
L 261.208497 -50.112 
L 261.859107 -50.112 
L 262.509718 -50.112 
L 263.160328 -50.112 
L 263.810938 -50.112 
L 264.461549 -50.112 
L 265.112159 -50.112 
L 265.762769 -50.112 
L 266.413379 -50.112 
L 267.06399 -50.112 
L 267.7146 -50.112 
L 268.36521 -50.112 
L 269.015821 -50.112 
L 269.666431 -50.112 
L 270.317041 -50.112 
L 270.967652 -50.112 
L 271.618262 -50.112 
L 272.268872 -50.112 
L 272.919483 -50.112 
L 273.570093 -50.112 
L 274.220703 -50.112 
L 274.871314 -50.112 
L 275.521924 -50.112 
L 276.172534 -50.112 
L 276.823144 -50.112 
L 277.473755 -50.112 
L 278.124365 -50.112 
L 278.774975 -50.112 
L 279.425586 -50.112 
L 280.076196 -50.112 
L 280.726806 -50.112 
L 281.377417 -50.112 
L 282.028027 -50.112 
L 282.678637 -50.112 
L 283.329248 -50.112 
L 283.979858 -50.112 
L 284.630468 -50.112 
L 285.281079 -50.112 
L 285.931689 -50.112 
L 286.582299 -50.112 
L 287.232909 -50.112 
L 287.88352 -50.112 
L 288.53413 -50.112 
L 289.18474 -50.112 
L 289.835351 -50.112 
L 290.485961 -50.112 
L 291.136571 -50.112 
L 291.787182 -50.112 
L 292.437792 -50.112 
L 293.088402 -50.112 
L 293.739013 -50.112 
L 294.389623 -50.112 
L 295.040233 -50.112 
L 295.690844 -50.112 
L 296.341454 -50.112 
L 296.992064 -50.112 
L 297.642674 -50.112 
L 298.293285 -50.112 
L 298.943895 -50.112 
L 299.594505 -50.112 
L 300.245116 -50.112 
L 300.895726 -50.112 
L 301.546336 -50.112 
L 302.196947 -50.112 
L 302.847557 -50.112 
L 303.498167 -50.112 
L 304.148778 -50.112 
L 304.799388 -50.112 
L 305.449998 -50.112 
L 306.100608 -50.112 
L 306.751219 -50.112 
L 307.401829 -50.112 
L 308.052439 -50.112 
L 308.70305 -50.112 
L 309.35366 -50.112 
L 310.00427 -50.112 
L 310.654881 -50.112 
L 311.305491 -50.112 
L 311.956101 -50.112 
L 312.606712 -50.112 
L 313.257322 -50.112 
L 313.907932 -50.112 
L 314.558543 -50.112 
L 315.209153 -50.112 
L 315.859763 -50.112 
L 316.510373 -50.112 
L 317.160984 -50.112 
L 317.811594 -50.112 
L 318.462204 -50.112 
L 319.112815 -50.112 
L 319.763425 -50.112 
L 320.414035 -50.112 
L 321.064646 -50.112 
L 321.715256 -50.112 
L 322.365866 -50.112 
L 323.016477 -50.112 
L 323.667087 -50.112 
L 324.317697 -50.112 
L 324.968308 -50.112 
L 325.618918 -50.112 
L 326.269528 -50.112 
L 326.920138 -50.112 
L 327.570749 -50.112 
L 328.221359 -50.112 
L 328.871969 -50.112 
L 329.52258 -50.112 
L 330.17319 -50.112 
L 330.8238 -50.112 
L 331.474411 -50.112 
L 332.125021 -50.112 
L 332.775631 -50.112 
L 333.426242 -50.112 
L 334.076852 -50.112 
L 334.727462 -50.112 
L 335.378073 -50.112 
L 336.028683 -50.112 
L 336.679293 -50.112 
L 337.329903 -50.112 
L 337.980514 -50.112 
L 338.631124 -50.112 
L 339.281734 -50.112 
L 339.932345 -50.112 
L 340.582955 -50.112 
L 341.233565 -50.112 
L 341.884176 -50.112 
L 342.534786 -50.112 
L 343.185396 -50.112 
L 343.836007 -50.112 
L 344.486617 -50.112 
L 345.137227 -50.112 
L 345.787837 -50.112 
L 346.438448 -50.112 
L 347.089058 -50.112 
L 347.739668 -50.112 
L 348.390279 -50.112 
L 349.040889 -50.112 
L 349.691499 -50.112 
L 350.34211 -50.112 
L 350.99272 -50.112 
L 351.64333 -50.112 
L 352.293941 -50.112 
L 352.944551 -50.112 
L 353.595161 -50.112 
L 354.245772 -50.112 
L 354.896382 -50.112 
L 355.546992 -50.112 
L 356.197602 -50.112 
L 356.848213 -50.112 
L 357.498823 -50.112 
L 358.149433 -50.112 
L 358.800044 -50.112 
L 359.450654 -50.112 
L 360.101264 -50.112 
L 360.751875 -50.112 
L 361.402485 -50.112 
L 362.053095 -50.112 
L 362.703706 -50.112 
L 363.354316 -50.112 
L 364.004926 -50.112 
L 364.655537 -50.112 
L 365.306147 -50.112 
L 365.956757 -50.112 
L 366.607367 -50.112 
L 367.257978 -50.112 
L 367.908588 -50.112 
L 368.559198 -50.112 
L 369.209809 -50.112 
L 369.860419 -50.112 
L 370.511029 -50.112 
L 371.16164 -50.112 
L 371.81225 -50.112 
L 372.46286 -50.112 
L 373.113471 -50.112 
L 373.764081 -50.112 
L 374.414691 -50.112 
L 375.065302 -50.112 
L 375.715912 -50.112 
L 376.366522 -50.112 
L 377.017132 -50.112 
L 377.667743 -50.112 
L 378.318353 -50.112 
L 378.968963 -50.112 
L 379.619574 -50.112 
L 380.270184 -50.112 
L 380.920794 -50.112 
L 381.571405 -50.112 
L 382.222015 -50.112 
L 382.872625 -50.112 
L 383.523236 -50.112 
L 384.173846 -50.112 
L 384.824456 -50.112 
L 385.475066 -50.112 
L 386.125677 -50.112 
L 386.776287 -50.112 
L 387.426897 -50.112 
L 388.077508 -50.112 
L 388.728118 -50.112 
L 389.378728 -50.112 
L 390.029339 -50.112 
L 390.679949 -50.112 
L 391.330559 -50.112 
L 391.98117 -50.112 
L 392.63178 -50.112 
L 393.28239 -50.112 
L 393.933001 -50.112 
L 394.583611 -50.112 
L 395.234221 -50.112 
L 395.884831 -50.112 
L 396.535442 -50.112 
L 397.186052 -50.112 
L 397.836662 -50.112 
L 398.487273 -50.112 
L 398.487273 -50.112 
L 398.487273 -50.112 
L 397.836662 -50.113217 
L 397.186052 -50.116856 
L 396.535442 -50.122891 
L 395.884831 -50.131294 
L 395.234221 -50.142031 
L 394.583611 -50.155062 
L 393.933001 -50.17034 
L 393.28239 -50.187808 
L 392.63178 -50.207402 
L 391.98117 -50.229044 
L 391.330559 -50.252646 
L 390.679949 -50.278102 
L 390.029339 -50.305289 
L 389.378728 -50.334066 
L 388.728118 -50.364266 
L 388.077508 -50.3957 
L 387.426897 -50.428146 
L 386.776287 -50.461351 
L 386.125677 -50.49503 
L 385.475066 -50.528857 
L 384.824456 -50.562471 
L 384.173846 -50.595476 
L 383.523236 -50.627442 
L 382.872625 -50.657918 
L 382.222015 -50.686447 
L 381.571405 -50.712585 
L 380.920794 -50.735933 
L 380.270184 -50.756178 
L 379.619574 -50.773138 
L 378.968963 -50.786819 
L 378.318353 -50.797464 
L 377.667743 -50.805599 
L 377.017132 -50.81206 
L 376.366522 -50.817986 
L 375.715912 -50.82478 
L 375.065302 -50.83403 
L 374.414691 -50.847394 
L 373.764081 -50.86647 
L 373.113471 -50.89267 
L 372.46286 -50.927117 
L 371.81225 -50.970575 
L 371.16164 -51.023434 
L 370.511029 -51.08573 
L 369.860419 -51.157195 
L 369.209809 -51.237333 
L 368.559198 -51.325491 
L 367.908588 -51.42093 
L 367.257978 -51.522885 
L 366.607367 -51.630607 
L 365.956757 -51.743392 
L 365.306147 -51.860601 
L 364.655537 -51.981669 
L 364.004926 -52.106103 
L 363.354316 -52.233484 
L 362.703706 -52.363456 
L 362.053095 -52.495723 
L 361.402485 -52.630038 
L 360.751875 -52.7662 
L 360.101264 -52.904043 
L 359.450654 -53.043431 
L 358.800044 -53.184256 
L 358.149433 -53.326427 
L 357.498823 -53.469872 
L 356.848213 -53.614532 
L 356.197602 -53.760358 
L 355.546992 -53.907308 
L 354.896382 -54.055351 
L 354.245772 -54.204456 
L 353.595161 -54.354599 
L 352.944551 -54.505757 
L 352.293941 -54.657912 
L 351.64333 -54.811044 
L 350.99272 -54.965135 
L 350.34211 -55.120168 
L 349.691499 -55.276127 
L 349.040889 -55.432995 
L 348.390279 -55.590753 
L 347.739668 -55.749385 
L 347.089058 -55.908873 
L 346.438448 -56.069197 
L 345.787837 -56.230337 
L 345.137227 -56.392275 
L 344.486617 -56.554988 
L 343.836007 -56.718456 
L 343.185396 -56.882655 
L 342.534786 -57.047562 
L 341.884176 -57.213153 
L 341.233565 -57.379404 
L 340.582955 -57.546289 
L 339.932345 -57.713781 
L 339.281734 -57.881853 
L 338.631124 -58.050478 
L 337.980514 -58.219628 
L 337.329903 -58.389272 
L 336.679293 -58.559383 
L 336.028683 -58.729929 
L 335.378073 -58.90088 
L 334.727462 -59.072205 
L 334.076852 -59.243872 
L 333.426242 -59.41585 
L 332.775631 -59.588108 
L 332.125021 -59.760612 
L 331.474411 -59.933331 
L 330.8238 -60.106234 
L 330.17319 -60.279288 
L 329.52258 -60.452462 
L 328.871969 -60.625726 
L 328.221359 -60.799051 
L 327.570749 -60.972408 
L 326.920138 -61.14577 
L 326.269528 -61.319111 
L 325.618918 -61.492408 
L 324.968308 -61.66564 
L 324.317697 -61.83879 
L 323.667087 -62.011843 
L 323.016477 -62.184788 
L 322.365866 -62.35762 
L 321.715256 -62.530338 
L 321.064646 -62.702948 
L 320.414035 -62.875463 
L 319.763425 -63.047904 
L 319.112815 -63.2203 
L 318.462204 -63.392692 
L 317.811594 -63.565131 
L 317.160984 -63.73768 
L 316.510373 -63.910419 
L 315.859763 -64.083443 
L 315.209153 -64.256863 
L 314.558543 -64.430812 
L 313.907932 -64.605442 
L 313.257322 -64.780931 
L 312.606712 -64.957483 
L 311.956101 -65.135328 
L 311.305491 -65.314732 
L 310.654881 -65.49599 
L 310.00427 -65.679436 
L 309.35366 -65.865446 
L 308.70305 -66.054437 
L 308.052439 -66.246873 
L 307.401829 -66.44327 
L 306.751219 -66.644196 
L 306.100608 -66.850279 
L 305.449998 -67.062208 
L 304.799388 -67.28074 
L 304.148778 -67.506701 
L 303.498167 -67.740994 
L 302.847557 -67.9846 
L 302.196947 -68.238586 
L 301.546336 -68.504107 
L 300.895726 -68.782412 
L 300.245116 -69.074852 
L 299.594505 -69.382876 
L 298.943895 -69.708045 
L 298.293285 -70.052032 
L 297.642674 -70.416624 
L 296.992064 -70.803731 
L 296.341454 -71.215384 
L 295.690844 -71.65374 
L 295.040233 -72.121084 
L 294.389623 -72.619826 
L 293.739013 -73.152502 
L 293.088402 -73.721771 
L 292.437792 -74.330407 
L 291.787182 -74.981294 
L 291.136571 -75.677411 
L 290.485961 -76.421819 
L 289.835351 -77.217638 
L 289.18474 -78.068027 
L 288.53413 -78.976149 
L 287.88352 -79.945133 
L 287.232909 -80.978034 
L 286.582299 -82.077774 
L 285.931689 -83.247089 
L 285.281079 -84.488453 
L 284.630468 -85.804003 
L 283.979858 -87.195451 
L 283.329248 -88.663989 
L 282.678637 -90.210188 
L 282.028027 -91.833888 
L 281.377417 -93.534084 
L 280.726806 -95.308813 
L 280.076196 -97.155044 
L 279.425586 -99.068563 
L 278.774975 -101.043879 
L 278.124365 -103.074138 
L 277.473755 -105.151053 
L 276.823144 -107.264865 
L 276.172534 -109.404322 
L 275.521924 -111.5567 
L 274.871314 -113.707852 
L 274.220703 -115.842305 
L 273.570093 -117.943392 
L 272.919483 -119.993425 
L 272.268872 -121.97391 
L 271.618262 -123.865799 
L 270.967652 -125.649776 
L 270.317041 -127.306562 
L 269.666431 -128.817252 
L 269.015821 -130.16365 
L 268.36521 -131.328617 
L 267.7146 -132.296408 
L 267.06399 -133.052989 
L 266.413379 -133.586339 
L 265.762769 -133.886717 
L 265.112159 -133.946888 
L 264.461549 -133.762316 
L 263.810938 -133.3313 
L 263.160328 -132.655074 
L 262.509718 -131.73785 
L 261.859107 -130.586821 
L 261.208497 -129.212115 
L 260.557887 -127.626708 
L 259.907276 -125.846297 
L 259.256666 -123.88914 
L 258.606056 -121.775862 
L 257.955445 -119.529242 
L 257.304835 -117.173966 
L 256.654225 -114.736376 
L 256.003615 -112.244192 
L 255.353004 -109.726234 
L 254.702394 -107.212133 
L 254.051784 -104.732035 
L 253.401173 -102.316312 
L 252.750563 -99.995266 
L 252.099953 -97.798844 
L 251.449342 -95.756359 
L 250.798732 -93.896209 
L 250.148122 -92.245625 
L 249.497511 -90.830412 
L 248.846901 -89.674713 
L 248.196291 -88.800793 
L 247.54568 -88.228823 
L 246.89507 -87.976703 
L 246.24446 -88.059887 
L 245.59385 -88.491235 
L 244.943239 -89.280892 
L 244.292629 -90.436178 
L 243.642019 -91.961511 
L 242.991408 -93.85835 
L 242.340798 -96.125161 
L 241.690188 -98.757412 
L 241.039577 -101.747589 
L 240.388967 -105.08524 
L 239.738357 -108.757041 
L 239.087746 -112.746889 
L 238.437136 -117.036017 
L 237.786526 -121.603132 
L 237.135915 -126.424574 
L 236.485305 -131.474497 
L 235.834695 -136.725068 
L 235.184085 -142.146681 
L 234.533474 -147.708192 
L 233.882864 -153.377161 
L 233.232254 -159.120109 
L 232.581643 -164.902783 
L 231.931033 -170.690428 
L 231.280423 -176.44806 
L 230.629812 -182.14075 
L 229.979202 -187.733892 
L 229.328592 -193.193484 
L 228.677981 -198.486392 
L 228.027371 -203.580608 
L 227.376761 -208.445502 
L 226.72615 -213.052057 
L 226.07554 -217.373088 
L 225.42493 -221.383449 
L 224.77432 -225.060216 
L 224.123709 -228.382851 
L 223.473099 -231.333348 
L 222.822489 -233.896349 
L 222.171878 -236.059243 
L 221.521268 -237.81223 
L 220.870658 -239.148372 
L 220.220047 -240.063608 
L 219.569437 -240.556745 
L 218.918827 -240.629429 
L 218.268216 -240.286084 
L 217.617606 -239.533826 
L 216.966996 -238.382361 
L 216.316385 -236.843852 
L 215.665775 -234.932769 
L 215.015165 -232.665718 
L 214.364555 -230.061257 
L 213.713944 -227.139689 
L 213.063334 -223.922852 
L 212.412724 -220.433886 
L 211.762113 -216.697005 
L 211.111503 -212.737252 
L 210.460893 -208.580264 
L 209.810282 -204.252025 
L 209.159672 -199.778631 
L 208.509062 -195.186057 
L 207.858451 -190.499932 
L 207.207841 -185.745332 
L 206.557231 -180.946578 
L 205.906621 -176.127054 
L 205.25601 -171.309044 
L 204.6054 -166.513586 
L 203.95479 -161.760352 
L 203.304179 -157.06754 
L 202.653569 -152.451798 
L 202.002959 -147.928167 
L 201.352348 -143.510042 
L 200.701738 -139.209166 
L 200.051128 -135.03563 
L 199.400517 -130.997903 
L 198.749907 -127.102876 
L 198.099297 -123.355923 
L 197.448686 -119.760975 
L 196.798076 -116.320606 
L 196.147466 -113.036128 
L 195.496856 -109.907692 
L 194.846245 -106.934399 
L 194.195635 -104.114408 
L 193.545025 -101.445047 
L 192.894414 -98.922922 
L 192.243804 -96.544025 
L 191.593194 -94.303837 
L 190.942583 -92.197425 
L 190.291973 -90.219531 
L 189.641363 -88.364659 
L 188.990752 -86.627151 
L 188.340142 -85.001253 
L 187.689532 -83.481179 
L 187.038921 -82.061165 
L 186.388311 -80.735511 
L 185.737701 -79.498621 
L 185.087091 -78.345039 
L 184.43648 -77.26947 
L 183.78587 -76.266802 
L 183.13526 -75.332124 
L 182.484649 -74.460731 
L 181.834039 -73.64814 
L 181.183429 -72.890085 
L 180.532818 -72.182523 
L 179.882208 -71.521632 
L 179.231598 -70.903807 
L 178.580987 -70.325655 
L 177.930377 -69.783992 
L 177.279767 -69.275831 
L 176.629156 -68.79838 
L 175.978546 -68.349031 
L 175.327936 -67.925351 
L 174.677326 -67.525076 
L 174.026715 -67.146103 
L 173.376105 -66.786479 
L 172.725495 -66.444394 
L 172.074884 -66.118175 
L 171.424274 -65.806276 
L 170.773664 -65.507273 
L 170.123053 -65.219851 
L 169.472443 -64.942807 
L 168.821833 -64.675034 
L 168.171222 -64.41552 
L 167.520612 -64.163339 
L 166.870002 -63.91765 
L 166.219392 -63.677686 
L 165.568781 -63.442752 
L 164.918171 -63.212218 
L 164.267561 -62.985519 
L 163.61695 -62.762144 
L 162.96634 -62.541636 
L 162.31573 -62.32359 
L 161.665119 -62.107642 
L 161.014509 -61.893475 
L 160.363899 -61.680807 
L 159.713288 -61.469394 
L 159.062678 -61.259025 
L 158.412068 -61.049519 
L 157.761457 -60.840724 
L 157.110847 -60.632512 
L 156.460237 -60.424782 
L 155.809627 -60.217451 
L 155.159016 -60.01046 
L 154.508406 -59.803766 
L 153.857796 -59.597345 
L 153.207185 -59.391188 
L 152.556575 -59.185301 
L 151.905965 -58.979706 
L 151.255354 -58.774434 
L 150.604744 -58.569532 
L 149.954134 -58.365058 
L 149.303523 -58.161079 
L 148.652913 -57.957674 
L 148.002303 -57.754932 
L 147.351692 -57.552952 
L 146.701082 -57.351842 
L 146.050472 -57.15172 
L 145.399862 -56.952711 
L 144.749251 -56.75495 
L 144.098641 -56.55858 
L 143.448031 -56.363754 
L 142.79742 -56.170629 
L 142.14681 -55.979374 
L 141.4962 -55.790162 
L 140.845589 -55.603175 
L 140.194979 -55.418599 
L 139.544369 -55.236629 
L 138.893758 -55.057463 
L 138.243148 -54.881304 
L 137.592538 -54.708357 
L 136.941927 -54.538832 
L 136.291317 -54.372938 
L 135.640707 -54.210886 
L 134.990097 -54.052882 
L 134.339486 -53.899131 
L 133.688876 -53.749832 
L 133.038266 -53.605179 
L 132.387655 -53.465353 
L 131.737045 -53.330527 
L 131.086435 -53.200858 
L 130.435824 -53.076489 
L 129.785214 -52.957543 
L 129.134604 -52.844124 
L 128.483993 -52.736313 
L 127.833383 -52.634166 
L 127.182773 -52.537713 
L 126.532163 -52.446958 
L 125.881552 -52.361872 
L 125.230942 -52.282398 
L 124.580332 -52.20845 
L 123.929721 -52.139909 
L 123.279111 -52.076628 
L 122.628501 -52.018429 
L 121.97789 -51.965108 
L 121.32728 -51.916433 
L 120.67667 -51.87215 
L 120.026059 -51.831984 
L 119.375449 -51.79564 
L 118.724839 -51.762811 
L 118.074228 -51.733177 
L 117.423618 -51.706411 
L 116.773008 -51.682182 
L 116.122398 -51.660158 
L 115.471787 -51.640013 
L 114.821177 -51.621424 
L 114.170567 -51.60408 
L 113.519956 -51.587682 
L 112.869346 -51.571947 
L 112.218736 -51.556609 
L 111.568125 -51.541421 
L 110.917515 -51.526155 
L 110.266905 -51.510608 
L 109.616294 -51.494597 
L 108.965684 -51.47796 
L 108.315074 -51.460561 
L 107.664463 -51.442284 
L 107.013853 -51.423034 
L 106.363243 -51.402738 
L 105.712633 -51.381343 
L 105.062022 -51.358812 
L 104.411412 -51.335129 
L 103.760802 -51.310291 
L 103.110191 -51.284312 
L 102.459581 -51.257218 
L 101.808971 -51.229047 
L 101.15836 -51.199849 
L 100.50775 -51.16968 
L 99.85714 -51.138608 
L 99.206529 -51.106706 
L 98.555919 -51.074052 
L 97.905309 -51.040729 
L 97.254698 -51.006825 
L 96.604088 -50.97243 
L 95.953478 -50.937636 
L 95.302868 -50.902535 
L 94.652257 -50.867223 
L 94.001647 -50.831793 
L 93.351037 -50.796338 
L 92.700426 -50.760953 
L 92.049816 -50.725727 
L 91.399206 -50.690752 
L 90.748595 -50.656116 
L 90.097985 -50.621904 
L 89.447375 -50.588201 
L 88.796764 -50.555088 
L 88.146154 -50.522645 
L 87.495544 -50.490948 
L 86.844934 -50.460071 
L 86.194323 -50.430086 
L 85.543713 -50.401062 
L 84.893103 -50.373066 
L 84.242492 -50.346161 
L 83.591882 -50.320411 
L 82.941272 -50.295873 
L 82.290661 -50.272608 
L 81.640051 -50.25067 
L 80.989441 -50.230114 
L 80.33883 -50.210996 
L 79.68822 -50.193368 
L 79.03761 -50.177285 
L 78.386999 -50.162801 
L 77.736389 -50.149975 
L 77.085779 -50.138867 
L 76.435169 -50.129547 
L 75.784558 -50.122092 
L 75.133948 -50.116598 
L 74.483338 -50.113182 
L 73.832727 -50.112 
z
" id="mfe5a096f6c" style="stroke:#000000;stroke-width:0.3;"/>
    </defs>
    <g clip-path="url(#pd38d8fa640)">
     <use style="fill:#ff0000;stroke:#000000;stroke-width:0.3;" x="0" xlink:href="#mfe5a096f6c" y="345.6"/>
    </g>
   </g>
   <g id="PolyCollection_2">
    <defs>
     <path d="M 73.832727 -50.112 
L 73.832727 -50.112 
L 74.483338 -50.113182 
L 75.133948 -50.116598 
L 75.784558 -50.122092 
L 76.435169 -50.129547 
L 77.085779 -50.138867 
L 77.736389 -50.149975 
L 78.386999 -50.162801 
L 79.03761 -50.177285 
L 79.68822 -50.193368 
L 80.33883 -50.210996 
L 80.989441 -50.230114 
L 81.640051 -50.25067 
L 82.290661 -50.272608 
L 82.941272 -50.295873 
L 83.591882 -50.320411 
L 84.242492 -50.346161 
L 84.893103 -50.373066 
L 85.543713 -50.401062 
L 86.194323 -50.430086 
L 86.844934 -50.460071 
L 87.495544 -50.490948 
L 88.146154 -50.522645 
L 88.796764 -50.555088 
L 89.447375 -50.588201 
L 90.097985 -50.621904 
L 90.748595 -50.656116 
L 91.399206 -50.690752 
L 92.049816 -50.725727 
L 92.700426 -50.760953 
L 93.351037 -50.796338 
L 94.001647 -50.831793 
L 94.652257 -50.867223 
L 95.302868 -50.902535 
L 95.953478 -50.937636 
L 96.604088 -50.97243 
L 97.254698 -51.006825 
L 97.905309 -51.040729 
L 98.555919 -51.074052 
L 99.206529 -51.106706 
L 99.85714 -51.138608 
L 100.50775 -51.16968 
L 101.15836 -51.199849 
L 101.808971 -51.229047 
L 102.459581 -51.257218 
L 103.110191 -51.284312 
L 103.760802 -51.310291 
L 104.411412 -51.335129 
L 105.062022 -51.358812 
L 105.712633 -51.381343 
L 106.363243 -51.402738 
L 107.013853 -51.423034 
L 107.664463 -51.442284 
L 108.315074 -51.460561 
L 108.965684 -51.47796 
L 109.616294 -51.494597 
L 110.266905 -51.510608 
L 110.917515 -51.526155 
L 111.568125 -51.541421 
L 112.218736 -51.556609 
L 112.869346 -51.571947 
L 113.519956 -51.587682 
L 114.170567 -51.60408 
L 114.821177 -51.621424 
L 115.471787 -51.640013 
L 116.122398 -51.660158 
L 116.773008 -51.682182 
L 117.423618 -51.706411 
L 118.074228 -51.733177 
L 118.724839 -51.762811 
L 119.375449 -51.79564 
L 120.026059 -51.831984 
L 120.67667 -51.87215 
L 121.32728 -51.916433 
L 121.97789 -51.965108 
L 122.628501 -52.018429 
L 123.279111 -52.076628 
L 123.929721 -52.139909 
L 124.580332 -52.20845 
L 125.230942 -52.282398 
L 125.881552 -52.361872 
L 126.532163 -52.446958 
L 127.182773 -52.537713 
L 127.833383 -52.634166 
L 128.483993 -52.736313 
L 129.134604 -52.844124 
L 129.785214 -52.957543 
L 130.435824 -53.076489 
L 131.086435 -53.200858 
L 131.737045 -53.330527 
L 132.387655 -53.465353 
L 133.038266 -53.605179 
L 133.688876 -53.749832 
L 134.339486 -53.899131 
L 134.990097 -54.052882 
L 135.640707 -54.210886 
L 136.291317 -54.372938 
L 136.941927 -54.538832 
L 137.592538 -54.708357 
L 138.243148 -54.881304 
L 138.893758 -55.057463 
L 139.544369 -55.236629 
L 140.194979 -55.418599 
L 140.845589 -55.603175 
L 141.4962 -55.790162 
L 142.14681 -55.979374 
L 142.79742 -56.170629 
L 143.448031 -56.363754 
L 144.098641 -56.55858 
L 144.749251 -56.75495 
L 145.399862 -56.952711 
L 146.050472 -57.15172 
L 146.701082 -57.351842 
L 147.351692 -57.552952 
L 148.002303 -57.754932 
L 148.652913 -57.957674 
L 149.303523 -58.161079 
L 149.954134 -58.365058 
L 150.604744 -58.569532 
L 151.255354 -58.774434 
L 151.905965 -58.979706 
L 152.556575 -59.185301 
L 153.207185 -59.391188 
L 153.857796 -59.597345 
L 154.508406 -59.803766 
L 155.159016 -60.01046 
L 155.809627 -60.217451 
L 156.460237 -60.424782 
L 157.110847 -60.632512 
L 157.761457 -60.840724 
L 158.412068 -61.049519 
L 159.062678 -61.259025 
L 159.713288 -61.469394 
L 160.363899 -61.680807 
L 161.014509 -61.893475 
L 161.665119 -62.107642 
L 162.31573 -62.32359 
L 162.96634 -62.541636 
L 163.61695 -62.762144 
L 164.267561 -62.985519 
L 164.918171 -63.212218 
L 165.568781 -63.442752 
L 166.219392 -63.677686 
L 166.870002 -63.91765 
L 167.520612 -64.163339 
L 168.171222 -64.41552 
L 168.821833 -64.675034 
L 169.472443 -64.942807 
L 170.123053 -65.219851 
L 170.773664 -65.507273 
L 171.424274 -65.806276 
L 172.074884 -66.118175 
L 172.725495 -66.444394 
L 173.376105 -66.786479 
L 174.026715 -67.146103 
L 174.677326 -67.525076 
L 175.327936 -67.925351 
L 175.978546 -68.349031 
L 176.629156 -68.79838 
L 177.279767 -69.275831 
L 177.930377 -69.783992 
L 178.580987 -70.325655 
L 179.231598 -70.903807 
L 179.882208 -71.521632 
L 180.532818 -72.182523 
L 181.183429 -72.890085 
L 181.834039 -73.64814 
L 182.484649 -74.460731 
L 183.13526 -75.332124 
L 183.78587 -76.266802 
L 184.43648 -77.26947 
L 185.087091 -78.345039 
L 185.737701 -79.498621 
L 186.388311 -80.735511 
L 187.038921 -82.061165 
L 187.689532 -83.481179 
L 188.340142 -85.001253 
L 188.990752 -86.627151 
L 189.641363 -88.364659 
L 190.291973 -90.219531 
L 190.942583 -92.197425 
L 191.593194 -94.303837 
L 192.243804 -96.544025 
L 192.894414 -98.922922 
L 193.545025 -101.445047 
L 194.195635 -104.114408 
L 194.846245 -106.934399 
L 195.496856 -109.907692 
L 196.147466 -113.036128 
L 196.798076 -116.320606 
L 197.448686 -119.760975 
L 198.099297 -123.355923 
L 198.749907 -127.102876 
L 199.400517 -130.997903 
L 200.051128 -135.03563 
L 200.701738 -139.209166 
L 201.352348 -143.510042 
L 202.002959 -147.928167 
L 202.653569 -152.451798 
L 203.304179 -157.06754 
L 203.95479 -161.760352 
L 204.6054 -166.513586 
L 205.25601 -171.309044 
L 205.906621 -176.127054 
L 206.557231 -180.946578 
L 207.207841 -185.745332 
L 207.858451 -190.499932 
L 208.509062 -195.186057 
L 209.159672 -199.778631 
L 209.810282 -204.252025 
L 210.460893 -208.580264 
L 211.111503 -212.737252 
L 211.762113 -216.697005 
L 212.412724 -220.433886 
L 213.063334 -223.922852 
L 213.713944 -227.139689 
L 214.364555 -230.061257 
L 215.015165 -232.665718 
L 215.665775 -234.932769 
L 216.316385 -236.843852 
L 216.966996 -238.382361 
L 217.617606 -239.533826 
L 218.268216 -240.286084 
L 218.918827 -240.629429 
L 219.569437 -240.556745 
L 220.220047 -240.063608 
L 220.870658 -239.148372 
L 221.521268 -237.81223 
L 222.171878 -236.059243 
L 222.822489 -233.896349 
L 223.473099 -231.333348 
L 224.123709 -228.382851 
L 224.77432 -225.060216 
L 225.42493 -221.383449 
L 226.07554 -217.373088 
L 226.72615 -213.052057 
L 227.376761 -208.445502 
L 228.027371 -203.580608 
L 228.677981 -198.486392 
L 229.328592 -193.193484 
L 229.979202 -187.733892 
L 230.629812 -182.14075 
L 231.280423 -176.44806 
L 231.931033 -170.690428 
L 232.581643 -164.902783 
L 233.232254 -159.120109 
L 233.882864 -153.377161 
L 234.533474 -147.708192 
L 235.184085 -142.146681 
L 235.834695 -136.725068 
L 236.485305 -131.474497 
L 237.135915 -126.424574 
L 237.786526 -121.603132 
L 238.437136 -117.036017 
L 239.087746 -112.746889 
L 239.738357 -108.757041 
L 240.388967 -105.08524 
L 241.039577 -101.747589 
L 241.690188 -98.757412 
L 242.340798 -96.125161 
L 242.991408 -93.85835 
L 243.642019 -91.961511 
L 244.292629 -90.436178 
L 244.943239 -89.280892 
L 245.59385 -88.491235 
L 246.24446 -88.059887 
L 246.89507 -87.976703 
L 247.54568 -88.228823 
L 248.196291 -88.800793 
L 248.846901 -89.674713 
L 249.497511 -90.830412 
L 250.148122 -92.245625 
L 250.798732 -93.896209 
L 251.449342 -95.756359 
L 252.099953 -97.798844 
L 252.750563 -99.995266 
L 253.401173 -102.316312 
L 254.051784 -104.732035 
L 254.702394 -107.212133 
L 255.353004 -109.726234 
L 256.003615 -112.244192 
L 256.654225 -114.736376 
L 257.304835 -117.173966 
L 257.955445 -119.529242 
L 258.606056 -121.775862 
L 259.256666 -123.88914 
L 259.907276 -125.846297 
L 260.557887 -127.626708 
L 261.208497 -129.212115 
L 261.859107 -130.586821 
L 262.509718 -131.73785 
L 263.160328 -132.655074 
L 263.810938 -133.3313 
L 264.461549 -133.762316 
L 265.112159 -133.946888 
L 265.762769 -133.886717 
L 266.413379 -133.586339 
L 267.06399 -133.052989 
L 267.7146 -132.296408 
L 268.36521 -131.328617 
L 269.015821 -130.16365 
L 269.666431 -128.817252 
L 270.317041 -127.306562 
L 270.967652 -125.649776 
L 271.618262 -123.865799 
L 272.268872 -121.97391 
L 272.919483 -119.993425 
L 273.570093 -117.943392 
L 274.220703 -115.842305 
L 274.871314 -113.707852 
L 275.521924 -111.5567 
L 276.172534 -109.404322 
L 276.823144 -107.264865 
L 277.473755 -105.151053 
L 278.124365 -103.074138 
L 278.774975 -101.043879 
L 279.425586 -99.068563 
L 280.076196 -97.155044 
L 280.726806 -95.308813 
L 281.377417 -93.534084 
L 282.028027 -91.833888 
L 282.678637 -90.210188 
L 283.329248 -88.663989 
L 283.979858 -87.195451 
L 284.630468 -85.804003 
L 285.281079 -84.488453 
L 285.931689 -83.247089 
L 286.582299 -82.077774 
L 287.232909 -80.978034 
L 287.88352 -79.945133 
L 288.53413 -78.976149 
L 289.18474 -78.068027 
L 289.835351 -77.217638 
L 290.485961 -76.421819 
L 291.136571 -75.677411 
L 291.787182 -74.981294 
L 292.437792 -74.330407 
L 293.088402 -73.721771 
L 293.739013 -73.152502 
L 294.389623 -72.619826 
L 295.040233 -72.121084 
L 295.690844 -71.65374 
L 296.341454 -71.215384 
L 296.992064 -70.803731 
L 297.642674 -70.416624 
L 298.293285 -70.052032 
L 298.943895 -69.708045 
L 299.594505 -69.382876 
L 300.245116 -69.074852 
L 300.895726 -68.782412 
L 301.546336 -68.504107 
L 302.196947 -68.238586 
L 302.847557 -67.9846 
L 303.498167 -67.740994 
L 304.148778 -67.506701 
L 304.799388 -67.28074 
L 305.449998 -67.062208 
L 306.100608 -66.850279 
L 306.751219 -66.644196 
L 307.401829 -66.44327 
L 308.052439 -66.246873 
L 308.70305 -66.054437 
L 309.35366 -65.865446 
L 310.00427 -65.679436 
L 310.654881 -65.49599 
L 311.305491 -65.314732 
L 311.956101 -65.135328 
L 312.606712 -64.957483 
L 313.257322 -64.780931 
L 313.907932 -64.605442 
L 314.558543 -64.430812 
L 315.209153 -64.256863 
L 315.859763 -64.083443 
L 316.510373 -63.910419 
L 317.160984 -63.73768 
L 317.811594 -63.565131 
L 318.462204 -63.392692 
L 319.112815 -63.2203 
L 319.763425 -63.047904 
L 320.414035 -62.875463 
L 321.064646 -62.702948 
L 321.715256 -62.530338 
L 322.365866 -62.35762 
L 323.016477 -62.184788 
L 323.667087 -62.011843 
L 324.317697 -61.83879 
L 324.968308 -61.66564 
L 325.618918 -61.492408 
L 326.269528 -61.319111 
L 326.920138 -61.14577 
L 327.570749 -60.972408 
L 328.221359 -60.799051 
L 328.871969 -60.625726 
L 329.52258 -60.452462 
L 330.17319 -60.279288 
L 330.8238 -60.106234 
L 331.474411 -59.933331 
L 332.125021 -59.760612 
L 332.775631 -59.588108 
L 333.426242 -59.41585 
L 334.076852 -59.243872 
L 334.727462 -59.072205 
L 335.378073 -58.90088 
L 336.028683 -58.729929 
L 336.679293 -58.559383 
L 337.329903 -58.389272 
L 337.980514 -58.219628 
L 338.631124 -58.050478 
L 339.281734 -57.881853 
L 339.932345 -57.713781 
L 340.582955 -57.546289 
L 341.233565 -57.379404 
L 341.884176 -57.213153 
L 342.534786 -57.047562 
L 343.185396 -56.882655 
L 343.836007 -56.718456 
L 344.486617 -56.554988 
L 345.137227 -56.392275 
L 345.787837 -56.230337 
L 346.438448 -56.069197 
L 347.089058 -55.908873 
L 347.739668 -55.749385 
L 348.390279 -55.590753 
L 349.040889 -55.432995 
L 349.691499 -55.276127 
L 350.34211 -55.120168 
L 350.99272 -54.965135 
L 351.64333 -54.811044 
L 352.293941 -54.657912 
L 352.944551 -54.505757 
L 353.595161 -54.354599 
L 354.245772 -54.204456 
L 354.896382 -54.055351 
L 355.546992 -53.907308 
L 356.197602 -53.760358 
L 356.848213 -53.614532 
L 357.498823 -53.469872 
L 358.149433 -53.326427 
L 358.800044 -53.184256 
L 359.450654 -53.043431 
L 360.101264 -52.904043 
L 360.751875 -52.7662 
L 361.402485 -52.630038 
L 362.053095 -52.495723 
L 362.703706 -52.363456 
L 363.354316 -52.233484 
L 364.004926 -52.106103 
L 364.655537 -51.981669 
L 365.306147 -51.860601 
L 365.956757 -51.743392 
L 366.607367 -51.630607 
L 367.257978 -51.522885 
L 367.908588 -51.42093 
L 368.559198 -51.325491 
L 369.209809 -51.237333 
L 369.860419 -51.157195 
L 370.511029 -51.08573 
L 371.16164 -51.023434 
L 371.81225 -50.970575 
L 372.46286 -50.927117 
L 373.113471 -50.89267 
L 373.764081 -50.86647 
L 374.414691 -50.847394 
L 375.065302 -50.83403 
L 375.715912 -50.82478 
L 376.366522 -50.817986 
L 377.017132 -50.81206 
L 377.667743 -50.805599 
L 378.318353 -50.797464 
L 378.968963 -50.786819 
L 379.619574 -50.773138 
L 380.270184 -50.756178 
L 380.920794 -50.735933 
L 381.571405 -50.712585 
L 382.222015 -50.686447 
L 382.872625 -50.657918 
L 383.523236 -50.627442 
L 384.173846 -50.595476 
L 384.824456 -50.562471 
L 385.475066 -50.528857 
L 386.125677 -50.49503 
L 386.776287 -50.461351 
L 387.426897 -50.428146 
L 388.077508 -50.3957 
L 388.728118 -50.364266 
L 389.378728 -50.334066 
L 390.029339 -50.305289 
L 390.679949 -50.278102 
L 391.330559 -50.252646 
L 391.98117 -50.229044 
L 392.63178 -50.207402 
L 393.28239 -50.187808 
L 393.933001 -50.17034 
L 394.583611 -50.155062 
L 395.234221 -50.142031 
L 395.884831 -50.131294 
L 396.535442 -50.122891 
L 397.186052 -50.116856 
L 397.836662 -50.113217 
L 398.487273 -50.112 
L 398.487273 -50.112 
L 398.487273 -50.112 
L 397.836662 -50.578006 
L 397.186052 -51.002651 
L 396.535442 -51.386944 
L 395.884831 -51.731969 
L 395.234221 -52.038884 
L 394.583611 -52.308923 
L 393.933001 -52.543383 
L 393.28239 -52.743633 
L 392.63178 -52.911102 
L 391.98117 -53.047283 
L 391.330559 -53.153723 
L 390.679949 -53.232026 
L 390.029339 -53.283847 
L 389.378728 -53.310888 
L 388.728118 -53.314898 
L 388.077508 -53.297665 
L 387.426897 -53.261016 
L 386.776287 -53.206811 
L 386.125677 -53.136944 
L 385.475066 -53.053331 
L 384.824456 -52.957916 
L 384.173846 -52.852661 
L 383.523236 -52.739544 
L 382.872625 -52.620555 
L 382.222015 -52.497694 
L 381.571405 -52.372964 
L 380.920794 -52.24837 
L 380.270184 -52.125916 
L 379.619574 -52.007597 
L 378.968963 -51.8954 
L 378.318353 -51.791297 
L 377.667743 -51.697245 
L 377.017132 -51.615176 
L 376.366522 -51.547003 
L 375.715912 -51.494606 
L 375.065302 -51.459837 
L 374.414691 -51.444513 
L 373.764081 -51.450411 
L 373.113471 -51.479269 
L 372.46286 -51.532778 
L 371.81225 -51.612585 
L 371.16164 -51.720283 
L 370.511029 -51.857413 
L 369.860419 -52.025461 
L 369.209809 -52.225852 
L 368.559198 -52.459951 
L 367.908588 -52.729058 
L 367.257978 -53.034406 
L 366.607367 -53.377162 
L 365.956757 -53.758419 
L 365.306147 -54.179198 
L 364.655537 -54.640447 
L 364.004926 -55.143035 
L 363.354316 -55.687755 
L 362.703706 -56.275318 
L 362.053095 -56.906356 
L 361.402485 -57.581418 
L 360.751875 -58.300968 
L 360.101264 -59.065388 
L 359.450654 -59.874974 
L 358.800044 -60.729936 
L 358.149433 -61.630397 
L 357.498823 -62.576394 
L 356.848213 -63.567877 
L 356.197602 -64.604709 
L 355.546992 -65.686665 
L 354.896382 -66.813435 
L 354.245772 -67.98462 
L 353.595161 -69.199737 
L 352.944551 -70.458217 
L 352.293941 -71.759406 
L 351.64333 -73.102567 
L 350.99272 -74.486879 
L 350.34211 -75.91144 
L 349.691499 -77.375269 
L 349.040889 -78.877306 
L 348.390279 -80.416411 
L 347.739668 -81.991373 
L 347.089058 -83.600903 
L 346.438448 -85.243643 
L 345.787837 -86.918165 
L 345.137227 -88.622972 
L 344.486617 -90.356504 
L 343.836007 -92.117137 
L 343.185396 -93.903186 
L 342.534786 -95.712909 
L 341.884176 -97.54451 
L 341.233565 -99.396139 
L 340.582955 -101.265898 
L 339.932345 -103.151841 
L 339.281734 -105.051982 
L 338.631124 -106.964292 
L 337.980514 -108.886706 
L 337.329903 -110.817124 
L 336.679293 -112.75342 
L 336.028683 -114.693436 
L 335.378073 -116.634994 
L 334.727462 -118.575897 
L 334.076852 -120.51393 
L 333.426242 -122.446866 
L 332.775631 -124.372472 
L 332.125021 -126.288509 
L 331.474411 -128.192737 
L 330.8238 -130.082921 
L 330.17319 -131.956834 
L 329.52258 -133.81226 
L 328.871969 -135.647 
L 328.221359 -137.458876 
L 327.570749 -139.245735 
L 326.920138 -141.005455 
L 326.269528 -142.735949 
L 325.618918 -144.435168 
L 324.968308 -146.101109 
L 324.317697 -147.731819 
L 323.667087 -149.3254 
L 323.016477 -150.880014 
L 322.365866 -152.393889 
L 321.715256 -153.865327 
L 321.064646 -155.292705 
L 320.414035 -156.674485 
L 319.763425 -158.009219 
L 319.112815 -159.295553 
L 318.462204 -160.532239 
L 317.811594 -161.718135 
L 317.160984 -162.852216 
L 316.510373 -163.933578 
L 315.859763 -164.961446 
L 315.209153 -165.935181 
L 314.558543 -166.854285 
L 313.907932 -167.71841 
L 313.257322 -168.52736 
L 312.606712 -169.281104 
L 311.956101 -169.979774 
L 311.305491 -170.623677 
L 310.654881 -171.213296 
L 310.00427 -171.749296 
L 309.35366 -172.232529 
L 308.70305 -172.664035 
L 308.052439 -173.045046 
L 307.401829 -173.376989 
L 306.751219 -173.66148 
L 306.100608 -173.900333 
L 305.449998 -174.095548 
L 304.799388 -174.249317 
L 304.148778 -174.36401 
L 303.498167 -174.442176 
L 302.847557 -174.48653 
L 302.196947 -174.499944 
L 301.546336 -174.485438 
L 300.895726 -174.446161 
L 300.245116 -174.385378 
L 299.594505 -174.30645 
L 298.943895 -174.212817 
L 298.293285 -174.107973 
L 297.642674 -173.99544 
L 296.992064 -173.878746 
L 296.341454 -173.761392 
L 295.690844 -173.646825 
L 295.040233 -173.538403 
L 294.389623 -173.439365 
L 293.739013 -173.352793 
L 293.088402 -173.281576 
L 292.437792 -173.228377 
L 291.787182 -173.195592 
L 291.136571 -173.185312 
L 290.485961 -173.19929 
L 289.835351 -173.238903 
L 289.18474 -173.305113 
L 288.53413 -173.398439 
L 287.88352 -173.518921 
L 287.232909 -173.666094 
L 286.582299 -173.838958 
L 285.931689 -174.035959 
L 285.281079 -174.254969 
L 284.630468 -174.493273 
L 283.979858 -174.747558 
L 283.329248 -175.01391 
L 282.678637 -175.28782 
L 282.028027 -175.564187 
L 281.377417 -175.837339 
L 280.726806 -176.101053 
L 280.076196 -176.348581 
L 279.425586 -176.572695 
L 278.774975 -176.765722 
L 278.124365 -176.919604 
L 277.473755 -177.025951 
L 276.823144 -177.07611 
L 276.172534 -177.061237 
L 275.521924 -176.972377 
L 274.871314 -176.800551 
L 274.220703 -176.536843 
L 273.570093 -176.1725 
L 272.919483 -175.699031 
L 272.268872 -175.108309 
L 271.618262 -174.392677 
L 270.967652 -173.545057 
L 270.317041 -172.559053 
L 269.666431 -171.429063 
L 269.015821 -170.150377 
L 268.36521 -168.719283 
L 267.7146 -167.133162 
L 267.06399 -165.390575 
L 266.413379 -163.491356 
L 265.762769 -161.436676 
L 265.112159 -159.229119 
L 264.461549 -156.872731 
L 263.810938 -154.37307 
L 263.160328 -151.737231 
L 262.509718 -148.973871 
L 261.859107 -146.093206 
L 261.208497 -143.107008 
L 260.557887 -140.028572 
L 259.907276 -136.872679 
L 259.256666 -133.655534 
L 258.606056 -130.394699 
L 257.955445 -127.108998 
L 257.304835 -123.818415 
L 256.654225 -120.543976 
L 256.003615 -117.307613 
L 255.353004 -114.132021 
L 254.702394 -111.040499 
L 254.051784 -108.056776 
L 253.401173 -105.204839 
L 252.750563 -102.50874 
L 252.099953 -99.992408 
L 251.449342 -97.679445 
L 250.798732 -95.592931 
L 250.148122 -93.755218 
L 249.497511 -92.187733 
L 248.846901 -90.910776 
L 248.196291 -89.943332 
L 247.54568 -89.302884 
L 246.89507 -89.005238 
L 246.24446 -89.064354 
L 245.59385 -89.492199 
L 244.943239 -90.298606 
L 244.292629 -91.491152 
L 243.642019 -93.075054 
L 242.991408 -95.053087 
L 242.340798 -97.425512 
L 241.690188 -100.190035 
L 241.039577 -103.341783 
L 240.388967 -106.873302 
L 239.738357 -110.774576 
L 239.087746 -115.03307 
L 238.437136 -119.633796 
L 237.786526 -124.559395 
L 237.135915 -129.790246 
L 236.485305 -135.304588 
L 235.834695 -141.07867 
L 235.184085 -147.086907 
L 234.533474 -153.30206 
L 233.882864 -159.695429 
L 233.232254 -166.237052 
L 232.581643 -172.895925 
L 231.931033 -179.64022 
L 231.280423 -186.437516 
L 230.629812 -193.255032 
L 229.979202 -200.059859 
L 229.328592 -206.819199 
L 228.677981 -213.500592 
L 228.027371 -220.072147 
L 227.376761 -226.50276 
L 226.72615 -232.762329 
L 226.07554 -238.821951 
L 225.42493 -244.654115 
L 224.77432 -250.232875 
L 224.123709 -255.534012 
L 223.473099 -260.535177 
L 222.822489 -265.216015 
L 222.171878 -269.558275 
L 221.521268 -273.545901 
L 220.870658 -277.165094 
L 220.220047 -280.404369 
L 219.569437 -283.254582 
L 218.918827 -285.708941 
L 218.268216 -287.762994 
L 217.617606 -289.414607 
L 216.966996 -290.663916 
L 216.316385 -291.513263 
L 215.665775 -291.967121 
L 215.015165 -292.032 
L 214.364555 -291.716339 
L 213.713944 -291.03039 
L 213.063334 -289.986087 
L 212.412724 -288.596909 
L 211.762113 -286.877732 
L 211.111503 -284.84468 
L 210.460893 -282.514966 
L 209.810282 -279.906738 
L 209.159672 -277.038912 
L 208.509062 -273.931016 
L 207.858451 -270.603034 
L 207.207841 -267.075245 
L 206.557231 -263.368077 
L 205.906621 -259.501961 
L 205.25601 -255.49719 
L 204.6054 -251.37379 
L 203.95479 -247.151398 
L 203.304179 -242.849144 
L 202.653569 -238.485554 
L 202.002959 -234.078451 
L 201.352348 -229.644872 
L 200.701738 -225.200999 
L 200.051128 -220.762094 
L 199.400517 -216.342448 
L 198.749907 -211.955345 
L 198.099297 -207.613025 
L 197.448686 -203.326672 
L 196.798076 -199.106397 
L 196.147466 -194.961244 
L 195.496856 -190.89919 
L 194.846245 -186.927169 
L 194.195635 -183.05109 
L 193.545025 -179.275868 
L 192.894414 -175.605461 
L 192.243804 -172.042914 
L 191.593194 -168.590398 
L 190.942583 -165.249266 
L 190.291973 -162.020107 
L 189.641363 -158.902793 
L 188.990752 -155.896547 
L 188.340142 -152.999993 
L 187.689532 -150.211219 
L 187.038921 -147.527836 
L 186.388311 -144.947032 
L 185.737701 -142.465633 
L 185.087091 -140.080158 
L 184.43648 -137.786871 
L 183.78587 -135.581833 
L 183.13526 -133.46095 
L 182.484649 -131.42002 
L 181.834039 -129.454775 
L 181.183429 -127.560922 
L 180.532818 -125.734178 
L 179.882208 -123.970305 
L 179.231598 -122.265137 
L 178.580987 -120.614609 
L 177.930377 -119.014781 
L 177.279767 -117.461856 
L 176.629156 -115.952197 
L 175.978546 -114.482345 
L 175.327936 -113.049024 
L 174.677326 -111.649156 
L 174.026715 -110.279863 
L 173.376105 -108.938472 
L 172.725495 -107.622518 
L 172.074884 -106.329742 
L 171.424274 -105.05809 
L 170.773664 -103.805709 
L 170.123053 -102.570945 
L 169.472443 -101.352332 
L 168.821833 -100.148587 
L 168.171222 -98.958606 
L 167.520612 -97.78145 
L 166.870002 -96.616337 
L 166.219392 -95.462637 
L 165.568781 -94.319856 
L 164.918171 -93.187629 
L 164.267561 -92.065712 
L 163.61695 -90.953968 
L 162.96634 -89.852359 
L 162.31573 -88.760939 
L 161.665119 -87.679837 
L 161.014509 -86.609259 
L 160.363899 -85.549469 
L 159.713288 -84.500785 
L 159.062678 -83.463572 
L 158.412068 -82.438234 
L 157.761457 -81.425203 
L 157.110847 -80.424939 
L 156.460237 -79.437916 
L 155.809627 -78.464623 
L 155.159016 -77.505556 
L 154.508406 -76.561211 
L 153.857796 -75.632084 
L 153.207185 -74.718661 
L 152.556575 -73.821421 
L 151.905965 -72.940826 
L 151.255354 -72.077323 
L 150.604744 -71.231338 
L 149.954134 -70.403277 
L 149.303523 -69.59352 
L 148.652913 -68.802422 
L 148.002303 -68.03031 
L 147.351692 -67.277483 
L 146.701082 -66.544209 
L 146.050472 -65.830726 
L 145.399862 -65.13724 
L 144.749251 -64.463925 
L 144.098641 -63.810924 
L 143.448031 -63.178347 
L 142.79742 -62.566269 
L 142.14681 -61.974735 
L 141.4962 -61.403758 
L 140.845589 -60.853316 
L 140.194979 -60.323359 
L 139.544369 -59.813804 
L 138.893758 -59.324537 
L 138.243148 -58.855415 
L 137.592538 -58.406265 
L 136.941927 -57.976886 
L 136.291317 -57.567051 
L 135.640707 -57.176503 
L 134.990097 -56.804963 
L 134.339486 -56.452124 
L 133.688876 -56.117657 
L 133.038266 -55.801211 
L 132.387655 -55.502412 
L 131.737045 -55.220867 
L 131.086435 -54.956163 
L 130.435824 -54.707869 
L 129.785214 -54.475539 
L 129.134604 -54.258709 
L 128.483993 -54.056903 
L 127.833383 -53.869629 
L 127.182773 -53.696386 
L 126.532163 -53.536663 
L 125.881552 -53.389936 
L 125.230942 -53.255677 
L 124.580332 -53.13335 
L 123.929721 -53.022412 
L 123.279111 -52.922319 
L 122.628501 -52.832521 
L 121.97789 -52.752468 
L 121.32728 -52.68161 
L 120.67667 -52.619396 
L 120.026059 -52.565278 
L 119.375449 -52.518712 
L 118.724839 -52.479156 
L 118.074228 -52.446075 
L 117.423618 -52.418941 
L 116.773008 -52.397231 
L 116.122398 -52.380433 
L 115.471787 -52.368043 
L 114.821177 -52.359568 
L 114.170567 -52.354526 
L 113.519956 -52.352448 
L 112.869346 -52.352877 
L 112.218736 -52.355372 
L 111.568125 -52.359503 
L 110.917515 -52.364859 
L 110.266905 -52.371042 
L 109.616294 -52.377673 
L 108.965684 -52.384389 
L 108.315074 -52.390846 
L 107.664463 -52.396715 
L 107.013853 -52.40169 
L 106.363243 -52.405481 
L 105.712633 -52.407818 
L 105.062022 -52.408451 
L 104.411412 -52.40715 
L 103.760802 -52.403705 
L 103.110191 -52.397926 
L 102.459581 -52.389643 
L 101.808971 -52.378706 
L 101.15836 -52.364988 
L 100.50775 -52.348379 
L 99.85714 -52.32879 
L 99.206529 -52.306152 
L 98.555919 -52.280418 
L 97.905309 -52.251557 
L 97.254698 -52.219559 
L 96.604088 -52.184434 
L 95.953478 -52.146207 
L 95.302868 -52.104926 
L 94.652257 -52.060652 
L 94.001647 -52.013466 
L 93.351037 -51.963464 
L 92.700426 -51.910759 
L 92.049816 -51.855478 
L 91.399206 -51.797765 
L 90.748595 -51.737777 
L 90.097985 -51.675683 
L 89.447375 -51.611665 
L 88.796764 -51.54592 
L 88.146154 -51.478651 
L 87.495544 -51.410074 
L 86.844934 -51.340415 
L 86.194323 -51.269908 
L 85.543713 -51.198793 
L 84.893103 -51.127319 
L 84.242492 -51.055739 
L 83.591882 -50.984313 
L 82.941272 -50.913304 
L 82.290661 -50.842977 
L 81.640051 -50.773602 
L 80.989441 -50.705447 
L 80.33883 -50.638783 
L 79.68822 -50.57388 
L 79.03761 -50.511005 
L 78.386999 -50.450424 
L 77.736389 -50.3924 
L 77.085779 -50.337191 
L 76.435169 -50.285049 
L 75.784558 -50.236222 
L 75.133948 -50.190952 
L 74.483338 -50.149469 
L 73.832727 -50.112 
z
" id="m7dba8cfaf8" style="stroke:#000000;stroke-width:0.3;"/>
    </defs>
    <g clip-path="url(#pd38d8fa640)">
     <use style="fill:#0000ff;stroke:#000000;stroke-width:0.3;" x="0" xlink:href="#m7dba8cfaf8" y="345.6"/>
    </g>
   </g>
   <g id="line2d_27">
    <path clip-path="url(#pd38d8fa640)" d="M 73.832727 295.488 
L 79.03761 295.088995 
L 97.905309 293.348443 
L 103.760802 293.196295 
L 120.026059 293.034722 
L 123.279111 292.677681 
L 125.881552 292.210064 
L 128.483993 291.543097 
L 131.086435 290.643837 
L 133.688876 289.482343 
L 136.291317 288.032949 
L 138.893758 286.275463 
L 141.4962 284.196242 
L 144.098641 281.789076 
L 146.701082 279.055791 
L 149.303523 276.00648 
L 151.905965 272.659174 
L 155.159016 268.094444 
L 158.412068 263.161766 
L 162.31573 256.839061 
L 166.870002 248.983663 
L 170.773664 241.794291 
L 174.026715 235.320137 
L 176.629156 229.647803 
L 179.231598 223.334863 
L 181.183429 218.039078 
L 183.13526 212.13905 
L 185.087091 205.519842 
L 187.038921 198.072164 
L 188.990752 189.703453 
L 190.942583 180.350734 
L 192.894414 169.994539 
L 195.496856 154.70081 
L 198.099297 137.986975 
L 206.557231 82.231923 
L 208.509062 71.668984 
L 209.810282 65.693262 
L 211.111503 60.75532 
L 212.412724 57.003091 
L 213.063334 55.613913 
L 213.713944 54.56961 
L 214.364555 53.883661 
L 215.015165 53.568 
L 215.665775 53.632879 
L 216.316385 54.086737 
L 216.966996 54.936084 
L 217.617606 56.185393 
L 218.268216 57.837006 
L 218.918827 59.891059 
L 220.220047 65.195631 
L 221.521268 72.054099 
L 222.822489 80.383985 
L 224.123709 90.065988 
L 226.07554 106.778049 
L 228.027371 125.527853 
L 231.931033 165.95978 
L 234.533474 192.29794 
L 236.485305 210.295412 
L 238.437136 225.966204 
L 239.738357 234.825424 
L 241.039577 242.258217 
L 242.340798 248.174488 
L 243.642019 252.524946 
L 244.292629 254.108848 
L 244.943239 255.301394 
L 245.59385 256.107801 
L 246.24446 256.535646 
L 246.89507 256.594762 
L 247.54568 256.297116 
L 248.196291 255.656668 
L 248.846901 254.689224 
L 249.497511 253.412267 
L 250.798732 250.007069 
L 252.099953 245.607592 
L 253.401173 240.395161 
L 255.353004 231.467979 
L 263.160328 193.862769 
L 265.112159 186.370881 
L 266.413379 182.108644 
L 267.7146 178.466838 
L 269.015821 175.449623 
L 270.317041 173.040947 
L 271.618262 171.207323 
L 272.919483 169.900969 
L 274.220703 169.063157 
L 275.521924 168.627623 
L 276.823144 168.52389 
L 278.124365 168.680396 
L 280.076196 169.251419 
L 283.979858 170.852442 
L 286.582299 171.761042 
L 288.53413 172.201561 
L 290.485961 172.40071 
L 292.437792 172.371623 
L 295.040233 172.061597 
L 300.895726 171.153839 
L 302.847557 171.11347 
L 304.799388 171.350683 
L 306.100608 171.699667 
L 307.401829 172.223011 
L 308.70305 172.935965 
L 310.00427 173.850704 
L 311.305491 174.976323 
L 312.606712 176.318896 
L 314.558543 178.745715 
L 316.510373 181.666422 
L 318.462204 185.067761 
L 320.414035 188.925515 
L 322.365866 193.206111 
L 324.968308 199.498891 
L 327.570749 206.354265 
L 330.8238 215.517079 
L 336.679293 232.84658 
L 341.884176 248.05549 
L 345.137227 256.977028 
L 347.739668 263.608627 
L 350.34211 269.68856 
L 352.944551 275.141783 
L 354.896382 278.786565 
L 356.848213 282.032123 
L 358.800044 284.870064 
L 360.751875 287.299032 
L 362.703706 289.324682 
L 364.655537 290.959553 
L 366.607367 292.222838 
L 368.559198 293.140049 
L 370.511029 293.742587 
L 372.46286 294.067222 
L 374.414691 294.155487 
L 377.017132 293.984824 
L 380.270184 293.474084 
L 386.125677 292.463056 
L 388.728118 292.285102 
L 390.679949 292.367974 
L 392.63178 292.688898 
L 394.583611 293.291077 
L 396.535442 294.213056 
L 398.487273 295.488 
L 398.487273 295.488 
" style="fill:none;stroke:#000000;stroke-linecap:round;stroke-width:1.75;"/>
   </g>
  </g>
 </g>
 <defs>
  <clipPath id="pd38d8fa640">
   <rect height="266.112" width="357.12" x="57.6" y="41.472"/>
  </clipPath>
 </defs>
</svg>
