<?xml version="1.0" encoding="utf-8" standalone="no"?>
<!DOCTYPE svg PUBLIC "-//W3C//DTD SVG 1.1//EN"
  "http://www.w3.org/Graphics/SVG/1.1/DTD/svg11.dtd">
<!-- Created with matplotlib (http://matplotlib.org/) -->
<svg height="345.6pt" version="1.1" viewBox="0 0 460.8 345.6" width="460.8pt" xmlns="http://www.w3.org/2000/svg" xmlns:xlink="http://www.w3.org/1999/xlink">
 <defs>
  <style type="text/css">
*{stroke-linecap:butt;stroke-linejoin:round;}
  </style>
 </defs>
 <g id="figure_1">
  <g id="patch_1">
   <path d="M 0 345.6 
L 460.8 345.6 
L 460.8 0 
L 0 0 
z
" style="fill:#ffffff;"/>
  </g>
  <g id="axes_1">
   <g id="patch_2">
    <path d="M 57.6 307.584 
L 414.72 307.584 
L 414.72 41.472 
L 57.6 41.472 
z
" style="fill:#eaeaf2;"/>
   </g>
   <g id="matplotlib.axis_1">
    <g id="xtick_1">
     <g id="line2d_1">
      <path clip-path="url(#pd9270b2c3d)" d="M 73.832727 307.584 
L 73.832727 41.472 
" style="fill:none;stroke:#ffffff;stroke-linecap:round;"/>
     </g>
     <g id="line2d_2"/>
     <g id="text_1">
      <!-- 0.0 -->
      <defs>
       <path d="M 4.15625 35.296875 
Q 4.15625 48 6.765625 55.734375 
Q 9.375 63.484375 14.515625 67.671875 
Q 19.671875 71.875 27.484375 71.875 
Q 33.25 71.875 37.59375 69.546875 
Q 41.9375 67.234375 44.765625 62.859375 
Q 47.609375 58.5 49.21875 52.21875 
Q 50.828125 45.953125 50.828125 35.296875 
Q 50.828125 22.703125 48.234375 14.96875 
Q 45.65625 7.234375 40.5 3 
Q 35.359375 -1.21875 27.484375 -1.21875 
Q 17.140625 -1.21875 11.234375 6.203125 
Q 4.15625 15.140625 4.15625 35.296875 
z
M 13.1875 35.296875 
Q 13.1875 17.671875 17.3125 11.828125 
Q 21.4375 6 27.484375 6 
Q 33.546875 6 37.671875 11.859375 
Q 41.796875 17.71875 41.796875 35.296875 
Q 41.796875 52.984375 37.671875 58.78125 
Q 33.546875 64.59375 27.390625 64.59375 
Q 21.34375 64.59375 17.71875 59.46875 
Q 13.1875 52.9375 13.1875 35.296875 
z
" id="ArialMT-30"/>
       <path d="M 9.078125 0 
L 9.078125 10.015625 
L 19.09375 10.015625 
L 19.09375 0 
z
" id="ArialMT-2e"/>
      </defs>
      <g style="fill:#262626;" transform="translate(66.882727 321.741812)scale(0.1 -0.1)">
       <use xlink:href="#ArialMT-30"/>
       <use x="55.615234" xlink:href="#ArialMT-2e"/>
       <use x="83.398438" xlink:href="#ArialMT-30"/>
      </g>
     </g>
    </g>
    <g id="xtick_2">
     <g id="line2d_3">
      <path clip-path="url(#pd9270b2c3d)" d="M 125.503103 307.584 
L 125.503103 41.472 
" style="fill:none;stroke:#ffffff;stroke-linecap:round;"/>
     </g>
     <g id="line2d_4"/>
     <g id="text_2">
      <!-- 0.5 -->
      <defs>
       <path d="M 4.15625 18.75 
L 13.375 19.53125 
Q 14.40625 12.796875 18.140625 9.390625 
Q 21.875 6 27.15625 6 
Q 33.5 6 37.890625 10.78125 
Q 42.28125 15.578125 42.28125 23.484375 
Q 42.28125 31 38.0625 35.34375 
Q 33.84375 39.703125 27 39.703125 
Q 22.75 39.703125 19.328125 37.765625 
Q 15.921875 35.84375 13.96875 32.765625 
L 5.71875 33.84375 
L 12.640625 70.609375 
L 48.25 70.609375 
L 48.25 62.203125 
L 19.671875 62.203125 
L 15.828125 42.96875 
Q 22.265625 47.46875 29.34375 47.46875 
Q 38.71875 47.46875 45.15625 40.96875 
Q 51.609375 34.46875 51.609375 24.265625 
Q 51.609375 14.546875 45.953125 7.46875 
Q 39.0625 -1.21875 27.15625 -1.21875 
Q 17.390625 -1.21875 11.203125 4.25 
Q 5.03125 9.71875 4.15625 18.75 
z
" id="ArialMT-35"/>
      </defs>
      <g style="fill:#262626;" transform="translate(118.553103 321.741812)scale(0.1 -0.1)">
       <use xlink:href="#ArialMT-30"/>
       <use x="55.615234" xlink:href="#ArialMT-2e"/>
       <use x="83.398438" xlink:href="#ArialMT-35"/>
      </g>
     </g>
    </g>
    <g id="xtick_3">
     <g id="line2d_5">
      <path clip-path="url(#pd9270b2c3d)" d="M 177.173479 307.584 
L 177.173479 41.472 
" style="fill:none;stroke:#ffffff;stroke-linecap:round;"/>
     </g>
     <g id="line2d_6"/>
     <g id="text_3">
      <!-- 1.0 -->
      <defs>
       <path d="M 37.25 0 
L 28.46875 0 
L 28.46875 56 
Q 25.296875 52.984375 20.140625 49.953125 
Q 14.984375 46.921875 10.890625 45.40625 
L 10.890625 53.90625 
Q 18.265625 57.375 23.78125 62.296875 
Q 29.296875 67.234375 31.59375 71.875 
L 37.25 71.875 
z
" id="ArialMT-31"/>
      </defs>
      <g style="fill:#262626;" transform="translate(170.223479 321.741812)scale(0.1 -0.1)">
       <use xlink:href="#ArialMT-31"/>
       <use x="55.615234" xlink:href="#ArialMT-2e"/>
       <use x="83.398438" xlink:href="#ArialMT-30"/>
      </g>
     </g>
    </g>
    <g id="xtick_4">
     <g id="line2d_7">
      <path clip-path="url(#pd9270b2c3d)" d="M 228.843854 307.584 
L 228.843854 41.472 
" style="fill:none;stroke:#ffffff;stroke-linecap:round;"/>
     </g>
     <g id="line2d_8"/>
     <g id="text_4">
      <!-- 1.5 -->
      <g style="fill:#262626;" transform="translate(221.893854 321.741812)scale(0.1 -0.1)">
       <use xlink:href="#ArialMT-31"/>
       <use x="55.615234" xlink:href="#ArialMT-2e"/>
       <use x="83.398438" xlink:href="#ArialMT-35"/>
      </g>
     </g>
    </g>
    <g id="xtick_5">
     <g id="line2d_9">
      <path clip-path="url(#pd9270b2c3d)" d="M 280.51423 307.584 
L 280.51423 41.472 
" style="fill:none;stroke:#ffffff;stroke-linecap:round;"/>
     </g>
     <g id="line2d_10"/>
     <g id="text_5">
      <!-- 2.0 -->
      <defs>
       <path d="M 50.34375 8.453125 
L 50.34375 0 
L 3.03125 0 
Q 2.9375 3.171875 4.046875 6.109375 
Q 5.859375 10.9375 9.828125 15.625 
Q 13.8125 20.3125 21.34375 26.46875 
Q 33.015625 36.03125 37.109375 41.625 
Q 41.21875 47.21875 41.21875 52.203125 
Q 41.21875 57.421875 37.46875 61 
Q 33.734375 64.59375 27.734375 64.59375 
Q 21.390625 64.59375 17.578125 60.78125 
Q 13.765625 56.984375 13.71875 50.25 
L 4.6875 51.171875 
Q 5.609375 61.28125 11.65625 66.578125 
Q 17.71875 71.875 27.9375 71.875 
Q 38.234375 71.875 44.234375 66.15625 
Q 50.25 60.453125 50.25 52 
Q 50.25 47.703125 48.484375 43.546875 
Q 46.734375 39.40625 42.65625 34.8125 
Q 38.578125 30.21875 29.109375 22.21875 
Q 21.1875 15.578125 18.9375 13.203125 
Q 16.703125 10.84375 15.234375 8.453125 
z
" id="ArialMT-32"/>
      </defs>
      <g style="fill:#262626;" transform="translate(273.56423 321.741812)scale(0.1 -0.1)">
       <use xlink:href="#ArialMT-32"/>
       <use x="55.615234" xlink:href="#ArialMT-2e"/>
       <use x="83.398438" xlink:href="#ArialMT-30"/>
      </g>
     </g>
    </g>
    <g id="xtick_6">
     <g id="line2d_11">
      <path clip-path="url(#pd9270b2c3d)" d="M 332.184606 307.584 
L 332.184606 41.472 
" style="fill:none;stroke:#ffffff;stroke-linecap:round;"/>
     </g>
     <g id="line2d_12"/>
     <g id="text_6">
      <!-- 2.5 -->
      <g style="fill:#262626;" transform="translate(325.234606 321.741812)scale(0.1 -0.1)">
       <use xlink:href="#ArialMT-32"/>
       <use x="55.615234" xlink:href="#ArialMT-2e"/>
       <use x="83.398438" xlink:href="#ArialMT-35"/>
      </g>
     </g>
    </g>
    <g id="xtick_7">
     <g id="line2d_13">
      <path clip-path="url(#pd9270b2c3d)" d="M 383.854982 307.584 
L 383.854982 41.472 
" style="fill:none;stroke:#ffffff;stroke-linecap:round;"/>
     </g>
     <g id="line2d_14"/>
     <g id="text_7">
      <!-- 3.0 -->
      <defs>
       <path d="M 4.203125 18.890625 
L 12.984375 20.0625 
Q 14.5 12.59375 18.140625 9.296875 
Q 21.78125 6 27 6 
Q 33.203125 6 37.46875 10.296875 
Q 41.75 14.59375 41.75 20.953125 
Q 41.75 27 37.796875 30.921875 
Q 33.84375 34.859375 27.734375 34.859375 
Q 25.25 34.859375 21.53125 33.890625 
L 22.515625 41.609375 
Q 23.390625 41.5 23.921875 41.5 
Q 29.546875 41.5 34.03125 44.421875 
Q 38.53125 47.359375 38.53125 53.46875 
Q 38.53125 58.296875 35.25 61.46875 
Q 31.984375 64.65625 26.8125 64.65625 
Q 21.6875 64.65625 18.265625 61.421875 
Q 14.84375 58.203125 13.875 51.765625 
L 5.078125 53.328125 
Q 6.6875 62.15625 12.390625 67.015625 
Q 18.109375 71.875 26.609375 71.875 
Q 32.46875 71.875 37.390625 69.359375 
Q 42.328125 66.84375 44.9375 62.5 
Q 47.5625 58.15625 47.5625 53.265625 
Q 47.5625 48.640625 45.0625 44.828125 
Q 42.578125 41.015625 37.703125 38.765625 
Q 44.046875 37.3125 47.5625 32.6875 
Q 51.078125 28.078125 51.078125 21.140625 
Q 51.078125 11.765625 44.234375 5.25 
Q 37.40625 -1.265625 26.953125 -1.265625 
Q 17.53125 -1.265625 11.296875 4.34375 
Q 5.078125 9.96875 4.203125 18.890625 
z
" id="ArialMT-33"/>
      </defs>
      <g style="fill:#262626;" transform="translate(376.904982 321.741812)scale(0.1 -0.1)">
       <use xlink:href="#ArialMT-33"/>
       <use x="55.615234" xlink:href="#ArialMT-2e"/>
       <use x="83.398438" xlink:href="#ArialMT-30"/>
      </g>
     </g>
    </g>
   </g>
   <g id="matplotlib.axis_2">
    <g id="ytick_1">
     <g id="line2d_15">
      <path clip-path="url(#pd9270b2c3d)" d="M 57.6 295.488 
L 414.72 295.488 
" style="fill:none;stroke:#ffffff;stroke-linecap:round;"/>
     </g>
     <g id="line2d_16"/>
     <g id="text_8">
      <!-- 0.0 -->
      <g style="fill:#262626;" transform="translate(36.7 299.066906)scale(0.1 -0.1)">
       <use xlink:href="#ArialMT-30"/>
       <use x="55.615234" xlink:href="#ArialMT-2e"/>
       <use x="83.398438" xlink:href="#ArialMT-30"/>
      </g>
     </g>
    </g>
    <g id="ytick_2">
     <g id="line2d_17">
      <path clip-path="url(#pd9270b2c3d)" d="M 57.6 241.519096 
L 414.72 241.519096 
" style="fill:none;stroke:#ffffff;stroke-linecap:round;"/>
     </g>
     <g id="line2d_18"/>
     <g id="text_9">
      <!-- 0.5 -->
      <g style="fill:#262626;" transform="translate(36.7 245.098002)scale(0.1 -0.1)">
       <use xlink:href="#ArialMT-30"/>
       <use x="55.615234" xlink:href="#ArialMT-2e"/>
       <use x="83.398438" xlink:href="#ArialMT-35"/>
      </g>
     </g>
    </g>
    <g id="ytick_3">
     <g id="line2d_19">
      <path clip-path="url(#pd9270b2c3d)" d="M 57.6 187.550192 
L 414.72 187.550192 
" style="fill:none;stroke:#ffffff;stroke-linecap:round;"/>
     </g>
     <g id="line2d_20"/>
     <g id="text_10">
      <!-- 1.0 -->
      <g style="fill:#262626;" transform="translate(36.7 191.129098)scale(0.1 -0.1)">
       <use xlink:href="#ArialMT-31"/>
       <use x="55.615234" xlink:href="#ArialMT-2e"/>
       <use x="83.398438" xlink:href="#ArialMT-30"/>
      </g>
     </g>
    </g>
    <g id="ytick_4">
     <g id="line2d_21">
      <path clip-path="url(#pd9270b2c3d)" d="M 57.6 133.581288 
L 414.72 133.581288 
" style="fill:none;stroke:#ffffff;stroke-linecap:round;"/>
     </g>
     <g id="line2d_22"/>
     <g id="text_11">
      <!-- 1.5 -->
      <g style="fill:#262626;" transform="translate(36.7 137.160194)scale(0.1 -0.1)">
       <use xlink:href="#ArialMT-31"/>
       <use x="55.615234" xlink:href="#ArialMT-2e"/>
       <use x="83.398438" xlink:href="#ArialMT-35"/>
      </g>
     </g>
    </g>
    <g id="ytick_5">
     <g id="line2d_23">
      <path clip-path="url(#pd9270b2c3d)" d="M 57.6 79.612384 
L 414.72 79.612384 
" style="fill:none;stroke:#ffffff;stroke-linecap:round;"/>
     </g>
     <g id="line2d_24"/>
     <g id="text_12">
      <!-- 2.0 -->
      <g style="fill:#262626;" transform="translate(36.7 83.191291)scale(0.1 -0.1)">
       <use xlink:href="#ArialMT-32"/>
       <use x="55.615234" xlink:href="#ArialMT-2e"/>
       <use x="83.398438" xlink:href="#ArialMT-30"/>
      </g>
     </g>
    </g>
   </g>
   <g id="patch_3">
    <path d="M 57.6 307.584 
L 57.6 41.472 
" style="fill:none;"/>
   </g>
   <g id="patch_4">
    <path d="M 414.72 307.584 
L 414.72 41.472 
" style="fill:none;"/>
   </g>
   <g id="patch_5">
    <path d="M 57.6 307.584 
L 414.72 307.584 
" style="fill:none;"/>
   </g>
   <g id="patch_6">
    <path d="M 57.6 41.472 
L 414.72 41.472 
" style="fill:none;"/>
   </g>
   <g id="legend_1">
    <g id="line2d_25">
     <path d="M 262.146563 54.251688 
L 282.146563 54.251688 
" style="fill:none;stroke:#000000;stroke-linecap:round;stroke-width:1.75;"/>
    </g>
    <g id="line2d_26"/>
    <g id="text_13">
     <!-- fB(x) -->
     <defs>
      <path d="M 8.6875 0 
L 8.6875 45.015625 
L 0.921875 45.015625 
L 0.921875 51.859375 
L 8.6875 51.859375 
L 8.6875 57.375 
Q 8.6875 62.59375 9.625 65.140625 
Q 10.890625 68.5625 14.078125 70.671875 
Q 17.28125 72.796875 23.046875 72.796875 
Q 26.765625 72.796875 31.25 71.921875 
L 29.9375 64.265625 
Q 27.203125 64.75 24.75 64.75 
Q 20.75 64.75 19.09375 63.03125 
Q 17.4375 61.328125 17.4375 56.640625 
L 17.4375 51.859375 
L 27.546875 51.859375 
L 27.546875 45.015625 
L 17.4375 45.015625 
L 17.4375 0 
z
" id="ArialMT-66"/>
      <path d="M 7.328125 0 
L 7.328125 71.578125 
L 34.1875 71.578125 
Q 42.390625 71.578125 47.34375 69.40625 
Q 52.296875 67.234375 55.09375 62.71875 
Q 57.90625 58.203125 57.90625 53.265625 
Q 57.90625 48.6875 55.421875 44.625 
Q 52.9375 40.578125 47.90625 38.09375 
Q 54.390625 36.1875 57.875 31.59375 
Q 61.375 27 61.375 20.75 
Q 61.375 15.71875 59.25 11.390625 
Q 57.125 7.078125 54 4.734375 
Q 50.875 2.390625 46.15625 1.1875 
Q 41.453125 0 34.625 0 
z
M 16.796875 41.5 
L 32.28125 41.5 
Q 38.578125 41.5 41.3125 42.328125 
Q 44.921875 43.40625 46.75 45.890625 
Q 48.578125 48.390625 48.578125 52.15625 
Q 48.578125 55.71875 46.875 58.421875 
Q 45.171875 61.140625 41.984375 62.140625 
Q 38.8125 63.140625 31.109375 63.140625 
L 16.796875 63.140625 
z
M 16.796875 8.453125 
L 34.625 8.453125 
Q 39.203125 8.453125 41.0625 8.796875 
Q 44.34375 9.375 46.53125 10.734375 
Q 48.734375 12.109375 50.140625 14.71875 
Q 51.5625 17.328125 51.5625 20.75 
Q 51.5625 24.75 49.515625 27.703125 
Q 47.46875 30.671875 43.828125 31.859375 
Q 40.1875 33.0625 33.34375 33.0625 
L 16.796875 33.0625 
z
" id="ArialMT-42"/>
      <path d="M 23.390625 -21.046875 
Q 16.109375 -11.859375 11.078125 0.4375 
Q 6.0625 12.75 6.0625 25.921875 
Q 6.0625 37.546875 9.8125 48.1875 
Q 14.203125 60.546875 23.390625 72.796875 
L 29.6875 72.796875 
Q 23.78125 62.640625 21.875 58.296875 
Q 18.890625 51.5625 17.1875 44.234375 
Q 15.09375 35.109375 15.09375 25.875 
Q 15.09375 2.390625 29.6875 -21.046875 
z
" id="ArialMT-28"/>
      <path d="M 0.734375 0 
L 19.671875 26.953125 
L 2.15625 51.859375 
L 13.140625 51.859375 
L 21.09375 39.703125 
Q 23.34375 36.234375 24.703125 33.890625 
Q 26.859375 37.109375 28.65625 39.59375 
L 37.40625 51.859375 
L 47.90625 51.859375 
L 29.984375 27.4375 
L 49.265625 0 
L 38.484375 0 
L 27.828125 16.109375 
L 25 20.453125 
L 11.375 0 
z
" id="ArialMT-78"/>
      <path d="M 12.359375 -21.046875 
L 6.0625 -21.046875 
Q 20.65625 2.390625 20.65625 25.875 
Q 20.65625 35.0625 18.5625 44.09375 
Q 16.890625 51.421875 13.921875 58.15625 
Q 12.015625 62.546875 6.0625 72.796875 
L 12.359375 72.796875 
Q 21.53125 60.546875 25.921875 48.1875 
Q 29.6875 37.546875 29.6875 25.921875 
Q 29.6875 12.75 24.625 0.4375 
Q 19.578125 -11.859375 12.359375 -21.046875 
z
" id="ArialMT-29"/>
     </defs>
     <g style="fill:#262626;" transform="translate(290.146563 57.751688)scale(0.1 -0.1)">
      <use xlink:href="#ArialMT-66"/>
      <use x="27.783203" xlink:href="#ArialMT-42"/>
      <use x="94.482422" xlink:href="#ArialMT-28"/>
      <use x="127.783203" xlink:href="#ArialMT-78"/>
      <use x="177.783203" xlink:href="#ArialMT-29"/>
     </g>
    </g>
    <g id="line2d_27">
     <path d="M 262.146563 68.636062 
L 282.146563 68.636062 
" style="fill:none;stroke:#ff0000;stroke-linecap:round;stroke-width:1.75;"/>
    </g>
    <g id="line2d_28"/>
    <g id="text_14">
     <!-- fB(x)/pB(x) and fL(x)/pL(x) -->
     <defs>
      <path d="M 0 -1.21875 
L 20.75 72.796875 
L 27.78125 72.796875 
L 7.078125 -1.21875 
z
" id="ArialMT-2f"/>
      <path d="M 6.59375 -19.875 
L 6.59375 51.859375 
L 14.59375 51.859375 
L 14.59375 45.125 
Q 17.4375 49.078125 21 51.046875 
Q 24.5625 53.03125 29.640625 53.03125 
Q 36.28125 53.03125 41.359375 49.609375 
Q 46.4375 46.1875 49.015625 39.953125 
Q 51.609375 33.734375 51.609375 26.3125 
Q 51.609375 18.359375 48.75 11.984375 
Q 45.90625 5.609375 40.453125 2.21875 
Q 35.015625 -1.171875 29 -1.171875 
Q 24.609375 -1.171875 21.109375 0.6875 
Q 17.625 2.546875 15.375 5.375 
L 15.375 -19.875 
z
M 14.546875 25.640625 
Q 14.546875 15.625 18.59375 10.84375 
Q 22.65625 6.0625 28.421875 6.0625 
Q 34.28125 6.0625 38.453125 11.015625 
Q 42.625 15.96875 42.625 26.375 
Q 42.625 36.28125 38.546875 41.203125 
Q 34.46875 46.140625 28.8125 46.140625 
Q 23.1875 46.140625 18.859375 40.890625 
Q 14.546875 35.640625 14.546875 25.640625 
z
" id="ArialMT-70"/>
      <path id="ArialMT-20"/>
      <path d="M 40.4375 6.390625 
Q 35.546875 2.25 31.03125 0.53125 
Q 26.515625 -1.171875 21.34375 -1.171875 
Q 12.796875 -1.171875 8.203125 3 
Q 3.609375 7.171875 3.609375 13.671875 
Q 3.609375 17.484375 5.34375 20.625 
Q 7.078125 23.78125 9.890625 25.6875 
Q 12.703125 27.59375 16.21875 28.5625 
Q 18.796875 29.25 24.03125 29.890625 
Q 34.671875 31.15625 39.703125 32.90625 
Q 39.75 34.71875 39.75 35.203125 
Q 39.75 40.578125 37.25 42.78125 
Q 33.890625 45.75 27.25 45.75 
Q 21.046875 45.75 18.09375 43.578125 
Q 15.140625 41.40625 13.71875 35.890625 
L 5.125 37.0625 
Q 6.296875 42.578125 8.984375 45.96875 
Q 11.671875 49.359375 16.75 51.1875 
Q 21.828125 53.03125 28.515625 53.03125 
Q 35.15625 53.03125 39.296875 51.46875 
Q 43.453125 49.90625 45.40625 47.53125 
Q 47.359375 45.171875 48.140625 41.546875 
Q 48.578125 39.3125 48.578125 33.453125 
L 48.578125 21.734375 
Q 48.578125 9.46875 49.140625 6.21875 
Q 49.703125 2.984375 51.375 0 
L 42.1875 0 
Q 40.828125 2.734375 40.4375 6.390625 
z
M 39.703125 26.03125 
Q 34.90625 24.078125 25.34375 22.703125 
Q 19.921875 21.921875 17.671875 20.9375 
Q 15.4375 19.96875 14.203125 18.09375 
Q 12.984375 16.21875 12.984375 13.921875 
Q 12.984375 10.40625 15.640625 8.0625 
Q 18.3125 5.71875 23.4375 5.71875 
Q 28.515625 5.71875 32.46875 7.9375 
Q 36.421875 10.15625 38.28125 14.015625 
Q 39.703125 17 39.703125 22.796875 
z
" id="ArialMT-61"/>
      <path d="M 6.59375 0 
L 6.59375 51.859375 
L 14.5 51.859375 
L 14.5 44.484375 
Q 20.21875 53.03125 31 53.03125 
Q 35.6875 53.03125 39.625 51.34375 
Q 43.5625 49.65625 45.515625 46.921875 
Q 47.46875 44.1875 48.25 40.4375 
Q 48.734375 37.984375 48.734375 31.890625 
L 48.734375 0 
L 39.9375 0 
L 39.9375 31.546875 
Q 39.9375 36.921875 38.90625 39.578125 
Q 37.890625 42.234375 35.28125 43.8125 
Q 32.671875 45.40625 29.15625 45.40625 
Q 23.53125 45.40625 19.453125 41.84375 
Q 15.375 38.28125 15.375 28.328125 
L 15.375 0 
z
" id="ArialMT-6e"/>
      <path d="M 40.234375 0 
L 40.234375 6.546875 
Q 35.296875 -1.171875 25.734375 -1.171875 
Q 19.53125 -1.171875 14.328125 2.25 
Q 9.125 5.671875 6.265625 11.796875 
Q 3.421875 17.921875 3.421875 25.875 
Q 3.421875 33.640625 6 39.96875 
Q 8.59375 46.296875 13.765625 49.65625 
Q 18.953125 53.03125 25.34375 53.03125 
Q 30.03125 53.03125 33.6875 51.046875 
Q 37.359375 49.078125 39.65625 45.90625 
L 39.65625 71.578125 
L 48.390625 71.578125 
L 48.390625 0 
z
M 12.453125 25.875 
Q 12.453125 15.921875 16.640625 10.984375 
Q 20.84375 6.0625 26.5625 6.0625 
Q 32.328125 6.0625 36.34375 10.765625 
Q 40.375 15.484375 40.375 25.140625 
Q 40.375 35.796875 36.265625 40.765625 
Q 32.171875 45.75 26.171875 45.75 
Q 20.3125 45.75 16.375 40.96875 
Q 12.453125 36.1875 12.453125 25.875 
z
" id="ArialMT-64"/>
      <path d="M 7.328125 0 
L 7.328125 71.578125 
L 16.796875 71.578125 
L 16.796875 8.453125 
L 52.046875 8.453125 
L 52.046875 0 
z
" id="ArialMT-4c"/>
     </defs>
     <g style="fill:#262626;" transform="translate(290.146563 72.136062)scale(0.1 -0.1)">
      <use xlink:href="#ArialMT-66"/>
      <use x="27.783203" xlink:href="#ArialMT-42"/>
      <use x="94.482422" xlink:href="#ArialMT-28"/>
      <use x="127.783203" xlink:href="#ArialMT-78"/>
      <use x="177.783203" xlink:href="#ArialMT-29"/>
      <use x="211.083984" xlink:href="#ArialMT-2f"/>
      <use x="238.867188" xlink:href="#ArialMT-70"/>
      <use x="294.482422" xlink:href="#ArialMT-42"/>
      <use x="361.181641" xlink:href="#ArialMT-28"/>
      <use x="394.482422" xlink:href="#ArialMT-78"/>
      <use x="444.482422" xlink:href="#ArialMT-29"/>
      <use x="477.783203" xlink:href="#ArialMT-20"/>
      <use x="505.566406" xlink:href="#ArialMT-61"/>
      <use x="561.181641" xlink:href="#ArialMT-6e"/>
      <use x="616.796875" xlink:href="#ArialMT-64"/>
      <use x="672.412109" xlink:href="#ArialMT-20"/>
      <use x="700.195312" xlink:href="#ArialMT-66"/>
      <use x="727.978516" xlink:href="#ArialMT-4c"/>
      <use x="783.59375" xlink:href="#ArialMT-28"/>
      <use x="816.894531" xlink:href="#ArialMT-78"/>
      <use x="866.894531" xlink:href="#ArialMT-29"/>
      <use x="900.195312" xlink:href="#ArialMT-2f"/>
      <use x="927.978516" xlink:href="#ArialMT-70"/>
      <use x="983.59375" xlink:href="#ArialMT-4c"/>
      <use x="1039.208984" xlink:href="#ArialMT-28"/>
      <use x="1072.509766" xlink:href="#ArialMT-78"/>
      <use x="1122.509766" xlink:href="#ArialMT-29"/>
     </g>
    </g>
   </g>
   <g id="line2d_29">
    <path clip-path="url(#pd9270b2c3d)" d="M 73.832727 295.488 
L 75.784558 292.226091 
L 78.386999 288.449247 
L 80.989441 285.068736 
L 83.591882 281.99671 
L 86.194323 279.217289 
L 88.796764 276.744091 
L 91.399206 274.604568 
L 93.351037 273.238806 
L 95.302868 272.093406 
L 97.254698 271.180535 
L 99.206529 270.508596 
L 101.15836 270.079945 
L 103.110191 269.888263 
L 105.062022 269.915715 
L 107.664463 270.235398 
L 111.568125 271.053353 
L 114.170567 271.551274 
L 116.122398 271.737574 
L 118.074228 271.651129 
L 119.375449 271.395552 
L 120.67667 270.95375 
L 121.97789 270.306922 
L 123.279111 269.441711 
L 124.580332 268.35069 
L 125.230942 267.719838 
L 125.881552 295.488 
L 146.050472 295.488 
L 146.701082 227.315702 
L 151.255354 217.898699 
L 155.159016 210.316272 
L 159.062678 203.205367 
L 163.61695 195.388093 
L 170.773664 183.234421 
L 173.376105 178.396202 
L 175.978546 173.020977 
L 177.930377 168.48854 
L 179.882208 163.404104 
L 181.834039 157.660928 
L 183.78587 151.167057 
L 185.737701 143.859073 
L 187.689532 135.717794 
L 190.291973 123.648169 
L 193.545025 107.087743 
L 198.749907 80.268244 
L 200.701738 71.405055 
L 202.002959 66.220736 
L 203.304179 61.769172 
L 204.6054 58.171188 
L 205.906621 55.533635 
L 206.557231 54.603696 
L 207.207841 53.945826 
L 207.858451 53.568 
L 208.509062 295.488 
L 239.087746 295.488 
L 239.738357 248.179033 
L 241.039577 253.362458 
L 242.340798 257.394019 
L 242.991408 258.956883 
L 243.642019 260.20798 
L 244.292629 261.140869 
L 244.943239 261.749906 
L 245.59385 262.030295 
L 246.24446 261.978145 
L 246.89507 261.590526 
L 247.54568 260.865535 
L 248.196291 259.802366 
L 248.846901 258.401375 
L 249.497511 256.664155 
L 250.798732 252.194064 
L 252.099953 246.432574 
L 253.401173 239.444986 
L 254.702394 231.323812 
L 256.654225 217.291147 
L 258.606056 201.528403 
L 265.762769 141.24732 
L 267.7146 127.932365 
L 269.015821 120.559448 
L 270.317041 114.554861 
L 271.618262 109.994238 
L 272.268872 108.261915 
L 272.919483 106.890637 
L 273.570093 105.8726 
L 274.220703 105.196626 
L 274.871314 104.848474 
L 275.521924 104.811215 
L 276.172534 105.065632 
L 276.823144 105.590655 
L 277.473755 106.363801 
L 278.774975 108.560093 
L 280.076196 111.46265 
L 282.028027 116.731491 
L 285.281079 126.597843 
L 288.53413 136.217012 
L 290.485961 141.418333 
L 292.437792 146.075735 
L 294.389623 150.180817 
L 296.341454 153.772576 
L 298.293285 156.917668 
L 300.245116 159.695323 
L 302.847557 162.967042 
L 306.100608 166.607661 
L 312.606712 173.368691 
L 317.811594 178.968898 
L 321.715256 183.485685 
L 325.618918 188.327026 
L 329.52258 193.508397 
L 333.426242 199.035752 
L 337.329903 204.916896 
L 341.233565 211.169106 
L 345.137227 217.825812 
L 349.040889 224.944282 
L 352.293941 231.29284 
L 355.546992 238.09583 
L 358.800044 245.434377 
L 362.053095 253.349228 
L 368.559198 269.549429 
L 369.860419 272.159172 
L 371.16164 274.200322 
L 371.81225 274.957132 
L 372.46286 275.519778 
L 373.113471 275.883535 
L 373.764081 276.052826 
L 374.414691 276.041903 
L 375.065302 275.874419 
L 376.366522 275.200987 
L 378.968963 273.5483 
L 380.270184 273.065778 
L 381.571405 272.99115 
L 382.872625 273.349424 
L 384.173846 274.112266 
L 385.475066 275.225886 
L 386.776287 276.629835 
L 388.728118 279.157729 
L 390.679949 282.054624 
L 393.28239 286.296464 
L 397.186052 293.133925 
L 398.487273 295.488 
L 398.487273 295.488 
" style="fill:none;stroke:#ff0000;stroke-linecap:round;stroke-width:1.75;"/>
   </g>
   <g id="line2d_30">
    <path clip-path="url(#pd9270b2c3d)" d="M 73.832727 295.488 
L 80.33883 295.373946 
L 88.796764 294.977516 
L 108.315074 293.934315 
L 120.67667 293.460122 
L 124.580332 293.072669 
L 125.230942 292.987473 
L 125.881552 295.488 
L 146.050472 295.488 
L 146.701082 287.14694 
L 159.713288 282.403087 
L 166.219392 279.858901 
L 170.123053 278.082165 
L 172.725495 276.671363 
L 175.327936 274.965145 
L 177.279767 273.409249 
L 179.231598 271.53365 
L 181.183429 269.245248 
L 182.484649 267.435698 
L 183.78587 265.354915 
L 185.087091 262.960567 
L 186.388311 260.206492 
L 187.689532 257.043193 
L 188.990752 253.418703 
L 190.291973 249.279902 
L 191.593194 244.574351 
L 192.894414 239.25268 
L 194.195635 233.271541 
L 196.147466 222.992781 
L 198.099297 211.103291 
L 200.051128 197.647039 
L 202.002959 182.793479 
L 205.25601 155.856248 
L 207.858451 133.746324 
L 208.509062 295.488 
L 239.087746 295.488 
L 239.738357 227.92274 
L 241.039577 235.998366 
L 242.340798 242.475994 
L 243.642019 247.272958 
L 244.292629 249.030302 
L 244.943239 250.361314 
L 245.59385 251.271081 
L 246.24446 251.76804 
L 246.89507 251.863876 
L 247.54568 251.573407 
L 248.196291 250.914438 
L 248.846901 249.90759 
L 249.497511 248.576104 
L 250.798732 245.043982 
L 252.099953 240.547735 
L 254.051784 232.55997 
L 258.606056 212.923687 
L 259.907276 208.234118 
L 261.208497 204.356341 
L 262.509718 201.446429 
L 263.160328 200.38969 
L 263.810938 199.610606 
L 264.461549 199.11403 
L 265.112159 198.901384 
L 265.762769 198.970708 
L 266.413379 199.316775 
L 267.06399 199.93125 
L 267.7146 200.802911 
L 268.36521 201.917907 
L 269.666431 204.811265 
L 270.967652 208.460531 
L 272.919483 214.977242 
L 276.172534 227.177003 
L 279.425586 239.084886 
L 281.377417 245.461189 
L 283.329248 251.07205 
L 285.281079 255.882707 
L 287.232909 259.92708 
L 289.18474 263.279714 
L 291.136571 266.033955 
L 293.088402 268.287059 
L 295.040233 270.131219 
L 296.992064 271.648948 
L 298.943895 272.911293 
L 301.546336 274.298357 
L 304.799388 275.707804 
L 308.70305 277.120634 
L 315.209153 279.191629 
L 343.836007 287.876668 
L 353.595161 290.60008 
L 362.053095 292.741701 
L 367.257978 293.862511 
L 370.511029 294.36616 
L 373.764081 294.618771 
L 390.679949 295.296633 
L 397.186052 295.482406 
L 398.487273 295.488 
L 398.487273 295.488 
" style="fill:none;stroke:#000000;stroke-linecap:round;stroke-width:1.75;"/>
   </g>
  </g>
 </g>
 <defs>
  <clipPath id="pd9270b2c3d">
   <rect height="266.112" width="357.12" x="57.6" y="41.472"/>
  </clipPath>
 </defs>
</svg>
