<?xml version="1.0" encoding="utf-8" standalone="no"?>
<!DOCTYPE svg PUBLIC "-//W3C//DTD SVG 1.1//EN"
  "http://www.w3.org/Graphics/SVG/1.1/DTD/svg11.dtd">
<!-- Created with matplotlib (https://matplotlib.org/) -->
<svg height="345.6pt" version="1.1" viewBox="0 0 460.8 345.6" width="460.8pt" xmlns="http://www.w3.org/2000/svg" xmlns:xlink="http://www.w3.org/1999/xlink">
 <defs>
  <style type="text/css">
*{stroke-linecap:butt;stroke-linejoin:round;}
  </style>
 </defs>
 <g id="figure_1">
  <g id="patch_1">
   <path d="M 0 345.6 
L 460.8 345.6 
L 460.8 0 
L 0 0 
z
" style="fill:#ffffff;"/>
  </g>
  <g id="axes_1">
   <g id="patch_2">
    <path d="M 57.6 307.584 
L 414.72 307.584 
L 414.72 41.472 
L 57.6 41.472 
z
" style="fill:#eaeaf2;"/>
   </g>
   <g id="matplotlib.axis_1">
    <g id="xtick_1">
     <g id="line2d_1">
      <path clip-path="url(#p501ebc6560)" d="M 73.832727 307.584 
L 73.832727 41.472 
" style="fill:none;stroke:#ffffff;stroke-linecap:round;"/>
     </g>
     <g id="text_1">
      <!-- 0.0 -->
      <defs>
       <path d="M 4.15625 35.296875 
Q 4.15625 48 6.765625 55.734375 
Q 9.375 63.484375 14.515625 67.671875 
Q 19.671875 71.875 27.484375 71.875 
Q 33.25 71.875 37.59375 69.546875 
Q 41.9375 67.234375 44.765625 62.859375 
Q 47.609375 58.5 49.21875 52.21875 
Q 50.828125 45.953125 50.828125 35.296875 
Q 50.828125 22.703125 48.234375 14.96875 
Q 45.65625 7.234375 40.5 3 
Q 35.359375 -1.21875 27.484375 -1.21875 
Q 17.140625 -1.21875 11.234375 6.203125 
Q 4.15625 15.140625 4.15625 35.296875 
z
M 13.1875 35.296875 
Q 13.1875 17.671875 17.3125 11.828125 
Q 21.4375 6 27.484375 6 
Q 33.546875 6 37.671875 11.859375 
Q 41.796875 17.71875 41.796875 35.296875 
Q 41.796875 52.984375 37.671875 58.78125 
Q 33.546875 64.59375 27.390625 64.59375 
Q 21.34375 64.59375 17.71875 59.46875 
Q 13.1875 52.9375 13.1875 35.296875 
z
" id="ArialMT-48"/>
       <path d="M 9.078125 0 
L 9.078125 10.015625 
L 19.09375 10.015625 
L 19.09375 0 
z
" id="ArialMT-46"/>
      </defs>
      <g style="fill:#262626;" transform="translate(66.187727 324.957594)scale(0.11 -0.11)">
       <use xlink:href="#ArialMT-48"/>
       <use x="55.615234" xlink:href="#ArialMT-46"/>
       <use x="83.398438" xlink:href="#ArialMT-48"/>
      </g>
     </g>
    </g>
    <g id="xtick_2">
     <g id="line2d_2">
      <path clip-path="url(#p501ebc6560)" d="M 125.503103 307.584 
L 125.503103 41.472 
" style="fill:none;stroke:#ffffff;stroke-linecap:round;"/>
     </g>
     <g id="text_2">
      <!-- 0.5 -->
      <defs>
       <path d="M 4.15625 18.75 
L 13.375 19.53125 
Q 14.40625 12.796875 18.140625 9.390625 
Q 21.875 6 27.15625 6 
Q 33.5 6 37.890625 10.78125 
Q 42.28125 15.578125 42.28125 23.484375 
Q 42.28125 31 38.0625 35.34375 
Q 33.84375 39.703125 27 39.703125 
Q 22.75 39.703125 19.328125 37.765625 
Q 15.921875 35.84375 13.96875 32.765625 
L 5.71875 33.84375 
L 12.640625 70.609375 
L 48.25 70.609375 
L 48.25 62.203125 
L 19.671875 62.203125 
L 15.828125 42.96875 
Q 22.265625 47.46875 29.34375 47.46875 
Q 38.71875 47.46875 45.15625 40.96875 
Q 51.609375 34.46875 51.609375 24.265625 
Q 51.609375 14.546875 45.953125 7.46875 
Q 39.0625 -1.21875 27.15625 -1.21875 
Q 17.390625 -1.21875 11.203125 4.25 
Q 5.03125 9.71875 4.15625 18.75 
z
" id="ArialMT-53"/>
      </defs>
      <g style="fill:#262626;" transform="translate(117.858103 324.957594)scale(0.11 -0.11)">
       <use xlink:href="#ArialMT-48"/>
       <use x="55.615234" xlink:href="#ArialMT-46"/>
       <use x="83.398438" xlink:href="#ArialMT-53"/>
      </g>
     </g>
    </g>
    <g id="xtick_3">
     <g id="line2d_3">
      <path clip-path="url(#p501ebc6560)" d="M 177.173479 307.584 
L 177.173479 41.472 
" style="fill:none;stroke:#ffffff;stroke-linecap:round;"/>
     </g>
     <g id="text_3">
      <!-- 1.0 -->
      <defs>
       <path d="M 37.25 0 
L 28.46875 0 
L 28.46875 56 
Q 25.296875 52.984375 20.140625 49.953125 
Q 14.984375 46.921875 10.890625 45.40625 
L 10.890625 53.90625 
Q 18.265625 57.375 23.78125 62.296875 
Q 29.296875 67.234375 31.59375 71.875 
L 37.25 71.875 
z
" id="ArialMT-49"/>
      </defs>
      <g style="fill:#262626;" transform="translate(169.528479 324.957594)scale(0.11 -0.11)">
       <use xlink:href="#ArialMT-49"/>
       <use x="55.615234" xlink:href="#ArialMT-46"/>
       <use x="83.398438" xlink:href="#ArialMT-48"/>
      </g>
     </g>
    </g>
    <g id="xtick_4">
     <g id="line2d_4">
      <path clip-path="url(#p501ebc6560)" d="M 228.843854 307.584 
L 228.843854 41.472 
" style="fill:none;stroke:#ffffff;stroke-linecap:round;"/>
     </g>
     <g id="text_4">
      <!-- 1.5 -->
      <g style="fill:#262626;" transform="translate(221.198854 324.957594)scale(0.11 -0.11)">
       <use xlink:href="#ArialMT-49"/>
       <use x="55.615234" xlink:href="#ArialMT-46"/>
       <use x="83.398438" xlink:href="#ArialMT-53"/>
      </g>
     </g>
    </g>
    <g id="xtick_5">
     <g id="line2d_5">
      <path clip-path="url(#p501ebc6560)" d="M 280.51423 307.584 
L 280.51423 41.472 
" style="fill:none;stroke:#ffffff;stroke-linecap:round;"/>
     </g>
     <g id="text_5">
      <!-- 2.0 -->
      <defs>
       <path d="M 50.34375 8.453125 
L 50.34375 0 
L 3.03125 0 
Q 2.9375 3.171875 4.046875 6.109375 
Q 5.859375 10.9375 9.828125 15.625 
Q 13.8125 20.3125 21.34375 26.46875 
Q 33.015625 36.03125 37.109375 41.625 
Q 41.21875 47.21875 41.21875 52.203125 
Q 41.21875 57.421875 37.46875 61 
Q 33.734375 64.59375 27.734375 64.59375 
Q 21.390625 64.59375 17.578125 60.78125 
Q 13.765625 56.984375 13.71875 50.25 
L 4.6875 51.171875 
Q 5.609375 61.28125 11.65625 66.578125 
Q 17.71875 71.875 27.9375 71.875 
Q 38.234375 71.875 44.234375 66.15625 
Q 50.25 60.453125 50.25 52 
Q 50.25 47.703125 48.484375 43.546875 
Q 46.734375 39.40625 42.65625 34.8125 
Q 38.578125 30.21875 29.109375 22.21875 
Q 21.1875 15.578125 18.9375 13.203125 
Q 16.703125 10.84375 15.234375 8.453125 
z
" id="ArialMT-50"/>
      </defs>
      <g style="fill:#262626;" transform="translate(272.86923 324.957594)scale(0.11 -0.11)">
       <use xlink:href="#ArialMT-50"/>
       <use x="55.615234" xlink:href="#ArialMT-46"/>
       <use x="83.398438" xlink:href="#ArialMT-48"/>
      </g>
     </g>
    </g>
    <g id="xtick_6">
     <g id="line2d_6">
      <path clip-path="url(#p501ebc6560)" d="M 332.184606 307.584 
L 332.184606 41.472 
" style="fill:none;stroke:#ffffff;stroke-linecap:round;"/>
     </g>
     <g id="text_6">
      <!-- 2.5 -->
      <g style="fill:#262626;" transform="translate(324.539606 324.957594)scale(0.11 -0.11)">
       <use xlink:href="#ArialMT-50"/>
       <use x="55.615234" xlink:href="#ArialMT-46"/>
       <use x="83.398438" xlink:href="#ArialMT-53"/>
      </g>
     </g>
    </g>
    <g id="xtick_7">
     <g id="line2d_7">
      <path clip-path="url(#p501ebc6560)" d="M 383.854982 307.584 
L 383.854982 41.472 
" style="fill:none;stroke:#ffffff;stroke-linecap:round;"/>
     </g>
     <g id="text_7">
      <!-- 3.0 -->
      <defs>
       <path d="M 4.203125 18.890625 
L 12.984375 20.0625 
Q 14.5 12.59375 18.140625 9.296875 
Q 21.78125 6 27 6 
Q 33.203125 6 37.46875 10.296875 
Q 41.75 14.59375 41.75 20.953125 
Q 41.75 27 37.796875 30.921875 
Q 33.84375 34.859375 27.734375 34.859375 
Q 25.25 34.859375 21.53125 33.890625 
L 22.515625 41.609375 
Q 23.390625 41.5 23.921875 41.5 
Q 29.546875 41.5 34.03125 44.421875 
Q 38.53125 47.359375 38.53125 53.46875 
Q 38.53125 58.296875 35.25 61.46875 
Q 31.984375 64.65625 26.8125 64.65625 
Q 21.6875 64.65625 18.265625 61.421875 
Q 14.84375 58.203125 13.875 51.765625 
L 5.078125 53.328125 
Q 6.6875 62.15625 12.390625 67.015625 
Q 18.109375 71.875 26.609375 71.875 
Q 32.46875 71.875 37.390625 69.359375 
Q 42.328125 66.84375 44.9375 62.5 
Q 47.5625 58.15625 47.5625 53.265625 
Q 47.5625 48.640625 45.0625 44.828125 
Q 42.578125 41.015625 37.703125 38.765625 
Q 44.046875 37.3125 47.5625 32.6875 
Q 51.078125 28.078125 51.078125 21.140625 
Q 51.078125 11.765625 44.234375 5.25 
Q 37.40625 -1.265625 26.953125 -1.265625 
Q 17.53125 -1.265625 11.296875 4.34375 
Q 5.078125 9.96875 4.203125 18.890625 
z
" id="ArialMT-51"/>
      </defs>
      <g style="fill:#262626;" transform="translate(376.209982 324.957594)scale(0.11 -0.11)">
       <use xlink:href="#ArialMT-51"/>
       <use x="55.615234" xlink:href="#ArialMT-46"/>
       <use x="83.398438" xlink:href="#ArialMT-48"/>
      </g>
     </g>
    </g>
   </g>
   <g id="matplotlib.axis_2">
    <g id="ytick_1">
     <g id="line2d_8">
      <path clip-path="url(#p501ebc6560)" d="M 57.6 295.488 
L 414.72 295.488 
" style="fill:none;stroke:#ffffff;stroke-linecap:round;"/>
     </g>
     <g id="text_8">
      <!-- 0.0 -->
      <g style="fill:#262626;" transform="translate(32.81 299.424797)scale(0.11 -0.11)">
       <use xlink:href="#ArialMT-48"/>
       <use x="55.615234" xlink:href="#ArialMT-46"/>
       <use x="83.398438" xlink:href="#ArialMT-48"/>
      </g>
     </g>
    </g>
    <g id="ytick_2">
     <g id="line2d_9">
      <path clip-path="url(#p501ebc6560)" d="M 57.6 244.09165 
L 414.72 244.09165 
" style="fill:none;stroke:#ffffff;stroke-linecap:round;"/>
     </g>
     <g id="text_9">
      <!-- 0.5 -->
      <g style="fill:#262626;" transform="translate(32.81 248.028447)scale(0.11 -0.11)">
       <use xlink:href="#ArialMT-48"/>
       <use x="55.615234" xlink:href="#ArialMT-46"/>
       <use x="83.398438" xlink:href="#ArialMT-53"/>
      </g>
     </g>
    </g>
    <g id="ytick_3">
     <g id="line2d_10">
      <path clip-path="url(#p501ebc6560)" d="M 57.6 192.6953 
L 414.72 192.6953 
" style="fill:none;stroke:#ffffff;stroke-linecap:round;"/>
     </g>
     <g id="text_10">
      <!-- 1.0 -->
      <g style="fill:#262626;" transform="translate(32.81 196.632097)scale(0.11 -0.11)">
       <use xlink:href="#ArialMT-49"/>
       <use x="55.615234" xlink:href="#ArialMT-46"/>
       <use x="83.398438" xlink:href="#ArialMT-48"/>
      </g>
     </g>
    </g>
    <g id="ytick_4">
     <g id="line2d_11">
      <path clip-path="url(#p501ebc6560)" d="M 57.6 141.298951 
L 414.72 141.298951 
" style="fill:none;stroke:#ffffff;stroke-linecap:round;"/>
     </g>
     <g id="text_11">
      <!-- 1.5 -->
      <g style="fill:#262626;" transform="translate(32.81 145.235748)scale(0.11 -0.11)">
       <use xlink:href="#ArialMT-49"/>
       <use x="55.615234" xlink:href="#ArialMT-46"/>
       <use x="83.398438" xlink:href="#ArialMT-53"/>
      </g>
     </g>
    </g>
    <g id="ytick_5">
     <g id="line2d_12">
      <path clip-path="url(#p501ebc6560)" d="M 57.6 89.902601 
L 414.72 89.902601 
" style="fill:none;stroke:#ffffff;stroke-linecap:round;"/>
     </g>
     <g id="text_12">
      <!-- 2.0 -->
      <g style="fill:#262626;" transform="translate(32.81 93.839398)scale(0.11 -0.11)">
       <use xlink:href="#ArialMT-50"/>
       <use x="55.615234" xlink:href="#ArialMT-46"/>
       <use x="83.398438" xlink:href="#ArialMT-48"/>
      </g>
     </g>
    </g>
   </g>
   <g id="patch_3">
    <path d="M 57.6 307.584 
L 57.6 41.472 
" style="fill:none;stroke:#ffffff;stroke-linecap:square;stroke-linejoin:miter;stroke-width:1.25;"/>
   </g>
   <g id="patch_4">
    <path d="M 414.72 307.584 
L 414.72 41.472 
" style="fill:none;stroke:#ffffff;stroke-linecap:square;stroke-linejoin:miter;stroke-width:1.25;"/>
   </g>
   <g id="patch_5">
    <path d="M 57.6 307.584 
L 414.72 307.584 
" style="fill:none;stroke:#ffffff;stroke-linecap:square;stroke-linejoin:miter;stroke-width:1.25;"/>
   </g>
   <g id="patch_6">
    <path d="M 57.6 41.472 
L 414.72 41.472 
" style="fill:none;stroke:#ffffff;stroke-linecap:square;stroke-linejoin:miter;stroke-width:1.25;"/>
   </g>
   <g id="PolyCollection_1">
    <defs>
     <path d="M 73.832727 -50.112 
L 73.832727 -50.112 
L 74.483338 -50.112 
L 75.133948 -50.112 
L 75.784558 -50.112 
L 76.435169 -50.112 
L 77.085779 -50.112 
L 77.736389 -50.112 
L 78.386999 -50.112 
L 79.03761 -50.112 
L 79.68822 -50.112 
L 80.33883 -50.112 
L 80.989441 -50.112 
L 81.640051 -50.112 
L 82.290661 -50.112 
L 82.941272 -50.112 
L 83.591882 -50.112 
L 84.242492 -50.112 
L 84.893103 -50.112 
L 85.543713 -50.112 
L 86.194323 -50.112 
L 86.844934 -50.112 
L 87.495544 -50.112 
L 88.146154 -50.112 
L 88.796764 -50.112 
L 89.447375 -50.112 
L 90.097985 -50.112 
L 90.748595 -50.112 
L 91.399206 -50.112 
L 92.049816 -50.112 
L 92.700426 -50.112 
L 93.351037 -50.112 
L 94.001647 -50.112 
L 94.652257 -50.112 
L 95.302868 -50.112 
L 95.953478 -50.112 
L 96.604088 -50.112 
L 97.254698 -50.112 
L 97.905309 -50.112 
L 98.555919 -50.112 
L 99.206529 -50.112 
L 99.85714 -50.112 
L 100.50775 -50.112 
L 101.15836 -50.112 
L 101.808971 -50.112 
L 102.459581 -50.112 
L 103.110191 -50.112 
L 103.760802 -50.112 
L 104.411412 -50.112 
L 105.062022 -50.112 
L 105.712633 -50.112 
L 106.363243 -50.112 
L 107.013853 -50.112 
L 107.664463 -50.112 
L 108.315074 -50.112 
L 108.965684 -50.112 
L 109.616294 -50.112 
L 110.266905 -50.112 
L 110.917515 -50.112 
L 111.568125 -50.112 
L 112.218736 -50.112 
L 112.869346 -50.112 
L 113.519956 -50.112 
L 114.170567 -50.112 
L 114.821177 -50.112 
L 115.471787 -50.112 
L 116.122398 -50.112 
L 116.773008 -50.112 
L 117.423618 -50.112 
L 118.074228 -50.112 
L 118.724839 -50.112 
L 119.375449 -50.112 
L 120.026059 -50.112 
L 120.67667 -50.112 
L 121.32728 -50.112 
L 121.97789 -50.112 
L 122.628501 -50.112 
L 123.279111 -50.112 
L 123.929721 -50.112 
L 124.580332 -50.112 
L 125.230942 -50.112 
L 125.881552 -50.112 
L 126.532163 -50.112 
L 127.182773 -50.112 
L 127.833383 -50.112 
L 128.483993 -50.112 
L 129.134604 -50.112 
L 129.785214 -50.112 
L 130.435824 -50.112 
L 131.086435 -50.112 
L 131.737045 -50.112 
L 132.387655 -50.112 
L 133.038266 -50.112 
L 133.688876 -50.112 
L 134.339486 -50.112 
L 134.990097 -50.112 
L 135.640707 -50.112 
L 136.291317 -50.112 
L 136.941927 -50.112 
L 137.592538 -50.112 
L 138.243148 -50.112 
L 138.893758 -50.112 
L 139.544369 -50.112 
L 140.194979 -50.112 
L 140.845589 -50.112 
L 141.4962 -50.112 
L 142.14681 -50.112 
L 142.79742 -50.112 
L 143.448031 -50.112 
L 144.098641 -50.112 
L 144.749251 -50.112 
L 145.399862 -50.112 
L 146.050472 -50.112 
L 146.701082 -50.112 
L 147.351692 -50.112 
L 148.002303 -50.112 
L 148.652913 -50.112 
L 149.303523 -50.112 
L 149.954134 -50.112 
L 150.604744 -50.112 
L 151.255354 -50.112 
L 151.905965 -50.112 
L 152.556575 -50.112 
L 153.207185 -50.112 
L 153.857796 -50.112 
L 154.508406 -50.112 
L 155.159016 -50.112 
L 155.809627 -50.112 
L 156.460237 -50.112 
L 157.110847 -50.112 
L 157.761457 -50.112 
L 158.412068 -50.112 
L 159.062678 -50.112 
L 159.713288 -50.112 
L 160.363899 -50.112 
L 161.014509 -50.112 
L 161.665119 -50.112 
L 162.31573 -50.112 
L 162.96634 -50.112 
L 163.61695 -50.112 
L 164.267561 -50.112 
L 164.918171 -50.112 
L 165.568781 -50.112 
L 166.219392 -50.112 
L 166.870002 -50.112 
L 167.520612 -50.112 
L 168.171222 -50.112 
L 168.821833 -50.112 
L 169.472443 -50.112 
L 170.123053 -50.112 
L 170.773664 -50.112 
L 171.424274 -50.112 
L 172.074884 -50.112 
L 172.725495 -50.112 
L 173.376105 -50.112 
L 174.026715 -50.112 
L 174.677326 -50.112 
L 175.327936 -50.112 
L 175.978546 -50.112 
L 176.629156 -50.112 
L 177.279767 -50.112 
L 177.930377 -50.112 
L 178.580987 -50.112 
L 179.231598 -50.112 
L 179.882208 -50.112 
L 180.532818 -50.112 
L 181.183429 -50.112 
L 181.834039 -50.112 
L 182.484649 -50.112 
L 183.13526 -50.112 
L 183.78587 -50.112 
L 184.43648 -50.112 
L 185.087091 -50.112 
L 185.737701 -50.112 
L 186.388311 -50.112 
L 187.038921 -50.112 
L 187.689532 -50.112 
L 188.340142 -50.112 
L 188.990752 -50.112 
L 189.641363 -50.112 
L 190.291973 -50.112 
L 190.942583 -50.112 
L 191.593194 -50.112 
L 192.243804 -50.112 
L 192.894414 -50.112 
L 193.545025 -50.112 
L 194.195635 -50.112 
L 194.846245 -50.112 
L 195.496856 -50.112 
L 196.147466 -50.112 
L 196.798076 -50.112 
L 197.448686 -50.112 
L 198.099297 -50.112 
L 198.749907 -50.112 
L 199.400517 -50.112 
L 200.051128 -50.112 
L 200.701738 -50.112 
L 201.352348 -50.112 
L 202.002959 -50.112 
L 202.653569 -50.112 
L 203.304179 -50.112 
L 203.95479 -50.112 
L 204.6054 -50.112 
L 205.25601 -50.112 
L 205.906621 -50.112 
L 206.557231 -50.112 
L 207.207841 -50.112 
L 207.858451 -50.112 
L 208.509062 -50.112 
L 209.159672 -50.112 
L 209.810282 -50.112 
L 210.460893 -50.112 
L 211.111503 -50.112 
L 211.762113 -50.112 
L 212.412724 -50.112 
L 213.063334 -50.112 
L 213.713944 -50.112 
L 214.364555 -50.112 
L 215.015165 -50.112 
L 215.665775 -50.112 
L 216.316385 -50.112 
L 216.966996 -50.112 
L 217.617606 -50.112 
L 218.268216 -50.112 
L 218.918827 -50.112 
L 219.569437 -50.112 
L 220.220047 -50.112 
L 220.870658 -50.112 
L 221.521268 -50.112 
L 222.171878 -50.112 
L 222.822489 -50.112 
L 223.473099 -50.112 
L 224.123709 -50.112 
L 224.77432 -50.112 
L 225.42493 -50.112 
L 226.07554 -50.112 
L 226.72615 -50.112 
L 227.376761 -50.112 
L 228.027371 -50.112 
L 228.677981 -50.112 
L 229.328592 -50.112 
L 229.979202 -50.112 
L 230.629812 -50.112 
L 231.280423 -50.112 
L 231.931033 -50.112 
L 232.581643 -50.112 
L 233.232254 -50.112 
L 233.882864 -50.112 
L 234.533474 -50.112 
L 235.184085 -50.112 
L 235.834695 -50.112 
L 236.485305 -50.112 
L 237.135915 -50.112 
L 237.786526 -50.112 
L 238.437136 -50.112 
L 239.087746 -50.112 
L 239.738357 -50.112 
L 240.388967 -50.112 
L 241.039577 -50.112 
L 241.690188 -50.112 
L 242.340798 -50.112 
L 242.991408 -50.112 
L 243.642019 -50.112 
L 244.292629 -50.112 
L 244.943239 -50.112 
L 245.59385 -50.112 
L 246.24446 -50.112 
L 246.89507 -50.112 
L 247.54568 -50.112 
L 248.196291 -50.112 
L 248.846901 -50.112 
L 249.497511 -50.112 
L 250.148122 -50.112 
L 250.798732 -50.112 
L 251.449342 -50.112 
L 252.099953 -50.112 
L 252.750563 -50.112 
L 253.401173 -50.112 
L 254.051784 -50.112 
L 254.702394 -50.112 
L 255.353004 -50.112 
L 256.003615 -50.112 
L 256.654225 -50.112 
L 257.304835 -50.112 
L 257.955445 -50.112 
L 258.606056 -50.112 
L 259.256666 -50.112 
L 259.907276 -50.112 
L 260.557887 -50.112 
L 261.208497 -50.112 
L 261.859107 -50.112 
L 262.509718 -50.112 
L 263.160328 -50.112 
L 263.810938 -50.112 
L 264.461549 -50.112 
L 265.112159 -50.112 
L 265.762769 -50.112 
L 266.413379 -50.112 
L 267.06399 -50.112 
L 267.7146 -50.112 
L 268.36521 -50.112 
L 269.015821 -50.112 
L 269.666431 -50.112 
L 270.317041 -50.112 
L 270.967652 -50.112 
L 271.618262 -50.112 
L 272.268872 -50.112 
L 272.919483 -50.112 
L 273.570093 -50.112 
L 274.220703 -50.112 
L 274.871314 -50.112 
L 275.521924 -50.112 
L 276.172534 -50.112 
L 276.823144 -50.112 
L 277.473755 -50.112 
L 278.124365 -50.112 
L 278.774975 -50.112 
L 279.425586 -50.112 
L 280.076196 -50.112 
L 280.726806 -50.112 
L 281.377417 -50.112 
L 282.028027 -50.112 
L 282.678637 -50.112 
L 283.329248 -50.112 
L 283.979858 -50.112 
L 284.630468 -50.112 
L 285.281079 -50.112 
L 285.931689 -50.112 
L 286.582299 -50.112 
L 287.232909 -50.112 
L 287.88352 -50.112 
L 288.53413 -50.112 
L 289.18474 -50.112 
L 289.835351 -50.112 
L 290.485961 -50.112 
L 291.136571 -50.112 
L 291.787182 -50.112 
L 292.437792 -50.112 
L 293.088402 -50.112 
L 293.739013 -50.112 
L 294.389623 -50.112 
L 295.040233 -50.112 
L 295.690844 -50.112 
L 296.341454 -50.112 
L 296.992064 -50.112 
L 297.642674 -50.112 
L 298.293285 -50.112 
L 298.943895 -50.112 
L 299.594505 -50.112 
L 300.245116 -50.112 
L 300.895726 -50.112 
L 301.546336 -50.112 
L 302.196947 -50.112 
L 302.847557 -50.112 
L 303.498167 -50.112 
L 304.148778 -50.112 
L 304.799388 -50.112 
L 305.449998 -50.112 
L 306.100608 -50.112 
L 306.751219 -50.112 
L 307.401829 -50.112 
L 308.052439 -50.112 
L 308.70305 -50.112 
L 309.35366 -50.112 
L 310.00427 -50.112 
L 310.654881 -50.112 
L 311.305491 -50.112 
L 311.956101 -50.112 
L 312.606712 -50.112 
L 313.257322 -50.112 
L 313.907932 -50.112 
L 314.558543 -50.112 
L 315.209153 -50.112 
L 315.859763 -50.112 
L 316.510373 -50.112 
L 317.160984 -50.112 
L 317.811594 -50.112 
L 318.462204 -50.112 
L 319.112815 -50.112 
L 319.763425 -50.112 
L 320.414035 -50.112 
L 321.064646 -50.112 
L 321.715256 -50.112 
L 322.365866 -50.112 
L 323.016477 -50.112 
L 323.667087 -50.112 
L 324.317697 -50.112 
L 324.968308 -50.112 
L 325.618918 -50.112 
L 326.269528 -50.112 
L 326.920138 -50.112 
L 327.570749 -50.112 
L 328.221359 -50.112 
L 328.871969 -50.112 
L 329.52258 -50.112 
L 330.17319 -50.112 
L 330.8238 -50.112 
L 331.474411 -50.112 
L 332.125021 -50.112 
L 332.775631 -50.112 
L 333.426242 -50.112 
L 334.076852 -50.112 
L 334.727462 -50.112 
L 335.378073 -50.112 
L 336.028683 -50.112 
L 336.679293 -50.112 
L 337.329903 -50.112 
L 337.980514 -50.112 
L 338.631124 -50.112 
L 339.281734 -50.112 
L 339.932345 -50.112 
L 340.582955 -50.112 
L 341.233565 -50.112 
L 341.884176 -50.112 
L 342.534786 -50.112 
L 343.185396 -50.112 
L 343.836007 -50.112 
L 344.486617 -50.112 
L 345.137227 -50.112 
L 345.787837 -50.112 
L 346.438448 -50.112 
L 347.089058 -50.112 
L 347.739668 -50.112 
L 348.390279 -50.112 
L 349.040889 -50.112 
L 349.691499 -50.112 
L 350.34211 -50.112 
L 350.99272 -50.112 
L 351.64333 -50.112 
L 352.293941 -50.112 
L 352.944551 -50.112 
L 353.595161 -50.112 
L 354.245772 -50.112 
L 354.896382 -50.112 
L 355.546992 -50.112 
L 356.197602 -50.112 
L 356.848213 -50.112 
L 357.498823 -50.112 
L 358.149433 -50.112 
L 358.800044 -50.112 
L 359.450654 -50.112 
L 360.101264 -50.112 
L 360.751875 -50.112 
L 361.402485 -50.112 
L 362.053095 -50.112 
L 362.703706 -50.112 
L 363.354316 -50.112 
L 364.004926 -50.112 
L 364.655537 -50.112 
L 365.306147 -50.112 
L 365.956757 -50.112 
L 366.607367 -50.112 
L 367.257978 -50.112 
L 367.908588 -50.112 
L 368.559198 -50.112 
L 369.209809 -50.112 
L 369.860419 -50.112 
L 370.511029 -50.112 
L 371.16164 -50.112 
L 371.81225 -50.112 
L 372.46286 -50.112 
L 373.113471 -50.112 
L 373.764081 -50.112 
L 374.414691 -50.112 
L 375.065302 -50.112 
L 375.715912 -50.112 
L 376.366522 -50.112 
L 377.017132 -50.112 
L 377.667743 -50.112 
L 378.318353 -50.112 
L 378.968963 -50.112 
L 379.619574 -50.112 
L 380.270184 -50.112 
L 380.920794 -50.112 
L 381.571405 -50.112 
L 382.222015 -50.112 
L 382.872625 -50.112 
L 383.523236 -50.112 
L 384.173846 -50.112 
L 384.824456 -50.112 
L 385.475066 -50.112 
L 386.125677 -50.112 
L 386.776287 -50.112 
L 387.426897 -50.112 
L 388.077508 -50.112 
L 388.728118 -50.112 
L 389.378728 -50.112 
L 390.029339 -50.112 
L 390.679949 -50.112 
L 391.330559 -50.112 
L 391.98117 -50.112 
L 392.63178 -50.112 
L 393.28239 -50.112 
L 393.933001 -50.112 
L 394.583611 -50.112 
L 395.234221 -50.112 
L 395.884831 -50.112 
L 396.535442 -50.112 
L 397.186052 -50.112 
L 397.836662 -50.112 
L 398.487273 -50.112 
L 398.487273 -50.112 
L 398.487273 -50.112 
L 397.836662 -50.113336 
L 397.186052 -50.117328 
L 396.535442 -50.123949 
L 395.884831 -50.133169 
L 395.234221 -50.14495 
L 394.583611 -50.159247 
L 393.933001 -50.17601 
L 393.28239 -50.195176 
L 392.63178 -50.216674 
L 391.98117 -50.24042 
L 391.330559 -50.266315 
L 390.679949 -50.294245 
L 390.029339 -50.324074 
L 389.378728 -50.355648 
L 388.728118 -50.388784 
L 388.077508 -50.423272 
L 387.426897 -50.458871 
L 386.776287 -50.495304 
L 386.125677 -50.532256 
L 385.475066 -50.56937 
L 384.824456 -50.606252 
L 384.173846 -50.642464 
L 383.523236 -50.677536 
L 382.872625 -50.710975 
L 382.222015 -50.742276 
L 381.571405 -50.770954 
L 380.920794 -50.796571 
L 380.270184 -50.818784 
L 379.619574 -50.837392 
L 378.968963 -50.852403 
L 378.318353 -50.864083 
L 377.667743 -50.873008 
L 377.017132 -50.880097 
L 376.366522 -50.886599 
L 375.715912 -50.894053 
L 375.065302 -50.904202 
L 374.414691 -50.918865 
L 373.764081 -50.939795 
L 373.113471 -50.968542 
L 372.46286 -51.006336 
L 371.81225 -51.054018 
L 371.16164 -51.112014 
L 370.511029 -51.180364 
L 369.860419 -51.258775 
L 369.209809 -51.346702 
L 368.559198 -51.443427 
L 367.908588 -51.548142 
L 367.257978 -51.660006 
L 366.607367 -51.778196 
L 365.956757 -51.901942 
L 365.306147 -52.030543 
L 364.655537 -52.163377 
L 364.004926 -52.299905 
L 363.354316 -52.439666 
L 362.703706 -52.582269 
L 362.053095 -52.727391 
L 361.402485 -52.87476 
L 360.751875 -53.024155 
L 360.101264 -53.175394 
L 359.450654 -53.32833 
L 358.800044 -53.482841 
L 358.149433 -53.638829 
L 357.498823 -53.796216 
L 356.848213 -53.954934 
L 356.197602 -54.114932 
L 355.546992 -54.276165 
L 354.896382 -54.438595 
L 354.245772 -54.602191 
L 353.595161 -54.766926 
L 352.944551 -54.932775 
L 352.293941 -55.099717 
L 351.64333 -55.267732 
L 350.99272 -55.436799 
L 350.34211 -55.6069 
L 349.691499 -55.778016 
L 349.040889 -55.950129 
L 348.390279 -56.12322 
L 347.739668 -56.297269 
L 347.089058 -56.472256 
L 346.438448 -56.648161 
L 345.787837 -56.824963 
L 345.137227 -57.002639 
L 344.486617 -57.181166 
L 343.836007 -57.36052 
L 343.185396 -57.540677 
L 342.534786 -57.721612 
L 341.884176 -57.903296 
L 341.233565 -58.085705 
L 340.582955 -58.268808 
L 339.932345 -58.452579 
L 339.281734 -58.636986 
L 338.631124 -58.821999 
L 337.980514 -59.007587 
L 337.329903 -59.19372 
L 336.679293 -59.380362 
L 336.028683 -59.567483 
L 335.378073 -59.755049 
L 334.727462 -59.943024 
L 334.076852 -60.131376 
L 333.426242 -60.320068 
L 332.775631 -60.509067 
L 332.125021 -60.698336 
L 331.474411 -60.887841 
L 330.8238 -61.077548 
L 330.17319 -61.26742 
L 329.52258 -61.457425 
L 328.871969 -61.647529 
L 328.221359 -61.837699 
L 327.570749 -62.027904 
L 326.920138 -62.218114 
L 326.269528 -62.408302 
L 325.618918 -62.598441 
L 324.968308 -62.788509 
L 324.317697 -62.978487 
L 323.667087 -63.168358 
L 323.016477 -63.358112 
L 322.365866 -63.547741 
L 321.715256 -63.737245 
L 321.064646 -63.926631 
L 320.414035 -64.115912 
L 319.763425 -64.305112 
L 319.112815 -64.494263 
L 318.462204 -64.683409 
L 317.811594 -64.872606 
L 317.160984 -65.061926 
L 316.510373 -65.251453 
L 315.859763 -65.441292 
L 315.209153 -65.631567 
L 314.558543 -65.822421 
L 313.907932 -66.014023 
L 313.257322 -66.206567 
L 312.606712 -66.400278 
L 311.956101 -66.595408 
L 311.305491 -66.792247 
L 310.654881 -66.991121 
L 310.00427 -67.192396 
L 309.35366 -67.396484 
L 308.70305 -67.603842 
L 308.052439 -67.814981 
L 307.401829 -68.030464 
L 306.751219 -68.250918 
L 306.100608 -68.47703 
L 305.449998 -68.709556 
L 304.799388 -68.949327 
L 304.148778 -69.197249 
L 303.498167 -69.454312 
L 302.847557 -69.721593 
L 302.196947 -70.000263 
L 301.546336 -70.291589 
L 300.895726 -70.596943 
L 300.245116 -70.917803 
L 299.594505 -71.255764 
L 298.943895 -71.612535 
L 298.293285 -71.989953 
L 297.642674 -72.389979 
L 296.992064 -72.814708 
L 296.341454 -73.266368 
L 295.690844 -73.747327 
L 295.040233 -74.260091 
L 294.389623 -74.807304 
L 293.739013 -75.39175 
L 293.088402 -76.016345 
L 292.437792 -76.684133 
L 291.787182 -77.398278 
L 291.136571 -78.162049 
L 290.485961 -78.978803 
L 289.835351 -79.851967 
L 289.18474 -80.785003 
L 288.53413 -81.781382 
L 287.88352 -82.84454 
L 287.232909 -83.977825 
L 286.582299 -85.184447 
L 285.931689 -86.467405 
L 285.281079 -87.829414 
L 284.630468 -89.272818 
L 283.979858 -90.799497 
L 283.329248 -92.410759 
L 282.678637 -94.10723 
L 282.028027 -95.888733 
L 281.377417 -97.754166 
L 280.726806 -99.701378 
L 280.076196 -101.727038 
L 279.425586 -103.826527 
L 278.774975 -105.993819 
L 278.124365 -108.221394 
L 277.473755 -110.50016 
L 276.823144 -112.819408 
L 276.172534 -115.166793 
L 275.521924 -117.528355 
L 274.871314 -119.888572 
L 274.220703 -122.230467 
L 273.570093 -124.535754 
L 272.919483 -126.785024 
L 272.268872 -128.957987 
L 271.618262 -131.033745 
L 270.967652 -132.991101 
L 270.317041 -134.808906 
L 269.666431 -136.466416 
L 269.015821 -137.943667 
L 268.36521 -139.221855 
L 267.7146 -140.283703 
L 267.06399 -141.113814 
L 266.413379 -141.698999 
L 265.762769 -142.02857 
L 265.112159 -142.094589 
L 264.461549 -141.892079 
L 263.810938 -141.419174 
L 263.160328 -140.677226 
L 262.509718 -139.670859 
L 261.859107 -138.407965 
L 261.208497 -136.899655 
L 260.557887 -135.160166 
L 259.907276 -133.206722 
L 259.256666 -131.059353 
L 258.606056 -128.740692 
L 257.955445 -126.275728 
L 257.304835 -123.691549 
L 256.654225 -121.017055 
L 256.003615 -118.282662 
L 255.353004 -115.519991 
L 254.702394 -112.761551 
L 254.051784 -110.040418 
L 253.401173 -107.389917 
L 252.750563 -104.843294 
L 252.099953 -102.433408 
L 251.449342 -100.192418 
L 250.798732 -98.151486 
L 250.148122 -96.340486 
L 249.497511 -94.787731 
L 248.846901 -93.519713 
L 248.196291 -92.560859 
L 247.54568 -91.933301 
L 246.89507 -91.656678 
L 246.24446 -91.747946 
L 245.59385 -92.221216 
L 244.943239 -93.087617 
L 244.292629 -94.355183 
L 243.642019 -96.028759 
L 242.991408 -98.109947 
L 242.340798 -100.597064 
L 241.690188 -103.485137 
L 241.039577 -106.765922 
L 240.388967 -110.42795 
L 239.738357 -114.456604 
L 239.087746 -50.112 
L 238.437136 -50.112 
L 237.786526 -50.112 
L 237.135915 -50.112 
L 236.485305 -50.112 
L 235.834695 -50.112 
L 235.184085 -50.112 
L 234.533474 -50.112 
L 233.882864 -50.112 
L 233.232254 -50.112 
L 232.581643 -50.112 
L 231.931033 -50.112 
L 231.280423 -50.112 
L 230.629812 -50.112 
L 229.979202 -50.112 
L 229.328592 -50.112 
L 228.677981 -50.112 
L 228.027371 -50.112 
L 227.376761 -50.112 
L 226.72615 -50.112 
L 226.07554 -50.112 
L 225.42493 -50.112 
L 224.77432 -50.112 
L 224.123709 -50.112 
L 223.473099 -50.112 
L 222.822489 -50.112 
L 222.171878 -50.112 
L 221.521268 -50.112 
L 220.870658 -50.112 
L 220.220047 -50.112 
L 219.569437 -50.112 
L 218.918827 -50.112 
L 218.268216 -50.112 
L 217.617606 -50.112 
L 216.966996 -50.112 
L 216.316385 -50.112 
L 215.665775 -50.112 
L 215.015165 -50.112 
L 214.364555 -50.112 
L 213.713944 -50.112 
L 213.063334 -50.112 
L 212.412724 -50.112 
L 211.762113 -50.112 
L 211.111503 -50.112 
L 210.460893 -50.112 
L 209.810282 -50.112 
L 209.159672 -50.112 
L 208.509062 -50.112 
L 207.858451 -204.14388 
L 207.207841 -198.927193 
L 206.557231 -193.66206 
L 205.906621 -188.374138 
L 205.25601 -183.087878 
L 204.6054 -177.826362 
L 203.95479 -172.611173 
L 203.304179 -167.462279 
L 202.653569 -162.397944 
L 202.002959 -157.434672 
L 201.352348 -152.587162 
L 200.701738 -147.868295 
L 200.051128 -143.289143 
L 199.400517 -138.858999 
L 198.749907 -134.585424 
L 198.099297 -130.474315 
L 197.448686 -126.529983 
L 196.798076 -122.755253 
L 196.147466 -119.151565 
L 195.496856 -115.719084 
L 194.846245 -112.456824 
L 194.195635 -109.362766 
L 193.545025 -106.433976 
L 192.894414 -103.666732 
L 192.243804 -101.056636 
L 191.593194 -98.59873 
L 190.942583 -96.287601 
L 190.291973 -94.11748 
L 189.641363 -92.082338 
L 188.990752 -90.175966 
L 188.340142 -88.392051 
L 187.689532 -86.724246 
L 187.038921 -85.166224 
L 186.388311 -83.711732 
L 185.737701 -82.354633 
L 185.087091 -81.088937 
L 184.43648 -79.908836 
L 183.78587 -78.808721 
L 183.13526 -77.783204 
L 182.484649 -76.827123 
L 181.834039 -75.935558 
L 181.183429 -75.10383 
L 180.532818 -74.327501 
L 179.882208 -73.60238 
L 179.231598 -72.92451 
L 178.580987 -72.290169 
L 177.930377 -71.695863 
L 177.279767 -71.138315 
L 176.629156 -70.614462 
L 175.978546 -70.121442 
L 175.327936 -69.656585 
L 174.677326 -69.217409 
L 174.026715 -68.801604 
L 173.376105 -68.407029 
L 172.725495 -68.031698 
L 172.074884 -67.673775 
L 171.424274 -67.331564 
L 170.773664 -67.0035 
L 170.123053 -66.688145 
L 169.472443 -66.384176 
L 168.821833 -66.090378 
L 168.171222 -65.805643 
L 167.520612 -65.528954 
L 166.870002 -65.259387 
L 166.219392 -64.996101 
L 165.568781 -64.738334 
L 164.918171 -64.485395 
L 164.267561 -64.236664 
L 163.61695 -63.991579 
L 162.96634 -63.749641 
L 162.31573 -63.510403 
L 161.665119 -63.273468 
L 161.014509 -63.038486 
L 160.363899 -62.80515 
L 159.713288 -62.57319 
L 159.062678 -62.342376 
L 158.412068 -62.112509 
L 157.761457 -61.883421 
L 157.110847 -61.654974 
L 156.460237 -61.427055 
L 155.809627 -61.199574 
L 155.159016 -60.972466 
L 154.508406 -60.745684 
L 153.857796 -60.519201 
L 153.207185 -60.293008 
L 152.556575 -60.067112 
L 151.905965 -59.841535 
L 151.255354 -59.616314 
L 150.604744 -59.391499 
L 149.954134 -59.167152 
L 149.303523 -58.943348 
L 148.652913 -58.720175 
L 148.002303 -58.497729 
L 147.351692 -58.27612 
L 146.701082 -58.055464 
L 146.050472 -50.112 
L 145.399862 -50.112 
L 144.749251 -50.112 
L 144.098641 -50.112 
L 143.448031 -50.112 
L 142.79742 -50.112 
L 142.14681 -50.112 
L 141.4962 -50.112 
L 140.845589 -50.112 
L 140.194979 -50.112 
L 139.544369 -50.112 
L 138.893758 -50.112 
L 138.243148 -50.112 
L 137.592538 -50.112 
L 136.941927 -50.112 
L 136.291317 -50.112 
L 135.640707 -50.112 
L 134.990097 -50.112 
L 134.339486 -50.112 
L 133.688876 -50.112 
L 133.038266 -50.112 
L 132.387655 -50.112 
L 131.737045 -50.112 
L 131.086435 -50.112 
L 130.435824 -50.112 
L 129.785214 -50.112 
L 129.134604 -50.112 
L 128.483993 -50.112 
L 127.833383 -50.112 
L 127.182773 -50.112 
L 126.532163 -50.112 
L 125.881552 -50.112 
L 125.230942 -52.493334 
L 124.580332 -52.412199 
L 123.929721 -52.336997 
L 123.279111 -52.267565 
L 122.628501 -52.20371 
L 121.97789 -52.145207 
L 121.32728 -52.091801 
L 120.67667 -52.043215 
L 120.026059 -51.999145 
L 119.375449 -51.959269 
L 118.724839 -51.923249 
L 118.074228 -51.890735 
L 117.423618 -51.861368 
L 116.773008 -51.834784 
L 116.122398 -51.81062 
L 115.471787 -51.788517 
L 114.821177 -51.768121 
L 114.170567 -51.749091 
L 113.519956 -51.7311 
L 112.869346 -51.713836 
L 112.218736 -51.697007 
L 111.568125 -51.680342 
L 110.917515 -51.663594 
L 110.266905 -51.646536 
L 109.616294 -51.628968 
L 108.965684 -51.610715 
L 108.315074 -51.591625 
L 107.664463 -51.571571 
L 107.013853 -51.55045 
L 106.363243 -51.528182 
L 105.712633 -51.504707 
L 105.062022 -51.479986 
L 104.411412 -51.454001 
L 103.760802 -51.42675 
L 103.110191 -51.398246 
L 102.459581 -51.368519 
L 101.808971 -51.33761 
L 101.15836 -51.305574 
L 100.50775 -51.272474 
L 99.85714 -51.238382 
L 99.206529 -51.203379 
L 98.555919 -51.167551 
L 97.905309 -51.13099 
L 97.254698 -51.093791 
L 96.604088 -51.056053 
L 95.953478 -51.017877 
L 95.302868 -50.979365 
L 94.652257 -50.940621 
L 94.001647 -50.901748 
L 93.351037 -50.862848 
L 92.700426 -50.824023 
L 92.049816 -50.785374 
L 91.399206 -50.747 
L 90.748595 -50.708997 
L 90.097985 -50.67146 
L 89.447375 -50.634481 
L 88.796764 -50.59815 
L 88.146154 -50.562554 
L 87.495544 -50.527776 
L 86.844934 -50.493899 
L 86.194323 -50.461 
L 85.543713 -50.429155 
L 84.893103 -50.398438 
L 84.242492 -50.368919 
L 83.591882 -50.340665 
L 82.941272 -50.313743 
L 82.290661 -50.288217 
L 81.640051 -50.264147 
L 80.989441 -50.241594 
L 80.33883 -50.220617 
L 79.68822 -50.201276 
L 79.03761 -50.18363 
L 78.386999 -50.167738 
L 77.736389 -50.153665 
L 77.085779 -50.141478 
L 76.435169 -50.131252 
L 75.784558 -50.123073 
L 75.133948 -50.117045 
L 74.483338 -50.113297 
L 73.832727 -50.112 
z
" id="mbc469f91a1" style="stroke:#000000;"/>
    </defs>
    <g clip-path="url(#p501ebc6560)">
     <use style="fill:#ff0000;stroke:#000000;" x="0" xlink:href="#mbc469f91a1" y="345.6"/>
    </g>
   </g>
   <g id="PolyCollection_2">
    <defs>
     <path d="M 73.832727 -50.112 
L 73.832727 -50.112 
L 74.483338 -50.113297 
L 75.133948 -50.117045 
L 75.784558 -50.123073 
L 76.435169 -50.131252 
L 77.085779 -50.141478 
L 77.736389 -50.153665 
L 78.386999 -50.167738 
L 79.03761 -50.18363 
L 79.68822 -50.201276 
L 80.33883 -50.220617 
L 80.989441 -50.241594 
L 81.640051 -50.264147 
L 82.290661 -50.288217 
L 82.941272 -50.313743 
L 83.591882 -50.340665 
L 84.242492 -50.368919 
L 84.893103 -50.398438 
L 85.543713 -50.429155 
L 86.194323 -50.461 
L 86.844934 -50.493899 
L 87.495544 -50.527776 
L 88.146154 -50.562554 
L 88.796764 -50.59815 
L 89.447375 -50.634481 
L 90.097985 -50.67146 
L 90.748595 -50.708997 
L 91.399206 -50.747 
L 92.049816 -50.785374 
L 92.700426 -50.824023 
L 93.351037 -50.862848 
L 94.001647 -50.901748 
L 94.652257 -50.940621 
L 95.302868 -50.979365 
L 95.953478 -51.017877 
L 96.604088 -51.056053 
L 97.254698 -51.093791 
L 97.905309 -51.13099 
L 98.555919 -51.167551 
L 99.206529 -51.203379 
L 99.85714 -51.238382 
L 100.50775 -51.272474 
L 101.15836 -51.305574 
L 101.808971 -51.33761 
L 102.459581 -51.368519 
L 103.110191 -51.398246 
L 103.760802 -51.42675 
L 104.411412 -51.454001 
L 105.062022 -51.479986 
L 105.712633 -51.504707 
L 106.363243 -51.528182 
L 107.013853 -51.55045 
L 107.664463 -51.571571 
L 108.315074 -51.591625 
L 108.965684 -51.610715 
L 109.616294 -51.628968 
L 110.266905 -51.646536 
L 110.917515 -51.663594 
L 111.568125 -51.680342 
L 112.218736 -51.697007 
L 112.869346 -51.713836 
L 113.519956 -51.7311 
L 114.170567 -51.749091 
L 114.821177 -51.768121 
L 115.471787 -51.788517 
L 116.122398 -51.81062 
L 116.773008 -51.834784 
L 117.423618 -51.861368 
L 118.074228 -51.890735 
L 118.724839 -51.923249 
L 119.375449 -51.959269 
L 120.026059 -51.999145 
L 120.67667 -52.043215 
L 121.32728 -52.091801 
L 121.97789 -52.145207 
L 122.628501 -52.20371 
L 123.279111 -52.267565 
L 123.929721 -52.336997 
L 124.580332 -52.412199 
L 125.230942 -52.493334 
L 125.881552 -50.112 
L 126.532163 -50.112 
L 127.182773 -50.112 
L 127.833383 -50.112 
L 128.483993 -50.112 
L 129.134604 -50.112 
L 129.785214 -50.112 
L 130.435824 -50.112 
L 131.086435 -50.112 
L 131.737045 -50.112 
L 132.387655 -50.112 
L 133.038266 -50.112 
L 133.688876 -50.112 
L 134.339486 -50.112 
L 134.990097 -50.112 
L 135.640707 -50.112 
L 136.291317 -50.112 
L 136.941927 -50.112 
L 137.592538 -50.112 
L 138.243148 -50.112 
L 138.893758 -50.112 
L 139.544369 -50.112 
L 140.194979 -50.112 
L 140.845589 -50.112 
L 141.4962 -50.112 
L 142.14681 -50.112 
L 142.79742 -50.112 
L 143.448031 -50.112 
L 144.098641 -50.112 
L 144.749251 -50.112 
L 145.399862 -50.112 
L 146.050472 -50.112 
L 146.701082 -58.055464 
L 147.351692 -58.27612 
L 148.002303 -58.497729 
L 148.652913 -58.720175 
L 149.303523 -58.943348 
L 149.954134 -59.167152 
L 150.604744 -59.391499 
L 151.255354 -59.616314 
L 151.905965 -59.841535 
L 152.556575 -60.067112 
L 153.207185 -60.293008 
L 153.857796 -60.519201 
L 154.508406 -60.745684 
L 155.159016 -60.972466 
L 155.809627 -61.199574 
L 156.460237 -61.427055 
L 157.110847 -61.654974 
L 157.761457 -61.883421 
L 158.412068 -62.112509 
L 159.062678 -62.342376 
L 159.713288 -62.57319 
L 160.363899 -62.80515 
L 161.014509 -63.038486 
L 161.665119 -63.273468 
L 162.31573 -63.510403 
L 162.96634 -63.749641 
L 163.61695 -63.991579 
L 164.267561 -64.236664 
L 164.918171 -64.485395 
L 165.568781 -64.738334 
L 166.219392 -64.996101 
L 166.870002 -65.259387 
L 167.520612 -65.528954 
L 168.171222 -65.805643 
L 168.821833 -66.090378 
L 169.472443 -66.384176 
L 170.123053 -66.688145 
L 170.773664 -67.0035 
L 171.424274 -67.331564 
L 172.074884 -67.673775 
L 172.725495 -68.031698 
L 173.376105 -68.407029 
L 174.026715 -68.801604 
L 174.677326 -69.217409 
L 175.327936 -69.656585 
L 175.978546 -70.121442 
L 176.629156 -70.614462 
L 177.279767 -71.138315 
L 177.930377 -71.695863 
L 178.580987 -72.290169 
L 179.231598 -72.92451 
L 179.882208 -73.60238 
L 180.532818 -74.327501 
L 181.183429 -75.10383 
L 181.834039 -75.935558 
L 182.484649 -76.827123 
L 183.13526 -77.783204 
L 183.78587 -78.808721 
L 184.43648 -79.908836 
L 185.087091 -81.088937 
L 185.737701 -82.354633 
L 186.388311 -83.711732 
L 187.038921 -85.166224 
L 187.689532 -86.724246 
L 188.340142 -88.392051 
L 188.990752 -90.175966 
L 189.641363 -92.082338 
L 190.291973 -94.11748 
L 190.942583 -96.287601 
L 191.593194 -98.59873 
L 192.243804 -101.056636 
L 192.894414 -103.666732 
L 193.545025 -106.433976 
L 194.195635 -109.362766 
L 194.846245 -112.456824 
L 195.496856 -115.719084 
L 196.147466 -119.151565 
L 196.798076 -122.755253 
L 197.448686 -126.529983 
L 198.099297 -130.474315 
L 198.749907 -134.585424 
L 199.400517 -138.858999 
L 200.051128 -143.289143 
L 200.701738 -147.868295 
L 201.352348 -152.587162 
L 202.002959 -157.434672 
L 202.653569 -162.397944 
L 203.304179 -167.462279 
L 203.95479 -172.611173 
L 204.6054 -177.826362 
L 205.25601 -183.087878 
L 205.906621 -188.374138 
L 206.557231 -193.66206 
L 207.207841 -198.927193 
L 207.858451 -204.14388 
L 208.509062 -50.112 
L 209.159672 -50.112 
L 209.810282 -50.112 
L 210.460893 -50.112 
L 211.111503 -50.112 
L 211.762113 -50.112 
L 212.412724 -50.112 
L 213.063334 -50.112 
L 213.713944 -50.112 
L 214.364555 -50.112 
L 215.015165 -50.112 
L 215.665775 -50.112 
L 216.316385 -50.112 
L 216.966996 -50.112 
L 217.617606 -50.112 
L 218.268216 -50.112 
L 218.918827 -50.112 
L 219.569437 -50.112 
L 220.220047 -50.112 
L 220.870658 -50.112 
L 221.521268 -50.112 
L 222.171878 -50.112 
L 222.822489 -50.112 
L 223.473099 -50.112 
L 224.123709 -50.112 
L 224.77432 -50.112 
L 225.42493 -50.112 
L 226.07554 -50.112 
L 226.72615 -50.112 
L 227.376761 -50.112 
L 228.027371 -50.112 
L 228.677981 -50.112 
L 229.328592 -50.112 
L 229.979202 -50.112 
L 230.629812 -50.112 
L 231.280423 -50.112 
L 231.931033 -50.112 
L 232.581643 -50.112 
L 233.232254 -50.112 
L 233.882864 -50.112 
L 234.533474 -50.112 
L 235.184085 -50.112 
L 235.834695 -50.112 
L 236.485305 -50.112 
L 237.135915 -50.112 
L 237.786526 -50.112 
L 238.437136 -50.112 
L 239.087746 -50.112 
L 239.738357 -114.456604 
L 240.388967 -110.42795 
L 241.039577 -106.765922 
L 241.690188 -103.485137 
L 242.340798 -100.597064 
L 242.991408 -98.109947 
L 243.642019 -96.028759 
L 244.292629 -94.355183 
L 244.943239 -93.087617 
L 245.59385 -92.221216 
L 246.24446 -91.747946 
L 246.89507 -91.656678 
L 247.54568 -91.933301 
L 248.196291 -92.560859 
L 248.846901 -93.519713 
L 249.497511 -94.787731 
L 250.148122 -96.340486 
L 250.798732 -98.151486 
L 251.449342 -100.192418 
L 252.099953 -102.433408 
L 252.750563 -104.843294 
L 253.401173 -107.389917 
L 254.051784 -110.040418 
L 254.702394 -112.761551 
L 255.353004 -115.519991 
L 256.003615 -118.282662 
L 256.654225 -121.017055 
L 257.304835 -123.691549 
L 257.955445 -126.275728 
L 258.606056 -128.740692 
L 259.256666 -131.059353 
L 259.907276 -133.206722 
L 260.557887 -135.160166 
L 261.208497 -136.899655 
L 261.859107 -138.407965 
L 262.509718 -139.670859 
L 263.160328 -140.677226 
L 263.810938 -141.419174 
L 264.461549 -141.892079 
L 265.112159 -142.094589 
L 265.762769 -142.02857 
L 266.413379 -141.698999 
L 267.06399 -141.113814 
L 267.7146 -140.283703 
L 268.36521 -139.221855 
L 269.015821 -137.943667 
L 269.666431 -136.466416 
L 270.317041 -134.808906 
L 270.967652 -132.991101 
L 271.618262 -131.033745 
L 272.268872 -128.957987 
L 272.919483 -126.785024 
L 273.570093 -124.535754 
L 274.220703 -122.230467 
L 274.871314 -119.888572 
L 275.521924 -117.528355 
L 276.172534 -115.166793 
L 276.823144 -112.819408 
L 277.473755 -110.50016 
L 278.124365 -108.221394 
L 278.774975 -105.993819 
L 279.425586 -103.826527 
L 280.076196 -101.727038 
L 280.726806 -99.701378 
L 281.377417 -97.754166 
L 282.028027 -95.888733 
L 282.678637 -94.10723 
L 283.329248 -92.410759 
L 283.979858 -90.799497 
L 284.630468 -89.272818 
L 285.281079 -87.829414 
L 285.931689 -86.467405 
L 286.582299 -85.184447 
L 287.232909 -83.977825 
L 287.88352 -82.84454 
L 288.53413 -81.781382 
L 289.18474 -80.785003 
L 289.835351 -79.851967 
L 290.485961 -78.978803 
L 291.136571 -78.162049 
L 291.787182 -77.398278 
L 292.437792 -76.684133 
L 293.088402 -76.016345 
L 293.739013 -75.39175 
L 294.389623 -74.807304 
L 295.040233 -74.260091 
L 295.690844 -73.747327 
L 296.341454 -73.266368 
L 296.992064 -72.814708 
L 297.642674 -72.389979 
L 298.293285 -71.989953 
L 298.943895 -71.612535 
L 299.594505 -71.255764 
L 300.245116 -70.917803 
L 300.895726 -70.596943 
L 301.546336 -70.291589 
L 302.196947 -70.000263 
L 302.847557 -69.721593 
L 303.498167 -69.454312 
L 304.148778 -69.197249 
L 304.799388 -68.949327 
L 305.449998 -68.709556 
L 306.100608 -68.47703 
L 306.751219 -68.250918 
L 307.401829 -68.030464 
L 308.052439 -67.814981 
L 308.70305 -67.603842 
L 309.35366 -67.396484 
L 310.00427 -67.192396 
L 310.654881 -66.991121 
L 311.305491 -66.792247 
L 311.956101 -66.595408 
L 312.606712 -66.400278 
L 313.257322 -66.206567 
L 313.907932 -66.014023 
L 314.558543 -65.822421 
L 315.209153 -65.631567 
L 315.859763 -65.441292 
L 316.510373 -65.251453 
L 317.160984 -65.061926 
L 317.811594 -64.872606 
L 318.462204 -64.683409 
L 319.112815 -64.494263 
L 319.763425 -64.305112 
L 320.414035 -64.115912 
L 321.064646 -63.926631 
L 321.715256 -63.737245 
L 322.365866 -63.547741 
L 323.016477 -63.358112 
L 323.667087 -63.168358 
L 324.317697 -62.978487 
L 324.968308 -62.788509 
L 325.618918 -62.598441 
L 326.269528 -62.408302 
L 326.920138 -62.218114 
L 327.570749 -62.027904 
L 328.221359 -61.837699 
L 328.871969 -61.647529 
L 329.52258 -61.457425 
L 330.17319 -61.26742 
L 330.8238 -61.077548 
L 331.474411 -60.887841 
L 332.125021 -60.698336 
L 332.775631 -60.509067 
L 333.426242 -60.320068 
L 334.076852 -60.131376 
L 334.727462 -59.943024 
L 335.378073 -59.755049 
L 336.028683 -59.567483 
L 336.679293 -59.380362 
L 337.329903 -59.19372 
L 337.980514 -59.007587 
L 338.631124 -58.821999 
L 339.281734 -58.636986 
L 339.932345 -58.452579 
L 340.582955 -58.268808 
L 341.233565 -58.085705 
L 341.884176 -57.903296 
L 342.534786 -57.721612 
L 343.185396 -57.540677 
L 343.836007 -57.36052 
L 344.486617 -57.181166 
L 345.137227 -57.002639 
L 345.787837 -56.824963 
L 346.438448 -56.648161 
L 347.089058 -56.472256 
L 347.739668 -56.297269 
L 348.390279 -56.12322 
L 349.040889 -55.950129 
L 349.691499 -55.778016 
L 350.34211 -55.6069 
L 350.99272 -55.436799 
L 351.64333 -55.267732 
L 352.293941 -55.099717 
L 352.944551 -54.932775 
L 353.595161 -54.766926 
L 354.245772 -54.602191 
L 354.896382 -54.438595 
L 355.546992 -54.276165 
L 356.197602 -54.114932 
L 356.848213 -53.954934 
L 357.498823 -53.796216 
L 358.149433 -53.638829 
L 358.800044 -53.482841 
L 359.450654 -53.32833 
L 360.101264 -53.175394 
L 360.751875 -53.024155 
L 361.402485 -52.87476 
L 362.053095 -52.727391 
L 362.703706 -52.582269 
L 363.354316 -52.439666 
L 364.004926 -52.299905 
L 364.655537 -52.163377 
L 365.306147 -52.030543 
L 365.956757 -51.901942 
L 366.607367 -51.778196 
L 367.257978 -51.660006 
L 367.908588 -51.548142 
L 368.559198 -51.443427 
L 369.209809 -51.346702 
L 369.860419 -51.258775 
L 370.511029 -51.180364 
L 371.16164 -51.112014 
L 371.81225 -51.054018 
L 372.46286 -51.006336 
L 373.113471 -50.968542 
L 373.764081 -50.939795 
L 374.414691 -50.918865 
L 375.065302 -50.904202 
L 375.715912 -50.894053 
L 376.366522 -50.886599 
L 377.017132 -50.880097 
L 377.667743 -50.873008 
L 378.318353 -50.864083 
L 378.968963 -50.852403 
L 379.619574 -50.837392 
L 380.270184 -50.818784 
L 380.920794 -50.796571 
L 381.571405 -50.770954 
L 382.222015 -50.742276 
L 382.872625 -50.710975 
L 383.523236 -50.677536 
L 384.173846 -50.642464 
L 384.824456 -50.606252 
L 385.475066 -50.56937 
L 386.125677 -50.532256 
L 386.776287 -50.495304 
L 387.426897 -50.458871 
L 388.077508 -50.423272 
L 388.728118 -50.388784 
L 389.378728 -50.355648 
L 390.029339 -50.324074 
L 390.679949 -50.294245 
L 391.330559 -50.266315 
L 391.98117 -50.24042 
L 392.63178 -50.216674 
L 393.28239 -50.195176 
L 393.933001 -50.17601 
L 394.583611 -50.159247 
L 395.234221 -50.14495 
L 395.884831 -50.133169 
L 396.535442 -50.123949 
L 397.186052 -50.117328 
L 397.836662 -50.113336 
L 398.487273 -50.112 
L 398.487273 -50.112 
L 398.487273 -50.112 
L 397.836662 -50.623296 
L 397.186052 -51.089211 
L 396.535442 -51.510852 
L 395.884831 -51.889409 
L 395.234221 -52.226154 
L 394.583611 -52.522436 
L 393.933001 -52.779683 
L 393.28239 -52.999395 
L 392.63178 -53.18314 
L 391.98117 -53.332555 
L 391.330559 -53.44934 
L 390.679949 -53.535253 
L 390.029339 -53.59211 
L 389.378728 -53.62178 
L 388.728118 -53.626179 
L 388.077508 -53.607272 
L 387.426897 -53.567061 
L 386.776287 -53.507588 
L 386.125677 -53.43093 
L 385.475066 -53.339192 
L 384.824456 -53.234504 
L 384.173846 -53.119019 
L 383.523236 -52.994909 
L 382.872625 -52.864355 
L 382.222015 -52.729553 
L 381.571405 -52.592701 
L 380.920794 -52.455999 
L 380.270184 -52.321644 
L 379.619574 -52.191826 
L 378.968963 -52.068724 
L 378.318353 -51.954504 
L 377.667743 -51.851311 
L 377.017132 -51.761266 
L 376.366522 -51.686467 
L 375.715912 -51.628978 
L 375.065302 -51.59083 
L 374.414691 -51.574017 
L 373.764081 -51.580488 
L 373.113471 -51.61215 
L 372.46286 -51.67086 
L 371.81225 -51.758423 
L 371.16164 -51.876587 
L 370.511029 -52.027045 
L 369.860419 -52.211425 
L 369.209809 -52.431292 
L 368.559198 -52.688142 
L 367.908588 -52.983403 
L 367.257978 -53.318428 
L 366.607367 -53.694495 
L 365.956757 -54.112805 
L 365.306147 -54.574479 
L 364.655537 -55.080555 
L 364.004926 -55.631989 
L 363.354316 -56.229648 
L 362.703706 -56.874315 
L 362.053095 -57.566682 
L 361.402485 -58.307351 
L 360.751875 -59.096833 
L 360.101264 -59.935545 
L 359.450654 -60.823813 
L 358.800044 -61.761866 
L 358.149433 -62.74984 
L 357.498823 -63.787777 
L 356.848213 -64.87562 
L 356.197602 -66.013219 
L 355.546992 -67.200328 
L 354.896382 -68.436605 
L 354.245772 -69.721615 
L 353.595161 -71.054826 
L 352.944551 -72.435615 
L 352.293941 -73.863263 
L 351.64333 -75.336962 
L 350.99272 -76.855811 
L 350.34211 -78.418822 
L 349.691499 -80.024918 
L 349.040889 -81.672933 
L 348.390279 -83.36162 
L 347.739668 -85.089648 
L 347.089058 -86.855605 
L 346.438448 -88.657999 
L 345.787837 -90.495263 
L 345.137227 -92.365756 
L 344.486617 -94.267766 
L 343.836007 -96.19951 
L 343.185396 -98.15914 
L 342.534786 -100.144746 
L 341.884176 -102.154355 
L 341.233565 -104.185939 
L 340.582955 -106.237415 
L 339.932345 -108.306649 
L 339.281734 -110.39146 
L 338.631124 -112.489623 
L 337.980514 -114.598871 
L 337.329903 -116.716902 
L 336.679293 -118.841381 
L 336.028683 -120.969942 
L 335.378073 -123.100196 
L 334.727462 -125.22973 
L 334.076852 -127.356115 
L 333.426242 -129.476909 
L 332.775631 -131.58966 
L 332.125021 -133.691911 
L 331.474411 -135.781206 
L 330.8238 -137.855093 
L 330.17319 -139.911126 
L 329.52258 -141.946876 
L 328.871969 -143.95993 
L 328.221359 -145.947898 
L 327.570749 -147.908417 
L 326.920138 -149.839161 
L 326.269528 -151.737837 
L 325.618918 -153.602198 
L 324.968308 -155.430048 
L 324.317697 -157.219243 
L 323.667087 -158.967699 
L 323.016477 -160.673402 
L 322.365866 -162.334408 
L 321.715256 -163.948851 
L 321.064646 -165.514952 
L 320.414035 -167.031024 
L 319.763425 -168.495476 
L 319.112815 -169.906827 
L 318.462204 -171.263703 
L 317.811594 -172.564854 
L 317.160984 -173.809153 
L 316.510373 -174.995609 
L 315.859763 -176.123373 
L 315.209153 -177.191743 
L 314.558543 -178.200173 
L 313.907932 -179.148279 
L 313.257322 -180.03585 
L 312.606712 -180.862848 
L 311.956101 -181.62942 
L 311.305491 -182.335902 
L 310.654881 -182.982825 
L 310.00427 -183.570917 
L 309.35366 -184.101114 
L 308.70305 -184.574557 
L 308.052439 -184.992598 
L 307.401829 -185.356801 
L 306.751219 -185.668942 
L 306.100608 -185.931008 
L 305.449998 -186.145196 
L 304.799388 -186.313909 
L 304.148778 -186.439749 
L 303.498167 -186.525511 
L 302.847557 -186.574176 
L 302.196947 -186.588894 
L 301.546336 -186.572978 
L 300.895726 -186.529884 
L 300.245116 -186.463193 
L 299.594505 -186.376595 
L 298.943895 -186.273862 
L 298.293285 -186.158828 
L 297.642674 -186.035359 
L 296.992064 -185.907323 
L 296.341454 -185.778564 
L 295.690844 -185.652862 
L 295.040233 -185.533904 
L 294.389623 -185.42524 
L 293.739013 -185.330254 
L 293.088402 -185.252116 
L 292.437792 -185.193747 
L 291.787182 -185.157775 
L 291.136571 -185.146496 
L 290.485961 -185.161833 
L 289.835351 -185.205295 
L 289.18474 -185.27794 
L 288.53413 -185.380336 
L 287.88352 -185.512528 
L 287.232909 -185.674004 
L 286.582299 -185.863668 
L 285.931689 -186.079815 
L 285.281079 -186.320111 
L 284.630468 -186.581575 
L 283.979858 -186.860572 
L 283.329248 -187.152811 
L 282.678637 -187.453341 
L 282.028027 -187.756568 
L 281.377417 -188.056267 
L 280.726806 -188.34561 
L 280.076196 -188.617196 
L 279.425586 -188.86309 
L 278.774975 -189.074877 
L 278.124365 -189.243714 
L 277.473755 -189.360397 
L 276.823144 -189.41543 
L 276.172534 -189.399112 
L 275.521924 -189.301616 
L 274.871314 -189.11309 
L 274.220703 -188.823753 
L 273.570093 -188.424001 
L 272.919483 -187.904517 
L 272.268872 -187.256384 
L 271.618262 -186.471202 
L 270.967652 -185.541204 
L 270.317041 -184.459373 
L 269.666431 -183.219562 
L 269.015821 -181.816603 
L 268.36521 -180.246425 
L 267.7146 -178.506152 
L 267.06399 -176.594209 
L 266.413379 -174.510409 
L 265.762769 -172.25604 
L 265.112159 -169.833936 
L 264.461549 -167.248537 
L 263.810938 -164.50594 
L 263.160328 -161.613931 
L 262.509718 -158.582006 
L 261.859107 -155.421377 
L 261.208497 -152.144958 
L 260.557887 -148.767336 
L 259.907276 -145.30473 
L 259.256666 -141.774919 
L 258.606056 -138.197172 
L 257.955445 -134.592142 
L 257.304835 -130.981755 
L 256.654225 -127.389081 
L 256.003615 -123.838184 
L 255.353004 -120.353965 
L 254.702394 -116.961985 
L 254.051784 -113.688282 
L 253.401173 -110.559172 
L 252.750563 -107.601047 
L 252.099953 -104.840158 
L 251.449342 -102.302405 
L 250.798732 -100.013108 
L 250.148122 -97.996792 
L 249.497511 -96.276967 
L 248.846901 -94.875905 
L 248.196291 -93.814438 
L 247.54568 -93.111747 
L 246.89507 -92.785173 
L 246.24446 -92.850035 
L 245.59385 -93.319461 
L 244.943239 -94.20424 
L 244.292629 -95.512687 
L 243.642019 -97.250525 
L 242.991408 -99.420798 
L 242.340798 -102.023793 
L 241.690188 -105.056993 
L 241.039577 -108.515051 
L 240.388967 -112.389789 
L 239.738357 -116.670218 
L 239.087746 -50.112 
L 238.437136 -50.112 
L 237.786526 -50.112 
L 237.135915 -50.112 
L 236.485305 -50.112 
L 235.834695 -50.112 
L 235.184085 -50.112 
L 234.533474 -50.112 
L 233.882864 -50.112 
L 233.232254 -50.112 
L 232.581643 -50.112 
L 231.931033 -50.112 
L 231.280423 -50.112 
L 230.629812 -50.112 
L 229.979202 -50.112 
L 229.328592 -50.112 
L 228.677981 -50.112 
L 228.027371 -50.112 
L 227.376761 -50.112 
L 226.72615 -50.112 
L 226.07554 -50.112 
L 225.42493 -50.112 
L 224.77432 -50.112 
L 224.123709 -50.112 
L 223.473099 -50.112 
L 222.822489 -50.112 
L 222.171878 -50.112 
L 221.521268 -50.112 
L 220.870658 -50.112 
L 220.220047 -50.112 
L 219.569437 -50.112 
L 218.918827 -50.112 
L 218.268216 -50.112 
L 217.617606 -50.112 
L 216.966996 -50.112 
L 216.316385 -50.112 
L 215.665775 -50.112 
L 215.015165 -50.112 
L 214.364555 -50.112 
L 213.713944 -50.112 
L 213.063334 -50.112 
L 212.412724 -50.112 
L 211.762113 -50.112 
L 211.111503 -50.112 
L 210.460893 -50.112 
L 209.810282 -50.112 
L 209.159672 -50.112 
L 208.509062 -50.112 
L 207.858451 -292.032 
L 207.207841 -288.161354 
L 206.557231 -284.093896 
L 205.906621 -279.852042 
L 205.25601 -275.458057 
L 204.6054 -270.933915 
L 203.95479 -266.301159 
L 203.304179 -261.58078 
L 202.653569 -256.793104 
L 202.002959 -251.957685 
L 201.352348 -247.093218 
L 200.701738 -242.217456 
L 200.051128 -237.347145 
L 199.400517 -232.497965 
L 198.749907 -227.68449 
L 198.099297 -222.920152 
L 197.448686 -218.217218 
L 196.798076 -213.586786 
L 196.147466 -209.038776 
L 195.496856 -204.581941 
L 194.846245 -200.22389 
L 194.195635 -195.971104 
L 193.545025 -191.828977 
L 192.894414 -187.801854 
L 192.243804 -183.893071 
L 191.593194 -180.105014 
L 190.942583 -176.439166 
L 190.291973 -172.896172 
L 189.641363 -169.475895 
L 188.990752 -166.177479 
L 188.340142 -162.999417 
L 187.689532 -159.939609 
L 187.038921 -156.995435 
L 186.388311 -154.163809 
L 185.737701 -151.441249 
L 185.087091 -148.823936 
L 184.43648 -146.307771 
L 183.78587 -143.88843 
L 183.13526 -141.561424 
L 182.484649 -139.322141 
L 181.834039 -137.165899 
L 181.183429 -135.087987 
L 180.532818 -133.083707 
L 179.882208 -131.148407 
L 179.231598 -129.277518 
L 178.580987 -127.46658 
L 177.930377 -125.711268 
L 177.279767 -124.007418 
L 176.629156 -122.351039 
L 175.978546 -120.738336 
L 175.327936 -119.165714 
L 174.677326 -117.629796 
L 174.026715 -116.127425 
L 173.376105 -114.655668 
L 172.725495 -113.211819 
L 172.074884 -111.793402 
L 171.424274 -110.398161 
L 170.773664 -109.024065 
L 170.123053 -107.669297 
L 169.472443 -106.33225 
L 168.821833 -105.011517 
L 168.171222 -103.705884 
L 167.520612 -102.414323 
L 166.870002 -101.135976 
L 166.219392 -99.870151 
L 165.568781 -98.616306 
L 164.918171 -97.374041 
L 164.267561 -96.143088 
L 163.61695 -94.923296 
L 162.96634 -93.714625 
L 162.31573 -92.517131 
L 161.665119 -91.330961 
L 161.014509 -90.156335 
L 160.363899 -88.993547 
L 159.713288 -87.842944 
L 159.062678 -86.704927 
L 158.412068 -85.579939 
L 157.761457 -84.468454 
L 157.110847 -83.370976 
L 156.460237 -82.288027 
L 155.809627 -81.220143 
L 155.159016 -80.167866 
L 154.508406 -79.131743 
L 153.857796 -78.112316 
L 153.207185 -77.11012 
L 152.556575 -76.125679 
L 151.905965 -75.159502 
L 151.255354 -74.212077 
L 150.604744 -73.283873 
L 149.954134 -72.375335 
L 149.303523 -71.48688 
L 148.652913 -70.618897 
L 148.002303 -69.771745 
L 147.351692 -68.945753 
L 146.701082 -68.141214 
L 146.050472 -50.112 
L 145.399862 -50.112 
L 144.749251 -50.112 
L 144.098641 -50.112 
L 143.448031 -50.112 
L 142.79742 -50.112 
L 142.14681 -50.112 
L 141.4962 -50.112 
L 140.845589 -50.112 
L 140.194979 -50.112 
L 139.544369 -50.112 
L 138.893758 -50.112 
L 138.243148 -50.112 
L 137.592538 -50.112 
L 136.941927 -50.112 
L 136.291317 -50.112 
L 135.640707 -50.112 
L 134.990097 -50.112 
L 134.339486 -50.112 
L 133.688876 -50.112 
L 133.038266 -50.112 
L 132.387655 -50.112 
L 131.737045 -50.112 
L 131.086435 -50.112 
L 130.435824 -50.112 
L 129.785214 -50.112 
L 129.134604 -50.112 
L 128.483993 -50.112 
L 127.833383 -50.112 
L 127.182773 -50.112 
L 126.532163 -50.112 
L 125.881552 -50.112 
L 125.230942 -53.561203 
L 124.580332 -53.426987 
L 123.929721 -53.305268 
L 123.279111 -53.195447 
L 122.628501 -53.096922 
L 121.97789 -53.009089 
L 121.32728 -52.931344 
L 120.67667 -52.863083 
L 120.026059 -52.803706 
L 119.375449 -52.752614 
L 118.724839 -52.709214 
L 118.074228 -52.672918 
L 117.423618 -52.643147 
L 116.773008 -52.619327 
L 116.122398 -52.600896 
L 115.471787 -52.587302 
L 114.821177 -52.578003 
L 114.170567 -52.572471 
L 113.519956 -52.570191 
L 112.869346 -52.570663 
L 112.218736 -52.573399 
L 111.568125 -52.577932 
L 110.917515 -52.583808 
L 110.266905 -52.590592 
L 109.616294 -52.597868 
L 108.965684 -52.605237 
L 108.315074 -52.612321 
L 107.664463 -52.618761 
L 107.013853 -52.624219 
L 106.363243 -52.628378 
L 105.712633 -52.630942 
L 105.062022 -52.631637 
L 104.411412 -52.63021 
L 103.760802 -52.62643 
L 103.110191 -52.620089 
L 102.459581 -52.611001 
L 101.808971 -52.599002 
L 101.15836 -52.58395 
L 100.50775 -52.565727 
L 99.85714 -52.544234 
L 99.206529 -52.519396 
L 98.555919 -52.491161 
L 97.905309 -52.459495 
L 97.254698 -52.424388 
L 96.604088 -52.385848 
L 95.953478 -52.343907 
L 95.302868 -52.298613 
L 94.652257 -52.250036 
L 94.001647 -52.198264 
L 93.351037 -52.143403 
L 92.700426 -52.085575 
L 92.049816 -52.024922 
L 91.399206 -51.961601 
L 90.748595 -51.895782 
L 90.097985 -51.827653 
L 89.447375 -51.757414 
L 88.796764 -51.685279 
L 88.146154 -51.611472 
L 87.495544 -51.536231 
L 86.844934 -51.459802 
L 86.194323 -51.382442 
L 85.543713 -51.304416 
L 84.893103 -51.225995 
L 84.242492 -51.147459 
L 83.591882 -51.069091 
L 82.941272 -50.99118 
L 82.290661 -50.914019 
L 81.640051 -50.837901 
L 80.989441 -50.763123 
L 80.33883 -50.68998 
L 79.68822 -50.618769 
L 79.03761 -50.549783 
L 78.386999 -50.483315 
L 77.736389 -50.419652 
L 77.085779 -50.359076 
L 76.435169 -50.301867 
L 75.784558 -50.248295 
L 75.133948 -50.198625 
L 74.483338 -50.153111 
L 73.832727 -50.112 
z
" id="m4af693c421" style="stroke:#000000;"/>
    </defs>
    <g clip-path="url(#p501ebc6560)">
     <use style="fill:#0000ff;stroke:#000000;" x="0" xlink:href="#m4af693c421" y="345.6"/>
    </g>
   </g>
   <g id="line2d_13">
    <path clip-path="url(#p501ebc6560)" d="M 73.832727 295.488 
L 79.03761 295.050217 
L 97.905309 293.140505 
L 103.110191 292.979911 
L 110.266905 293.009408 
L 116.773008 292.980673 
L 120.67667 292.736917 
L 123.929721 292.294732 
L 125.230942 292.038797 
L 125.881552 295.488 
L 146.050472 295.488 
L 146.701082 277.458786 
L 149.303523 274.11312 
L 151.905965 270.440498 
L 155.159016 265.432134 
L 158.412068 260.020061 
L 162.31573 253.082869 
L 166.219392 245.729849 
L 170.123053 237.930703 
L 173.376105 230.944332 
L 175.978546 224.861664 
L 178.580987 218.13342 
L 180.532818 212.516293 
L 182.484649 206.277859 
L 184.43648 199.292229 
L 186.388311 191.436191 
L 188.340142 182.600583 
L 190.291973 172.703828 
L 192.243804 161.706929 
L 194.195635 149.628896 
L 196.798076 132.013214 
L 200.051128 108.252855 
L 204.6054 74.666085 
L 206.557231 61.506104 
L 207.858451 53.568 
L 208.509062 295.488 
L 239.087746 295.488 
L 239.738357 228.929782 
L 241.039577 237.084949 
L 242.340798 243.576207 
L 243.642019 248.349475 
L 244.292629 250.087313 
L 244.943239 251.39576 
L 245.59385 252.280539 
L 246.24446 252.749965 
L 246.89507 252.814827 
L 247.54568 252.488253 
L 248.196291 251.785562 
L 248.846901 250.724095 
L 249.497511 249.323033 
L 250.798732 245.586892 
L 252.099953 240.759842 
L 253.401173 235.040828 
L 255.353004 225.246035 
L 263.160328 183.986069 
L 265.112159 175.766064 
L 266.413379 171.089591 
L 267.7146 167.093848 
L 269.015821 163.783397 
L 270.317041 161.140627 
L 271.618262 159.128798 
L 272.919483 157.695483 
L 274.220703 156.776247 
L 275.521924 156.298384 
L 276.823144 156.18457 
L 278.124365 156.356286 
L 279.425586 156.73691 
L 281.377417 157.543733 
L 285.931689 159.520185 
L 287.88352 160.087472 
L 289.835351 160.394705 
L 291.787182 160.442225 
L 293.739013 160.269746 
L 296.992064 159.692677 
L 300.245116 159.136807 
L 302.196947 159.011106 
L 304.148778 159.160251 
L 305.449998 159.454804 
L 306.751219 159.931058 
L 308.052439 160.607402 
L 309.35366 161.498886 
L 310.654881 162.617175 
L 311.956101 163.97058 
L 313.257322 165.56415 
L 315.209153 168.408257 
L 317.160984 171.790847 
L 319.112815 175.693173 
L 321.064646 180.085048 
L 323.667087 186.632301 
L 326.269528 193.862163 
L 329.52258 203.653124 
L 334.076852 218.243885 
L 341.884176 243.445645 
L 345.137227 253.234244 
L 347.739668 260.510352 
L 350.34211 267.181178 
L 352.944551 273.164385 
L 354.896382 277.163395 
L 356.848213 280.72438 
L 358.800044 283.838134 
L 360.751875 286.503167 
L 362.703706 288.725685 
L 364.655537 290.519445 
L 366.607367 291.905505 
L 368.559198 292.911858 
L 370.511029 293.572955 
L 372.46286 293.92914 
L 374.414691 294.025983 
L 376.366522 293.913533 
L 378.968963 293.531276 
L 387.426897 292.032939 
L 389.378728 291.97822 
L 391.330559 292.15066 
L 393.28239 292.600605 
L 395.234221 293.373846 
L 396.535442 294.089148 
L 397.836662 294.976704 
L 398.487273 295.488 
L 398.487273 295.488 
" style="fill:none;stroke:#000000;stroke-linecap:round;stroke-width:1.5;"/>
   </g>
  </g>
 </g>
 <defs>
  <clipPath id="p501ebc6560">
   <rect height="266.112" width="357.12" x="57.6" y="41.472"/>
  </clipPath>
 </defs>
</svg>
